G04 #@! TF.FileFunction,Legend,Top*
%FSLAX46Y46*%
G04 Gerber Fmt 4.6, Leading zero omitted, Abs format (unit mm)*
G04 Created by KiCad (PCBNEW 4.0.1-stable) date Friday, 01 July 2016 'pmt' 17:52:03*
%MOMM*%
G01*
G04 APERTURE LIST*
%ADD10C,0.100000*%
%ADD11C,0.200000*%
%ADD12C,0.300000*%
%ADD13C,0.150000*%
%ADD14C,0.250000*%
G04 APERTURE END LIST*
D10*
D11*
X101084286Y-96591429D02*
X101846191Y-96591429D01*
X101465239Y-96972381D02*
X101465239Y-96210476D01*
X102798572Y-95972381D02*
X102322381Y-95972381D01*
X102274762Y-96448571D01*
X102322381Y-96400952D01*
X102417619Y-96353333D01*
X102655715Y-96353333D01*
X102750953Y-96400952D01*
X102798572Y-96448571D01*
X102846191Y-96543810D01*
X102846191Y-96781905D01*
X102798572Y-96877143D01*
X102750953Y-96924762D01*
X102655715Y-96972381D01*
X102417619Y-96972381D01*
X102322381Y-96924762D01*
X102274762Y-96877143D01*
X103131905Y-95972381D02*
X103465238Y-96972381D01*
X103798572Y-95972381D01*
X104131905Y-96972381D02*
X104131905Y-95972381D01*
X104370000Y-95972381D01*
X104512858Y-96020000D01*
X104608096Y-96115238D01*
X104655715Y-96210476D01*
X104703334Y-96400952D01*
X104703334Y-96543810D01*
X104655715Y-96734286D01*
X104608096Y-96829524D01*
X104512858Y-96924762D01*
X104370000Y-96972381D01*
X104131905Y-96972381D01*
X165925714Y-70556429D02*
X166687619Y-70556429D01*
X166306667Y-70937381D02*
X166306667Y-70175476D01*
X167640000Y-69937381D02*
X167163809Y-69937381D01*
X167116190Y-70413571D01*
X167163809Y-70365952D01*
X167259047Y-70318333D01*
X167497143Y-70318333D01*
X167592381Y-70365952D01*
X167640000Y-70413571D01*
X167687619Y-70508810D01*
X167687619Y-70746905D01*
X167640000Y-70842143D01*
X167592381Y-70889762D01*
X167497143Y-70937381D01*
X167259047Y-70937381D01*
X167163809Y-70889762D01*
X167116190Y-70842143D01*
X167973333Y-69937381D02*
X168306666Y-70937381D01*
X168640000Y-69937381D01*
X168925714Y-70651667D02*
X169401905Y-70651667D01*
X168830476Y-70937381D02*
X169163809Y-69937381D01*
X169497143Y-70937381D01*
X209105714Y-70556429D02*
X209867619Y-70556429D01*
X210820000Y-69937381D02*
X210343809Y-69937381D01*
X210296190Y-70413571D01*
X210343809Y-70365952D01*
X210439047Y-70318333D01*
X210677143Y-70318333D01*
X210772381Y-70365952D01*
X210820000Y-70413571D01*
X210867619Y-70508810D01*
X210867619Y-70746905D01*
X210820000Y-70842143D01*
X210772381Y-70889762D01*
X210677143Y-70937381D01*
X210439047Y-70937381D01*
X210343809Y-70889762D01*
X210296190Y-70842143D01*
X211153333Y-69937381D02*
X211486666Y-70937381D01*
X211820000Y-69937381D01*
X212105714Y-70651667D02*
X212581905Y-70651667D01*
X212010476Y-70937381D02*
X212343809Y-69937381D01*
X212677143Y-70937381D01*
X70358095Y-68667381D02*
X70929524Y-68667381D01*
X70643809Y-69667381D02*
X70643809Y-68667381D01*
X71167619Y-68667381D02*
X71834286Y-69667381D01*
X71834286Y-68667381D02*
X71167619Y-69667381D01*
X70953334Y-66492381D02*
X70620000Y-66016190D01*
X70381905Y-66492381D02*
X70381905Y-65492381D01*
X70762858Y-65492381D01*
X70858096Y-65540000D01*
X70905715Y-65587619D01*
X70953334Y-65682857D01*
X70953334Y-65825714D01*
X70905715Y-65920952D01*
X70858096Y-65968571D01*
X70762858Y-66016190D01*
X70381905Y-66016190D01*
X71286667Y-65492381D02*
X71953334Y-66492381D01*
X71953334Y-65492381D02*
X71286667Y-66492381D01*
X70818572Y-95067381D02*
X70818572Y-94067381D01*
X71151906Y-94781667D01*
X71485239Y-94067381D01*
X71485239Y-95067381D01*
X72151905Y-94067381D02*
X72342382Y-94067381D01*
X72437620Y-94115000D01*
X72532858Y-94210238D01*
X72580477Y-94400714D01*
X72580477Y-94734048D01*
X72532858Y-94924524D01*
X72437620Y-95019762D01*
X72342382Y-95067381D01*
X72151905Y-95067381D01*
X72056667Y-95019762D01*
X71961429Y-94924524D01*
X71913810Y-94734048D01*
X71913810Y-94400714D01*
X71961429Y-94210238D01*
X72056667Y-94115000D01*
X72151905Y-94067381D01*
X72961429Y-95019762D02*
X73104286Y-95067381D01*
X73342382Y-95067381D01*
X73437620Y-95019762D01*
X73485239Y-94972143D01*
X73532858Y-94876905D01*
X73532858Y-94781667D01*
X73485239Y-94686429D01*
X73437620Y-94638810D01*
X73342382Y-94591190D01*
X73151905Y-94543571D01*
X73056667Y-94495952D01*
X73009048Y-94448333D01*
X72961429Y-94353095D01*
X72961429Y-94257857D01*
X73009048Y-94162619D01*
X73056667Y-94115000D01*
X73151905Y-94067381D01*
X73390001Y-94067381D01*
X73532858Y-94115000D01*
X73961429Y-95067381D02*
X73961429Y-94067381D01*
X70818572Y-98877381D02*
X70818572Y-97877381D01*
X71151906Y-98591667D01*
X71485239Y-97877381D01*
X71485239Y-98877381D01*
X71961429Y-98877381D02*
X71961429Y-97877381D01*
X72390000Y-98829762D02*
X72532857Y-98877381D01*
X72770953Y-98877381D01*
X72866191Y-98829762D01*
X72913810Y-98782143D01*
X72961429Y-98686905D01*
X72961429Y-98591667D01*
X72913810Y-98496429D01*
X72866191Y-98448810D01*
X72770953Y-98401190D01*
X72580476Y-98353571D01*
X72485238Y-98305952D01*
X72437619Y-98258333D01*
X72390000Y-98163095D01*
X72390000Y-98067857D01*
X72437619Y-97972619D01*
X72485238Y-97925000D01*
X72580476Y-97877381D01*
X72818572Y-97877381D01*
X72961429Y-97925000D01*
X73580476Y-97877381D02*
X73770953Y-97877381D01*
X73866191Y-97925000D01*
X73961429Y-98020238D01*
X74009048Y-98210714D01*
X74009048Y-98544048D01*
X73961429Y-98734524D01*
X73866191Y-98829762D01*
X73770953Y-98877381D01*
X73580476Y-98877381D01*
X73485238Y-98829762D01*
X73390000Y-98734524D01*
X73342381Y-98544048D01*
X73342381Y-98210714D01*
X73390000Y-98020238D01*
X73485238Y-97925000D01*
X73580476Y-97877381D01*
X177450715Y-107132381D02*
X176879286Y-107132381D01*
X177165000Y-107132381D02*
X177165000Y-106132381D01*
X177069762Y-106275238D01*
X176974524Y-106370476D01*
X176879286Y-106418095D01*
X101314286Y-92892619D02*
X101361905Y-92845000D01*
X101457143Y-92797381D01*
X101695239Y-92797381D01*
X101790477Y-92845000D01*
X101838096Y-92892619D01*
X101885715Y-92987857D01*
X101885715Y-93083095D01*
X101838096Y-93225952D01*
X101266667Y-93797381D01*
X101885715Y-93797381D01*
X101885715Y-81732381D02*
X101314286Y-81732381D01*
X101600000Y-81732381D02*
X101600000Y-80732381D01*
X101504762Y-80875238D01*
X101409524Y-80970476D01*
X101314286Y-81018095D01*
X65222619Y-81097381D02*
X64889285Y-80621190D01*
X64651190Y-81097381D02*
X64651190Y-80097381D01*
X65032143Y-80097381D01*
X65127381Y-80145000D01*
X65175000Y-80192619D01*
X65222619Y-80287857D01*
X65222619Y-80430714D01*
X65175000Y-80525952D01*
X65127381Y-80573571D01*
X65032143Y-80621190D01*
X64651190Y-80621190D01*
X65651190Y-80573571D02*
X65984524Y-80573571D01*
X66127381Y-81097381D02*
X65651190Y-81097381D01*
X65651190Y-80097381D01*
X66127381Y-80097381D01*
X66508333Y-81049762D02*
X66651190Y-81097381D01*
X66889286Y-81097381D01*
X66984524Y-81049762D01*
X67032143Y-81002143D01*
X67079762Y-80906905D01*
X67079762Y-80811667D01*
X67032143Y-80716429D01*
X66984524Y-80668810D01*
X66889286Y-80621190D01*
X66698809Y-80573571D01*
X66603571Y-80525952D01*
X66555952Y-80478333D01*
X66508333Y-80383095D01*
X66508333Y-80287857D01*
X66555952Y-80192619D01*
X66603571Y-80145000D01*
X66698809Y-80097381D01*
X66936905Y-80097381D01*
X67079762Y-80145000D01*
X67508333Y-80573571D02*
X67841667Y-80573571D01*
X67984524Y-81097381D02*
X67508333Y-81097381D01*
X67508333Y-80097381D01*
X67984524Y-80097381D01*
X68270238Y-80097381D02*
X68841667Y-80097381D01*
X68555952Y-81097381D02*
X68555952Y-80097381D01*
X75993810Y-105862381D02*
X75993810Y-104862381D01*
X77041429Y-105767143D02*
X76993810Y-105814762D01*
X76850953Y-105862381D01*
X76755715Y-105862381D01*
X76612857Y-105814762D01*
X76517619Y-105719524D01*
X76470000Y-105624286D01*
X76422381Y-105433810D01*
X76422381Y-105290952D01*
X76470000Y-105100476D01*
X76517619Y-105005238D01*
X76612857Y-104910000D01*
X76755715Y-104862381D01*
X76850953Y-104862381D01*
X76993810Y-104910000D01*
X77041429Y-104957619D01*
X77422381Y-105814762D02*
X77565238Y-105862381D01*
X77803334Y-105862381D01*
X77898572Y-105814762D01*
X77946191Y-105767143D01*
X77993810Y-105671905D01*
X77993810Y-105576667D01*
X77946191Y-105481429D01*
X77898572Y-105433810D01*
X77803334Y-105386190D01*
X77612857Y-105338571D01*
X77517619Y-105290952D01*
X77470000Y-105243333D01*
X77422381Y-105148095D01*
X77422381Y-105052857D01*
X77470000Y-104957619D01*
X77517619Y-104910000D01*
X77612857Y-104862381D01*
X77850953Y-104862381D01*
X77993810Y-104910000D01*
X78422381Y-105862381D02*
X78422381Y-104862381D01*
X78803334Y-104862381D01*
X78898572Y-104910000D01*
X78946191Y-104957619D01*
X78993810Y-105052857D01*
X78993810Y-105195714D01*
X78946191Y-105290952D01*
X78898572Y-105338571D01*
X78803334Y-105386190D01*
X78422381Y-105386190D01*
D12*
X109792380Y-98986429D02*
X110268571Y-100319762D01*
X110744761Y-98986429D01*
X112744762Y-99367381D02*
X112649524Y-99272143D01*
X112459047Y-99176905D01*
X112268571Y-99176905D01*
X112078095Y-99272143D01*
X111982857Y-99367381D01*
X111887619Y-99557857D01*
X111887619Y-99748333D01*
X111982857Y-99938810D01*
X112078095Y-100034048D01*
X112268571Y-100129286D01*
X112459047Y-100129286D01*
X112649524Y-100034048D01*
X112744762Y-99938810D01*
X112744762Y-99176905D02*
X112744762Y-99938810D01*
X112840000Y-100034048D01*
X112935238Y-100034048D01*
X113125714Y-99938810D01*
X113220952Y-99748333D01*
X113220952Y-99272143D01*
X113030476Y-98986429D01*
X112744762Y-98795952D01*
X112363809Y-98700714D01*
X111982857Y-98795952D01*
X111697143Y-98986429D01*
X111506666Y-99272143D01*
X111411428Y-99653095D01*
X111506666Y-100034048D01*
X111697143Y-100319762D01*
X111982857Y-100510238D01*
X112363809Y-100605476D01*
X112744762Y-100510238D01*
X113030476Y-100319762D01*
X114078095Y-98986429D02*
X114078095Y-100319762D01*
X114078095Y-99176905D02*
X114173334Y-99081667D01*
X114363810Y-98986429D01*
X114649524Y-98986429D01*
X114840000Y-99081667D01*
X114935238Y-99272143D01*
X114935238Y-100319762D01*
X116744762Y-100224524D02*
X116554286Y-100319762D01*
X116173334Y-100319762D01*
X115982858Y-100224524D01*
X115887619Y-100129286D01*
X115792381Y-99938810D01*
X115792381Y-99367381D01*
X115887619Y-99176905D01*
X115982858Y-99081667D01*
X116173334Y-98986429D01*
X116554286Y-98986429D01*
X116744762Y-99081667D01*
X118363810Y-100224524D02*
X118173334Y-100319762D01*
X117792382Y-100319762D01*
X117601905Y-100224524D01*
X117506667Y-100034048D01*
X117506667Y-99272143D01*
X117601905Y-99081667D01*
X117792382Y-98986429D01*
X118173334Y-98986429D01*
X118363810Y-99081667D01*
X118459048Y-99272143D01*
X118459048Y-99462619D01*
X117506667Y-99653095D01*
X119316191Y-100129286D02*
X119411430Y-100224524D01*
X119316191Y-100319762D01*
X119220953Y-100224524D01*
X119316191Y-100129286D01*
X119316191Y-100319762D01*
X120268572Y-100319762D02*
X120268572Y-98986429D01*
X120268572Y-99176905D02*
X120363811Y-99081667D01*
X120554287Y-98986429D01*
X120840001Y-98986429D01*
X121030477Y-99081667D01*
X121125715Y-99272143D01*
X121125715Y-100319762D01*
X121125715Y-99272143D02*
X121220953Y-99081667D01*
X121411430Y-98986429D01*
X121697144Y-98986429D01*
X121887620Y-99081667D01*
X121982858Y-99272143D01*
X121982858Y-100319762D01*
X123697144Y-100224524D02*
X123506668Y-100319762D01*
X123125716Y-100319762D01*
X122935239Y-100224524D01*
X122840001Y-100034048D01*
X122840001Y-99272143D01*
X122935239Y-99081667D01*
X123125716Y-98986429D01*
X123506668Y-98986429D01*
X123697144Y-99081667D01*
X123792382Y-99272143D01*
X123792382Y-99462619D01*
X122840001Y-99653095D01*
X96839998Y-102848333D02*
X97792379Y-102848333D01*
X96649522Y-103419762D02*
X97316189Y-101419762D01*
X97982856Y-103419762D01*
X99506665Y-102086429D02*
X99506665Y-103419762D01*
X98649522Y-102086429D02*
X98649522Y-103134048D01*
X98744761Y-103324524D01*
X98935237Y-103419762D01*
X99220951Y-103419762D01*
X99411427Y-103324524D01*
X99506665Y-103229286D01*
X101316189Y-103419762D02*
X101316189Y-101419762D01*
X101316189Y-103324524D02*
X101125713Y-103419762D01*
X100744761Y-103419762D01*
X100554285Y-103324524D01*
X100459046Y-103229286D01*
X100363808Y-103038810D01*
X100363808Y-102467381D01*
X100459046Y-102276905D01*
X100554285Y-102181667D01*
X100744761Y-102086429D01*
X101125713Y-102086429D01*
X101316189Y-102181667D01*
X102268570Y-103419762D02*
X102268570Y-102086429D01*
X102268570Y-101419762D02*
X102173332Y-101515000D01*
X102268570Y-101610238D01*
X102363809Y-101515000D01*
X102268570Y-101419762D01*
X102268570Y-101610238D01*
X103506666Y-103419762D02*
X103316190Y-103324524D01*
X103220951Y-103229286D01*
X103125713Y-103038810D01*
X103125713Y-102467381D01*
X103220951Y-102276905D01*
X103316190Y-102181667D01*
X103506666Y-102086429D01*
X103792380Y-102086429D01*
X103982856Y-102181667D01*
X104078094Y-102276905D01*
X104173332Y-102467381D01*
X104173332Y-103038810D01*
X104078094Y-103229286D01*
X103982856Y-103324524D01*
X103792380Y-103419762D01*
X103506666Y-103419762D01*
X106268571Y-101419762D02*
X106935238Y-103419762D01*
X107601905Y-101419762D01*
X108554286Y-103419762D02*
X108363810Y-103324524D01*
X108268571Y-103229286D01*
X108173333Y-103038810D01*
X108173333Y-102467381D01*
X108268571Y-102276905D01*
X108363810Y-102181667D01*
X108554286Y-102086429D01*
X108840000Y-102086429D01*
X109030476Y-102181667D01*
X109125714Y-102276905D01*
X109220952Y-102467381D01*
X109220952Y-103038810D01*
X109125714Y-103229286D01*
X109030476Y-103324524D01*
X108840000Y-103419762D01*
X108554286Y-103419762D01*
X110363810Y-103419762D02*
X110173334Y-103324524D01*
X110078095Y-103134048D01*
X110078095Y-101419762D01*
X111982857Y-102086429D02*
X111982857Y-103419762D01*
X111125714Y-102086429D02*
X111125714Y-103134048D01*
X111220953Y-103324524D01*
X111411429Y-103419762D01*
X111697143Y-103419762D01*
X111887619Y-103324524D01*
X111982857Y-103229286D01*
X112935238Y-103419762D02*
X112935238Y-102086429D01*
X112935238Y-102276905D02*
X113030477Y-102181667D01*
X113220953Y-102086429D01*
X113506667Y-102086429D01*
X113697143Y-102181667D01*
X113792381Y-102372143D01*
X113792381Y-103419762D01*
X113792381Y-102372143D02*
X113887619Y-102181667D01*
X114078096Y-102086429D01*
X114363810Y-102086429D01*
X114554286Y-102181667D01*
X114649524Y-102372143D01*
X114649524Y-103419762D01*
X116363810Y-103324524D02*
X116173334Y-103419762D01*
X115792382Y-103419762D01*
X115601905Y-103324524D01*
X115506667Y-103134048D01*
X115506667Y-102372143D01*
X115601905Y-102181667D01*
X115792382Y-102086429D01*
X116173334Y-102086429D01*
X116363810Y-102181667D01*
X116459048Y-102372143D01*
X116459048Y-102562619D01*
X115506667Y-102753095D01*
X119982859Y-103229286D02*
X119887621Y-103324524D01*
X119601906Y-103419762D01*
X119411430Y-103419762D01*
X119125716Y-103324524D01*
X118935240Y-103134048D01*
X118840001Y-102943571D01*
X118744763Y-102562619D01*
X118744763Y-102276905D01*
X118840001Y-101895952D01*
X118935240Y-101705476D01*
X119125716Y-101515000D01*
X119411430Y-101419762D01*
X119601906Y-101419762D01*
X119887621Y-101515000D01*
X119982859Y-101610238D01*
X121125716Y-103419762D02*
X120935240Y-103324524D01*
X120840001Y-103229286D01*
X120744763Y-103038810D01*
X120744763Y-102467381D01*
X120840001Y-102276905D01*
X120935240Y-102181667D01*
X121125716Y-102086429D01*
X121411430Y-102086429D01*
X121601906Y-102181667D01*
X121697144Y-102276905D01*
X121792382Y-102467381D01*
X121792382Y-103038810D01*
X121697144Y-103229286D01*
X121601906Y-103324524D01*
X121411430Y-103419762D01*
X121125716Y-103419762D01*
X122649525Y-102086429D02*
X122649525Y-103419762D01*
X122649525Y-102276905D02*
X122744764Y-102181667D01*
X122935240Y-102086429D01*
X123220954Y-102086429D01*
X123411430Y-102181667D01*
X123506668Y-102372143D01*
X123506668Y-103419762D01*
X124173335Y-102086429D02*
X124935240Y-102086429D01*
X124459049Y-101419762D02*
X124459049Y-103134048D01*
X124554288Y-103324524D01*
X124744764Y-103419762D01*
X124935240Y-103419762D01*
X125601906Y-103419762D02*
X125601906Y-102086429D01*
X125601906Y-102467381D02*
X125697145Y-102276905D01*
X125792383Y-102181667D01*
X125982859Y-102086429D01*
X126173335Y-102086429D01*
X127125716Y-103419762D02*
X126935240Y-103324524D01*
X126840001Y-103229286D01*
X126744763Y-103038810D01*
X126744763Y-102467381D01*
X126840001Y-102276905D01*
X126935240Y-102181667D01*
X127125716Y-102086429D01*
X127411430Y-102086429D01*
X127601906Y-102181667D01*
X127697144Y-102276905D01*
X127792382Y-102467381D01*
X127792382Y-103038810D01*
X127697144Y-103229286D01*
X127601906Y-103324524D01*
X127411430Y-103419762D01*
X127125716Y-103419762D01*
X128935240Y-103419762D02*
X128744764Y-103324524D01*
X128649525Y-103134048D01*
X128649525Y-101419762D01*
X130935240Y-101419762D02*
X131601907Y-103419762D01*
X132268574Y-101419762D01*
X133982860Y-103419762D02*
X132840002Y-103419762D01*
X133411431Y-103419762D02*
X133411431Y-101419762D01*
X133220955Y-101705476D01*
X133030479Y-101895952D01*
X132840002Y-101991190D01*
X134840002Y-103229286D02*
X134935241Y-103324524D01*
X134840002Y-103419762D01*
X134744764Y-103324524D01*
X134840002Y-103229286D01*
X134840002Y-103419762D01*
X136840003Y-103419762D02*
X135697145Y-103419762D01*
X136268574Y-103419762D02*
X136268574Y-101419762D01*
X136078098Y-101705476D01*
X135887622Y-101895952D01*
X135697145Y-101991190D01*
D11*
X172839286Y-108513571D02*
X172505952Y-108513571D01*
X172505952Y-109037381D02*
X172505952Y-108037381D01*
X172982143Y-108037381D01*
X173934524Y-109037381D02*
X173601190Y-108561190D01*
X173363095Y-109037381D02*
X173363095Y-108037381D01*
X173744048Y-108037381D01*
X173839286Y-108085000D01*
X173886905Y-108132619D01*
X173934524Y-108227857D01*
X173934524Y-108370714D01*
X173886905Y-108465952D01*
X173839286Y-108513571D01*
X173744048Y-108561190D01*
X173363095Y-108561190D01*
X174553571Y-108037381D02*
X174744048Y-108037381D01*
X174839286Y-108085000D01*
X174934524Y-108180238D01*
X174982143Y-108370714D01*
X174982143Y-108704048D01*
X174934524Y-108894524D01*
X174839286Y-108989762D01*
X174744048Y-109037381D01*
X174553571Y-109037381D01*
X174458333Y-108989762D01*
X174363095Y-108894524D01*
X174315476Y-108704048D01*
X174315476Y-108370714D01*
X174363095Y-108180238D01*
X174458333Y-108085000D01*
X174553571Y-108037381D01*
X175410714Y-109037381D02*
X175410714Y-108037381D01*
X175982143Y-109037381D01*
X175982143Y-108037381D01*
X176315476Y-108037381D02*
X176886905Y-108037381D01*
X176601190Y-109037381D02*
X176601190Y-108037381D01*
X202763572Y-109037381D02*
X202430238Y-108561190D01*
X202192143Y-109037381D02*
X202192143Y-108037381D01*
X202573096Y-108037381D01*
X202668334Y-108085000D01*
X202715953Y-108132619D01*
X202763572Y-108227857D01*
X202763572Y-108370714D01*
X202715953Y-108465952D01*
X202668334Y-108513571D01*
X202573096Y-108561190D01*
X202192143Y-108561190D01*
X203192143Y-108513571D02*
X203525477Y-108513571D01*
X203668334Y-109037381D02*
X203192143Y-109037381D01*
X203192143Y-108037381D01*
X203668334Y-108037381D01*
X204049286Y-108751667D02*
X204525477Y-108751667D01*
X203954048Y-109037381D02*
X204287381Y-108037381D01*
X204620715Y-109037381D01*
X205525477Y-109037381D02*
X205192143Y-108561190D01*
X204954048Y-109037381D02*
X204954048Y-108037381D01*
X205335001Y-108037381D01*
X205430239Y-108085000D01*
X205477858Y-108132619D01*
X205525477Y-108227857D01*
X205525477Y-108370714D01*
X205477858Y-108465952D01*
X205430239Y-108513571D01*
X205335001Y-108561190D01*
X204954048Y-108561190D01*
X201462143Y-53109762D02*
X201605000Y-53157381D01*
X201843096Y-53157381D01*
X201938334Y-53109762D01*
X201985953Y-53062143D01*
X202033572Y-52966905D01*
X202033572Y-52871667D01*
X201985953Y-52776429D01*
X201938334Y-52728810D01*
X201843096Y-52681190D01*
X201652619Y-52633571D01*
X201557381Y-52585952D01*
X201509762Y-52538333D01*
X201462143Y-52443095D01*
X201462143Y-52347857D01*
X201509762Y-52252619D01*
X201557381Y-52205000D01*
X201652619Y-52157381D01*
X201890715Y-52157381D01*
X202033572Y-52205000D01*
X202652619Y-52157381D02*
X202843096Y-52157381D01*
X202938334Y-52205000D01*
X203033572Y-52300238D01*
X203081191Y-52490714D01*
X203081191Y-52824048D01*
X203033572Y-53014524D01*
X202938334Y-53109762D01*
X202843096Y-53157381D01*
X202652619Y-53157381D01*
X202557381Y-53109762D01*
X202462143Y-53014524D01*
X202414524Y-52824048D01*
X202414524Y-52490714D01*
X202462143Y-52300238D01*
X202557381Y-52205000D01*
X202652619Y-52157381D01*
X203509762Y-52157381D02*
X203509762Y-52966905D01*
X203557381Y-53062143D01*
X203605000Y-53109762D01*
X203700238Y-53157381D01*
X203890715Y-53157381D01*
X203985953Y-53109762D01*
X204033572Y-53062143D01*
X204081191Y-52966905D01*
X204081191Y-52157381D01*
X205128810Y-53157381D02*
X204795476Y-52681190D01*
X204557381Y-53157381D02*
X204557381Y-52157381D01*
X204938334Y-52157381D01*
X205033572Y-52205000D01*
X205081191Y-52252619D01*
X205128810Y-52347857D01*
X205128810Y-52490714D01*
X205081191Y-52585952D01*
X205033572Y-52633571D01*
X204938334Y-52681190D01*
X204557381Y-52681190D01*
X206128810Y-53062143D02*
X206081191Y-53109762D01*
X205938334Y-53157381D01*
X205843096Y-53157381D01*
X205700238Y-53109762D01*
X205605000Y-53014524D01*
X205557381Y-52919286D01*
X205509762Y-52728810D01*
X205509762Y-52585952D01*
X205557381Y-52395476D01*
X205605000Y-52300238D01*
X205700238Y-52205000D01*
X205843096Y-52157381D01*
X205938334Y-52157381D01*
X206081191Y-52205000D01*
X206128810Y-52252619D01*
X206557381Y-52633571D02*
X206890715Y-52633571D01*
X207033572Y-53157381D02*
X206557381Y-53157381D01*
X206557381Y-52157381D01*
X207033572Y-52157381D01*
X208176429Y-52252619D02*
X208224048Y-52205000D01*
X208319286Y-52157381D01*
X208557382Y-52157381D01*
X208652620Y-52205000D01*
X208700239Y-52252619D01*
X208747858Y-52347857D01*
X208747858Y-52443095D01*
X208700239Y-52585952D01*
X208128810Y-53157381D01*
X208747858Y-53157381D01*
X169077143Y-53109762D02*
X169220000Y-53157381D01*
X169458096Y-53157381D01*
X169553334Y-53109762D01*
X169600953Y-53062143D01*
X169648572Y-52966905D01*
X169648572Y-52871667D01*
X169600953Y-52776429D01*
X169553334Y-52728810D01*
X169458096Y-52681190D01*
X169267619Y-52633571D01*
X169172381Y-52585952D01*
X169124762Y-52538333D01*
X169077143Y-52443095D01*
X169077143Y-52347857D01*
X169124762Y-52252619D01*
X169172381Y-52205000D01*
X169267619Y-52157381D01*
X169505715Y-52157381D01*
X169648572Y-52205000D01*
X170267619Y-52157381D02*
X170458096Y-52157381D01*
X170553334Y-52205000D01*
X170648572Y-52300238D01*
X170696191Y-52490714D01*
X170696191Y-52824048D01*
X170648572Y-53014524D01*
X170553334Y-53109762D01*
X170458096Y-53157381D01*
X170267619Y-53157381D01*
X170172381Y-53109762D01*
X170077143Y-53014524D01*
X170029524Y-52824048D01*
X170029524Y-52490714D01*
X170077143Y-52300238D01*
X170172381Y-52205000D01*
X170267619Y-52157381D01*
X171124762Y-52157381D02*
X171124762Y-52966905D01*
X171172381Y-53062143D01*
X171220000Y-53109762D01*
X171315238Y-53157381D01*
X171505715Y-53157381D01*
X171600953Y-53109762D01*
X171648572Y-53062143D01*
X171696191Y-52966905D01*
X171696191Y-52157381D01*
X172743810Y-53157381D02*
X172410476Y-52681190D01*
X172172381Y-53157381D02*
X172172381Y-52157381D01*
X172553334Y-52157381D01*
X172648572Y-52205000D01*
X172696191Y-52252619D01*
X172743810Y-52347857D01*
X172743810Y-52490714D01*
X172696191Y-52585952D01*
X172648572Y-52633571D01*
X172553334Y-52681190D01*
X172172381Y-52681190D01*
X173743810Y-53062143D02*
X173696191Y-53109762D01*
X173553334Y-53157381D01*
X173458096Y-53157381D01*
X173315238Y-53109762D01*
X173220000Y-53014524D01*
X173172381Y-52919286D01*
X173124762Y-52728810D01*
X173124762Y-52585952D01*
X173172381Y-52395476D01*
X173220000Y-52300238D01*
X173315238Y-52205000D01*
X173458096Y-52157381D01*
X173553334Y-52157381D01*
X173696191Y-52205000D01*
X173743810Y-52252619D01*
X174172381Y-52633571D02*
X174505715Y-52633571D01*
X174648572Y-53157381D02*
X174172381Y-53157381D01*
X174172381Y-52157381D01*
X174648572Y-52157381D01*
X176362858Y-53157381D02*
X175791429Y-53157381D01*
X176077143Y-53157381D02*
X176077143Y-52157381D01*
X175981905Y-52300238D01*
X175886667Y-52395476D01*
X175791429Y-52443095D01*
X120880476Y-60777381D02*
X120880476Y-59777381D01*
X121261429Y-59777381D01*
X121356667Y-59825000D01*
X121404286Y-59872619D01*
X121451905Y-59967857D01*
X121451905Y-60110714D01*
X121404286Y-60205952D01*
X121356667Y-60253571D01*
X121261429Y-60301190D01*
X120880476Y-60301190D01*
X122070952Y-59777381D02*
X122261429Y-59777381D01*
X122356667Y-59825000D01*
X122451905Y-59920238D01*
X122499524Y-60110714D01*
X122499524Y-60444048D01*
X122451905Y-60634524D01*
X122356667Y-60729762D01*
X122261429Y-60777381D01*
X122070952Y-60777381D01*
X121975714Y-60729762D01*
X121880476Y-60634524D01*
X121832857Y-60444048D01*
X121832857Y-60110714D01*
X121880476Y-59920238D01*
X121975714Y-59825000D01*
X122070952Y-59777381D01*
X122832857Y-59777381D02*
X123070952Y-60777381D01*
X123261429Y-60063095D01*
X123451905Y-60777381D01*
X123690000Y-59777381D01*
X124070952Y-60253571D02*
X124404286Y-60253571D01*
X124547143Y-60777381D02*
X124070952Y-60777381D01*
X124070952Y-59777381D01*
X124547143Y-59777381D01*
X125547143Y-60777381D02*
X125213809Y-60301190D01*
X124975714Y-60777381D02*
X124975714Y-59777381D01*
X125356667Y-59777381D01*
X125451905Y-59825000D01*
X125499524Y-59872619D01*
X125547143Y-59967857D01*
X125547143Y-60110714D01*
X125499524Y-60205952D01*
X125451905Y-60253571D01*
X125356667Y-60301190D01*
X124975714Y-60301190D01*
X107100952Y-60777381D02*
X107100952Y-59777381D01*
X107481905Y-59777381D01*
X107577143Y-59825000D01*
X107624762Y-59872619D01*
X107672381Y-59967857D01*
X107672381Y-60110714D01*
X107624762Y-60205952D01*
X107577143Y-60253571D01*
X107481905Y-60301190D01*
X107100952Y-60301190D01*
X108053333Y-60491667D02*
X108529524Y-60491667D01*
X107958095Y-60777381D02*
X108291428Y-59777381D01*
X108624762Y-60777381D01*
X108720000Y-60872619D02*
X109481905Y-60872619D01*
X109910476Y-59777381D02*
X110100953Y-59777381D01*
X110196191Y-59825000D01*
X110291429Y-59920238D01*
X110339048Y-60110714D01*
X110339048Y-60444048D01*
X110291429Y-60634524D01*
X110196191Y-60729762D01*
X110100953Y-60777381D01*
X109910476Y-60777381D01*
X109815238Y-60729762D01*
X109720000Y-60634524D01*
X109672381Y-60444048D01*
X109672381Y-60110714D01*
X109720000Y-59920238D01*
X109815238Y-59825000D01*
X109910476Y-59777381D01*
X110767619Y-60777381D02*
X110767619Y-59777381D01*
X111339048Y-60777381D01*
X111339048Y-59777381D01*
X97877619Y-60777381D02*
X97877619Y-59777381D01*
X98258572Y-59777381D01*
X98353810Y-59825000D01*
X98401429Y-59872619D01*
X98449048Y-59967857D01*
X98449048Y-60110714D01*
X98401429Y-60205952D01*
X98353810Y-60253571D01*
X98258572Y-60301190D01*
X97877619Y-60301190D01*
X98877619Y-60777381D02*
X98877619Y-59777381D01*
X99115714Y-60872619D02*
X99877619Y-60872619D01*
X100115714Y-60777381D02*
X100115714Y-59777381D01*
X100496667Y-59777381D01*
X100591905Y-59825000D01*
X100639524Y-59872619D01*
X100687143Y-59967857D01*
X100687143Y-60110714D01*
X100639524Y-60205952D01*
X100591905Y-60253571D01*
X100496667Y-60301190D01*
X100115714Y-60301190D01*
X101020476Y-59777381D02*
X101258571Y-60777381D01*
X101449048Y-60063095D01*
X101639524Y-60777381D01*
X101877619Y-59777381D01*
X102830000Y-60777381D02*
X102496666Y-60301190D01*
X102258571Y-60777381D02*
X102258571Y-59777381D01*
X102639524Y-59777381D01*
X102734762Y-59825000D01*
X102782381Y-59872619D01*
X102830000Y-59967857D01*
X102830000Y-60110714D01*
X102782381Y-60205952D01*
X102734762Y-60253571D01*
X102639524Y-60301190D01*
X102258571Y-60301190D01*
X88574762Y-60777381D02*
X88241428Y-60301190D01*
X88003333Y-60777381D02*
X88003333Y-59777381D01*
X88384286Y-59777381D01*
X88479524Y-59825000D01*
X88527143Y-59872619D01*
X88574762Y-59967857D01*
X88574762Y-60110714D01*
X88527143Y-60205952D01*
X88479524Y-60253571D01*
X88384286Y-60301190D01*
X88003333Y-60301190D01*
X88955714Y-60729762D02*
X89098571Y-60777381D01*
X89336667Y-60777381D01*
X89431905Y-60729762D01*
X89479524Y-60682143D01*
X89527143Y-60586905D01*
X89527143Y-60491667D01*
X89479524Y-60396429D01*
X89431905Y-60348810D01*
X89336667Y-60301190D01*
X89146190Y-60253571D01*
X89050952Y-60205952D01*
X89003333Y-60158333D01*
X88955714Y-60063095D01*
X88955714Y-59967857D01*
X89003333Y-59872619D01*
X89050952Y-59825000D01*
X89146190Y-59777381D01*
X89384286Y-59777381D01*
X89527143Y-59825000D01*
X89908095Y-59872619D02*
X89955714Y-59825000D01*
X90050952Y-59777381D01*
X90289048Y-59777381D01*
X90384286Y-59825000D01*
X90431905Y-59872619D01*
X90479524Y-59967857D01*
X90479524Y-60063095D01*
X90431905Y-60205952D01*
X89860476Y-60777381D01*
X90479524Y-60777381D01*
X90812857Y-59777381D02*
X91431905Y-59777381D01*
X91098571Y-60158333D01*
X91241429Y-60158333D01*
X91336667Y-60205952D01*
X91384286Y-60253571D01*
X91431905Y-60348810D01*
X91431905Y-60586905D01*
X91384286Y-60682143D01*
X91336667Y-60729762D01*
X91241429Y-60777381D01*
X90955714Y-60777381D01*
X90860476Y-60729762D01*
X90812857Y-60682143D01*
X91812857Y-59872619D02*
X91860476Y-59825000D01*
X91955714Y-59777381D01*
X92193810Y-59777381D01*
X92289048Y-59825000D01*
X92336667Y-59872619D01*
X92384286Y-59967857D01*
X92384286Y-60063095D01*
X92336667Y-60205952D01*
X91765238Y-60777381D01*
X92384286Y-60777381D01*
X73390476Y-59777381D02*
X73723809Y-60777381D01*
X74057143Y-59777381D01*
X74580952Y-59777381D02*
X74771429Y-59777381D01*
X74866667Y-59825000D01*
X74961905Y-59920238D01*
X75009524Y-60110714D01*
X75009524Y-60444048D01*
X74961905Y-60634524D01*
X74866667Y-60729762D01*
X74771429Y-60777381D01*
X74580952Y-60777381D01*
X74485714Y-60729762D01*
X74390476Y-60634524D01*
X74342857Y-60444048D01*
X74342857Y-60110714D01*
X74390476Y-59920238D01*
X74485714Y-59825000D01*
X74580952Y-59777381D01*
X75914286Y-60777381D02*
X75438095Y-60777381D01*
X75438095Y-59777381D01*
X76247619Y-59777381D02*
X76247619Y-60586905D01*
X76295238Y-60682143D01*
X76342857Y-60729762D01*
X76438095Y-60777381D01*
X76628572Y-60777381D01*
X76723810Y-60729762D01*
X76771429Y-60682143D01*
X76819048Y-60586905D01*
X76819048Y-59777381D01*
X77295238Y-60777381D02*
X77295238Y-59777381D01*
X77628572Y-60491667D01*
X77961905Y-59777381D01*
X77961905Y-60777381D01*
X78438095Y-60253571D02*
X78771429Y-60253571D01*
X78914286Y-60777381D02*
X78438095Y-60777381D01*
X78438095Y-59777381D01*
X78914286Y-59777381D01*
D13*
X192640000Y-77660000D02*
X192295000Y-77660000D01*
X192640000Y-85410000D02*
X192295000Y-85410000D01*
X174390000Y-85410000D02*
X174735000Y-85410000D01*
X174390000Y-77660000D02*
X174735000Y-77660000D01*
X192640000Y-77660000D02*
X192640000Y-85410000D01*
X174390000Y-77660000D02*
X174390000Y-85410000D01*
X192295000Y-77660000D02*
X192295000Y-75835000D01*
X190881000Y-73025000D02*
X186055000Y-73025000D01*
X186055000Y-73025000D02*
X186055000Y-62865000D01*
X186055000Y-62865000D02*
X190881000Y-62865000D01*
X190881000Y-62865000D02*
X190881000Y-73025000D01*
X189103000Y-62865000D02*
X189103000Y-63500000D01*
X189103000Y-63500000D02*
X187833000Y-63500000D01*
X187833000Y-63500000D02*
X187833000Y-62865000D01*
X177610000Y-109755000D02*
X177610000Y-101755000D01*
X187610000Y-109755000D02*
X177610000Y-109755000D01*
X187610000Y-101755000D02*
X187610000Y-109755000D01*
X177610000Y-101755000D02*
X187610000Y-101755000D01*
X173220000Y-61000000D02*
X172220000Y-61000000D01*
X172220000Y-59650000D02*
X173220000Y-59650000D01*
X81415000Y-63745000D02*
X81415000Y-65015000D01*
X88765000Y-63745000D02*
X88765000Y-65015000D01*
X88765000Y-101355000D02*
X88765000Y-100085000D01*
X81415000Y-101355000D02*
X81415000Y-100085000D01*
X81415000Y-63745000D02*
X88765000Y-63745000D01*
X81415000Y-101355000D02*
X88765000Y-101355000D01*
X81415000Y-65015000D02*
X80480000Y-65015000D01*
X71755000Y-102870000D02*
X66675000Y-102870000D01*
X74575000Y-102590000D02*
X74575000Y-104140000D01*
X74295000Y-105410000D02*
X71755000Y-105410000D01*
X71755000Y-105410000D02*
X71755000Y-102870000D01*
X66675000Y-102870000D02*
X66675000Y-107950000D01*
X66675000Y-107950000D02*
X71755000Y-107950000D01*
X74575000Y-102590000D02*
X73025000Y-102590000D01*
X74295000Y-107950000D02*
X74295000Y-105410000D01*
X71755000Y-107950000D02*
X74295000Y-107950000D01*
X135645000Y-93710000D02*
X135645000Y-91710000D01*
X133595000Y-91710000D02*
X133595000Y-93710000D01*
X113700000Y-75280000D02*
X113700000Y-74580000D01*
X114900000Y-74580000D02*
X114900000Y-75280000D01*
X116450000Y-73930000D02*
X116450000Y-75930000D01*
X118500000Y-75930000D02*
X118500000Y-73930000D01*
X182280000Y-68295000D02*
X182280000Y-67595000D01*
X183480000Y-67595000D02*
X183480000Y-68295000D01*
X193710000Y-68295000D02*
X193710000Y-67595000D01*
X194910000Y-67595000D02*
X194910000Y-68295000D01*
X200945000Y-74965000D02*
X201645000Y-74965000D01*
X201645000Y-76165000D02*
X200945000Y-76165000D01*
X201645000Y-87595000D02*
X200945000Y-87595000D01*
X200945000Y-86395000D02*
X201645000Y-86395000D01*
X183230000Y-74260000D02*
X182530000Y-74260000D01*
X182530000Y-73060000D02*
X183230000Y-73060000D01*
X182530000Y-88935000D02*
X183230000Y-88935000D01*
X183230000Y-90135000D02*
X182530000Y-90135000D01*
X184115000Y-94900000D02*
X184115000Y-95600000D01*
X182915000Y-95600000D02*
X182915000Y-94900000D01*
X194345000Y-95600000D02*
X194345000Y-94900000D01*
X195545000Y-94900000D02*
X195545000Y-95600000D01*
X178085000Y-73060000D02*
X178785000Y-73060000D01*
X178785000Y-74260000D02*
X178085000Y-74260000D01*
X91475000Y-82900000D02*
X91475000Y-82200000D01*
X92675000Y-82200000D02*
X92675000Y-82900000D01*
X71155000Y-85755000D02*
X71155000Y-85055000D01*
X72355000Y-85055000D02*
X72355000Y-85755000D01*
X72355000Y-90455000D02*
X72355000Y-91155000D01*
X71155000Y-91155000D02*
X71155000Y-90455000D01*
X74882500Y-74930000D02*
X74501500Y-74930000D01*
X75898500Y-74930000D02*
X75517500Y-74930000D01*
X75517500Y-74930000D02*
X74882500Y-75311000D01*
X74882500Y-75311000D02*
X74882500Y-74549000D01*
X74882500Y-74549000D02*
X75517500Y-74930000D01*
X75517500Y-75438000D02*
X75517500Y-74422000D01*
X77200000Y-74030000D02*
X73660000Y-74030000D01*
X77200000Y-75830000D02*
X73660000Y-75830000D01*
X136240520Y-54650640D02*
X136240520Y-52148740D01*
X136240520Y-62151260D02*
X136240520Y-59649360D01*
X148239480Y-62151260D02*
X148239480Y-59649360D01*
X148239480Y-52148740D02*
X148239480Y-54650640D01*
X137739120Y-57150000D02*
X146740880Y-57150000D01*
X137739120Y-54650640D02*
X137739120Y-59649360D01*
X146740880Y-54650640D02*
X146740880Y-59649360D01*
X152239980Y-55250080D02*
X152239980Y-54650640D01*
X132240020Y-59049920D02*
X132240020Y-59649360D01*
X132240020Y-59649360D02*
X152239980Y-59649360D01*
X152239980Y-59649360D02*
X152239980Y-59049920D01*
X152239980Y-54650640D02*
X132240020Y-54650640D01*
X132240020Y-54650640D02*
X132240020Y-55250080D01*
X154238960Y-55250080D02*
X154238960Y-52148740D01*
X130241040Y-59049920D02*
X130241040Y-62151260D01*
X130241040Y-62151260D02*
X154238960Y-62151260D01*
X154238960Y-62151260D02*
X154238960Y-59049920D01*
X154238960Y-52148740D02*
X130241040Y-52148740D01*
X130241040Y-52148740D02*
X130241040Y-55250080D01*
X127285000Y-50900000D02*
X127285000Y-58900000D01*
X119285000Y-50900000D02*
X127285000Y-50900000D01*
X119285000Y-58900000D02*
X119285000Y-50900000D01*
X127285000Y-58900000D02*
X119285000Y-58900000D01*
X187515000Y-50900000D02*
X187515000Y-58900000D01*
X177515000Y-50900000D02*
X187515000Y-50900000D01*
X177515000Y-58900000D02*
X177515000Y-50900000D01*
X187515000Y-58900000D02*
X177515000Y-58900000D01*
X200310000Y-50900000D02*
X200310000Y-58900000D01*
X190310000Y-50900000D02*
X200310000Y-50900000D01*
X190310000Y-58900000D02*
X190310000Y-50900000D01*
X200310000Y-58900000D02*
X190310000Y-58900000D01*
X94265000Y-50900000D02*
X94265000Y-58900000D01*
X86265000Y-50900000D02*
X94265000Y-50900000D01*
X86265000Y-58900000D02*
X86265000Y-50900000D01*
X94265000Y-58900000D02*
X86265000Y-58900000D01*
X83470000Y-50900000D02*
X83470000Y-58900000D01*
X69470000Y-50900000D02*
X83470000Y-50900000D01*
X69470000Y-58900000D02*
X69470000Y-50900000D01*
X83470000Y-58900000D02*
X69470000Y-58900000D01*
X97060000Y-55900000D02*
X97060000Y-58900000D01*
X103060000Y-55900000D02*
X103060000Y-58900000D01*
X103060000Y-55900000D02*
X103060000Y-50900000D01*
X103060000Y-50900000D02*
X97060000Y-50900000D01*
X97060000Y-50900000D02*
X97060000Y-55900000D01*
X103010000Y-58900000D02*
X97110000Y-58900000D01*
X105855000Y-55900000D02*
X105855000Y-58900000D01*
X111855000Y-55900000D02*
X111855000Y-58900000D01*
X111855000Y-55900000D02*
X111855000Y-50900000D01*
X111855000Y-50900000D02*
X105855000Y-50900000D01*
X105855000Y-50900000D02*
X105855000Y-55900000D01*
X111805000Y-58900000D02*
X105905000Y-58900000D01*
X190405000Y-109755000D02*
X190405000Y-101755000D01*
X200405000Y-109755000D02*
X190405000Y-109755000D01*
X200405000Y-101755000D02*
X200405000Y-109755000D01*
X190405000Y-101755000D02*
X200405000Y-101755000D01*
X105639820Y-69164200D02*
X105639820Y-69865240D01*
X105639820Y-69865240D02*
X105390900Y-69865240D01*
X102840840Y-69865240D02*
X102640180Y-69865240D01*
X102640180Y-69865240D02*
X102640180Y-69164200D01*
X107085180Y-69265800D02*
X107085180Y-68564760D01*
X107085180Y-68564760D02*
X107334100Y-68564760D01*
X109884160Y-68564760D02*
X110084820Y-68564760D01*
X110084820Y-68564760D02*
X110084820Y-69265800D01*
X98195180Y-69265800D02*
X98195180Y-68564760D01*
X98195180Y-68564760D02*
X98444100Y-68564760D01*
X100994160Y-68564760D02*
X101194820Y-68564760D01*
X101194820Y-68564760D02*
X101194820Y-69265800D01*
X76795000Y-70350000D02*
X76795000Y-69350000D01*
X78145000Y-69350000D02*
X78145000Y-70350000D01*
X75065000Y-64095000D02*
X76065000Y-64095000D01*
X76065000Y-65445000D02*
X75065000Y-65445000D01*
X93480000Y-67905000D02*
X94480000Y-67905000D01*
X94480000Y-69255000D02*
X93480000Y-69255000D01*
X94650000Y-65445000D02*
X93650000Y-65445000D01*
X93650000Y-64095000D02*
X94650000Y-64095000D01*
X108720000Y-74255000D02*
X109720000Y-74255000D01*
X109720000Y-75605000D02*
X108720000Y-75605000D01*
X103640000Y-74255000D02*
X104640000Y-74255000D01*
X104640000Y-75605000D02*
X103640000Y-75605000D01*
X99560000Y-75605000D02*
X98560000Y-75605000D01*
X98560000Y-74255000D02*
X99560000Y-74255000D01*
X184920000Y-59650000D02*
X185920000Y-59650000D01*
X185920000Y-61000000D02*
X184920000Y-61000000D01*
X180205000Y-61000000D02*
X179205000Y-61000000D01*
X179205000Y-59650000D02*
X180205000Y-59650000D01*
X197620000Y-59650000D02*
X198620000Y-59650000D01*
X198620000Y-61000000D02*
X197620000Y-61000000D01*
X192905000Y-61000000D02*
X191905000Y-61000000D01*
X191905000Y-59650000D02*
X192905000Y-59650000D01*
X172220000Y-72985000D02*
X173220000Y-72985000D01*
X173220000Y-74335000D02*
X172220000Y-74335000D01*
X118785000Y-55380000D02*
X118785000Y-56380000D01*
X117435000Y-56380000D02*
X117435000Y-55380000D01*
X107836851Y-85841511D02*
X106836851Y-85841511D01*
X106836851Y-84491511D02*
X107836851Y-84491511D01*
X107836851Y-90286511D02*
X106836851Y-90286511D01*
X106836851Y-88936511D02*
X107836851Y-88936511D01*
X205605000Y-61000000D02*
X204605000Y-61000000D01*
X204605000Y-59650000D02*
X205605000Y-59650000D01*
X72985000Y-70350000D02*
X72985000Y-69350000D01*
X74335000Y-69350000D02*
X74335000Y-70350000D01*
X160885000Y-63280000D02*
X160885000Y-82780000D01*
X120385000Y-63280000D02*
X160885000Y-63280000D01*
X120385000Y-82780000D02*
X120385000Y-63280000D01*
X160885000Y-82780000D02*
X120385000Y-82780000D01*
X140170000Y-93320000D02*
X159570000Y-93320000D01*
X138970000Y-101320000D02*
X138970000Y-94520000D01*
X159570000Y-102520000D02*
X140170000Y-102520000D01*
X160770000Y-94520000D02*
X160770000Y-101320000D01*
X160770000Y-93320000D02*
X160770000Y-93720000D01*
X138970000Y-102520000D02*
X139370000Y-102520000D01*
X138970000Y-102520000D02*
X138970000Y-102120000D01*
X160770000Y-102520000D02*
X160370000Y-102520000D01*
X160770000Y-102520000D02*
X160770000Y-102120000D01*
X160770000Y-93320000D02*
X160370000Y-93320000D01*
X138970000Y-93320000D02*
X138970000Y-93720000D01*
X138970000Y-93320000D02*
X139370000Y-93320000D01*
X191516000Y-100330000D02*
X186690000Y-100330000D01*
X186690000Y-100330000D02*
X186690000Y-90170000D01*
X186690000Y-90170000D02*
X191516000Y-90170000D01*
X191516000Y-90170000D02*
X191516000Y-100330000D01*
X189738000Y-90170000D02*
X189738000Y-90805000D01*
X189738000Y-90805000D02*
X188468000Y-90805000D01*
X188468000Y-90805000D02*
X188468000Y-90170000D01*
X77200760Y-92964000D02*
X76799440Y-93164660D01*
X76799440Y-93164660D02*
X76200000Y-93266260D01*
X76200000Y-93266260D02*
X75699620Y-93164660D01*
X75699620Y-93164660D02*
X75001120Y-92765880D01*
X75001120Y-92765880D02*
X74599800Y-92163900D01*
X74599800Y-92163900D02*
X74399140Y-91564460D01*
X74399140Y-91564460D02*
X74399140Y-84965540D01*
X74399140Y-84965540D02*
X74599800Y-84264500D01*
X74599800Y-84264500D02*
X74899520Y-83865720D01*
X74899520Y-83865720D02*
X75399900Y-83464400D01*
X75399900Y-83464400D02*
X75999340Y-83263740D01*
X75999340Y-83263740D02*
X76499720Y-83263740D01*
X76499720Y-83263740D02*
X77000100Y-83464400D01*
X77000100Y-83464400D02*
X77599540Y-83964780D01*
X77599540Y-83964780D02*
X77899260Y-84465160D01*
X77899260Y-84465160D02*
X78000860Y-84965540D01*
X78000860Y-85064600D02*
X78000860Y-91666060D01*
X78000860Y-91666060D02*
X77899260Y-92064840D01*
X77899260Y-92064840D02*
X77599540Y-92565220D01*
X77599540Y-92565220D02*
X77099160Y-93065600D01*
X78529180Y-85074760D02*
X78480920Y-84615020D01*
X78480920Y-84615020D02*
X78369160Y-84216240D01*
X78369160Y-84216240D02*
X78150720Y-83784440D01*
X78150720Y-83784440D02*
X77919580Y-83494880D01*
X77919580Y-83494880D02*
X77569060Y-83164680D01*
X77569060Y-83164680D02*
X77030580Y-82875120D01*
X77030580Y-82875120D02*
X76431140Y-82745580D01*
X76431140Y-82745580D02*
X75920600Y-82745580D01*
X75920600Y-82745580D02*
X75219560Y-82915760D01*
X75219560Y-82915760D02*
X74630280Y-83314540D01*
X74630280Y-83314540D02*
X74259440Y-83774280D01*
X74259440Y-83774280D02*
X74051160Y-84195920D01*
X74051160Y-84195920D02*
X73891140Y-84645500D01*
X73891140Y-84645500D02*
X73860660Y-85084920D01*
X74079100Y-92425520D02*
X74300080Y-92803980D01*
X74300080Y-92803980D02*
X74579480Y-93124020D01*
X74579480Y-93124020D02*
X74909680Y-93375480D01*
X74909680Y-93375480D02*
X75460860Y-93675200D01*
X75460860Y-93675200D02*
X75930760Y-93784420D01*
X75930760Y-93784420D02*
X76390500Y-93804740D01*
X76390500Y-93804740D02*
X76850240Y-93715840D01*
X76850240Y-93715840D02*
X77299820Y-93525340D01*
X77299820Y-93525340D02*
X77769720Y-93164660D01*
X77769720Y-93164660D02*
X78089760Y-92814140D01*
X78089760Y-92814140D02*
X78320900Y-92425520D01*
X78320900Y-92425520D02*
X78460600Y-91996260D01*
X78460600Y-91996260D02*
X78529180Y-91554300D01*
X73870820Y-85064600D02*
X73870820Y-91516200D01*
X73870820Y-91516200D02*
X73908920Y-91935300D01*
X73908920Y-91935300D02*
X74079100Y-92425520D01*
X78529180Y-85064600D02*
X78529180Y-91516200D01*
D14*
X120310000Y-59990000D02*
X120510000Y-59790000D01*
X120210000Y-59690000D02*
X120410000Y-59490000D01*
X119610000Y-58290000D02*
X119610000Y-61090000D01*
X119610000Y-59190000D02*
X119610000Y-58290000D01*
X120110000Y-59190000D02*
X119110000Y-59190000D01*
X119610000Y-59190000D02*
X120110000Y-60190000D01*
X119110000Y-60190000D02*
X119610000Y-59190000D01*
X120110000Y-60190000D02*
X119110000Y-60190000D01*
X117510000Y-58890000D02*
X117510000Y-60490000D01*
X118710000Y-58890000D02*
X118710000Y-60490000D01*
X101321851Y-87366511D02*
X101521851Y-87566511D01*
X101621851Y-87266511D02*
X101821851Y-87466511D01*
X103021851Y-86666511D02*
X100221851Y-86666511D01*
X102121851Y-86666511D02*
X103021851Y-86666511D01*
X102121851Y-87166511D02*
X102121851Y-86166511D01*
X102121851Y-86666511D02*
X101121851Y-87166511D01*
X101121851Y-86166511D02*
X102121851Y-86666511D01*
X101121851Y-87166511D02*
X101121851Y-86166511D01*
X102421851Y-84566511D02*
X100821851Y-84566511D01*
X102421851Y-85766511D02*
X100821851Y-85766511D01*
X101321851Y-91811511D02*
X101521851Y-92011511D01*
X101621851Y-91711511D02*
X101821851Y-91911511D01*
X103021851Y-91111511D02*
X100221851Y-91111511D01*
X102121851Y-91111511D02*
X103021851Y-91111511D01*
X102121851Y-91611511D02*
X102121851Y-90611511D01*
X102121851Y-91111511D02*
X101121851Y-91611511D01*
X101121851Y-90611511D02*
X102121851Y-91111511D01*
X101121851Y-91611511D02*
X101121851Y-90611511D01*
X102421851Y-89011511D02*
X100821851Y-89011511D01*
X102421851Y-90211511D02*
X100821851Y-90211511D01*
X204805000Y-57445000D02*
X205005000Y-57645000D01*
X205105000Y-57345000D02*
X205305000Y-57545000D01*
X206505000Y-56745000D02*
X203705000Y-56745000D01*
X205605000Y-56745000D02*
X206505000Y-56745000D01*
X205605000Y-57245000D02*
X205605000Y-56245000D01*
X205605000Y-56745000D02*
X204605000Y-57245000D01*
X204605000Y-56245000D02*
X205605000Y-56745000D01*
X204605000Y-57245000D02*
X204605000Y-56245000D01*
X205905000Y-54645000D02*
X204305000Y-54645000D01*
X205905000Y-55845000D02*
X204305000Y-55845000D01*
X172420000Y-57445000D02*
X172620000Y-57645000D01*
X172720000Y-57345000D02*
X172920000Y-57545000D01*
X174120000Y-56745000D02*
X171320000Y-56745000D01*
X173220000Y-56745000D02*
X174120000Y-56745000D01*
X173220000Y-57245000D02*
X173220000Y-56245000D01*
X173220000Y-56745000D02*
X172220000Y-57245000D01*
X172220000Y-56245000D02*
X173220000Y-56745000D01*
X172220000Y-57245000D02*
X172220000Y-56245000D01*
X173520000Y-54645000D02*
X171920000Y-54645000D01*
X173520000Y-55845000D02*
X171920000Y-55845000D01*
X98125000Y-98085000D02*
X98325000Y-98285000D01*
X98425000Y-97985000D02*
X98625000Y-98185000D01*
X99825000Y-97385000D02*
X97025000Y-97385000D01*
X98925000Y-97385000D02*
X99825000Y-97385000D01*
X98925000Y-97885000D02*
X98925000Y-96885000D01*
X98925000Y-97385000D02*
X97925000Y-97885000D01*
X97925000Y-96885000D02*
X98925000Y-97385000D01*
X97925000Y-97885000D02*
X97925000Y-96885000D01*
X99225000Y-95285000D02*
X97625000Y-95285000D01*
X99225000Y-96485000D02*
X97625000Y-96485000D01*
X115230000Y-59990000D02*
X115430000Y-59790000D01*
X115130000Y-59690000D02*
X115330000Y-59490000D01*
X114530000Y-58290000D02*
X114530000Y-61090000D01*
X114530000Y-59190000D02*
X114530000Y-58290000D01*
X115030000Y-59190000D02*
X114030000Y-59190000D01*
X114530000Y-59190000D02*
X115030000Y-60190000D01*
X114030000Y-60190000D02*
X114530000Y-59190000D01*
X115030000Y-60190000D02*
X114030000Y-60190000D01*
X112430000Y-58890000D02*
X112430000Y-60490000D01*
X113630000Y-58890000D02*
X113630000Y-60490000D01*
X106340000Y-59990000D02*
X106540000Y-59790000D01*
X106240000Y-59690000D02*
X106440000Y-59490000D01*
X105640000Y-58290000D02*
X105640000Y-61090000D01*
X105640000Y-59190000D02*
X105640000Y-58290000D01*
X106140000Y-59190000D02*
X105140000Y-59190000D01*
X105640000Y-59190000D02*
X106140000Y-60190000D01*
X105140000Y-60190000D02*
X105640000Y-59190000D01*
X106140000Y-60190000D02*
X105140000Y-60190000D01*
X103540000Y-58890000D02*
X103540000Y-60490000D01*
X104740000Y-58890000D02*
X104740000Y-60490000D01*
X173020000Y-68285000D02*
X172820000Y-68085000D01*
X172720000Y-68385000D02*
X172520000Y-68185000D01*
X171320000Y-68985000D02*
X174120000Y-68985000D01*
X172220000Y-68985000D02*
X171320000Y-68985000D01*
X172220000Y-68485000D02*
X172220000Y-69485000D01*
X172220000Y-68985000D02*
X173220000Y-68485000D01*
X173220000Y-69485000D02*
X172220000Y-68985000D01*
X173220000Y-68485000D02*
X173220000Y-69485000D01*
X171920000Y-71085000D02*
X173520000Y-71085000D01*
X171920000Y-69885000D02*
X173520000Y-69885000D01*
X205405000Y-68285000D02*
X205205000Y-68085000D01*
X205105000Y-68385000D02*
X204905000Y-68185000D01*
X203705000Y-68985000D02*
X206505000Y-68985000D01*
X204605000Y-68985000D02*
X203705000Y-68985000D01*
X204605000Y-68485000D02*
X204605000Y-69485000D01*
X204605000Y-68985000D02*
X205605000Y-68485000D01*
X205605000Y-69485000D02*
X204605000Y-68985000D01*
X205605000Y-68485000D02*
X205605000Y-69485000D01*
X204305000Y-71085000D02*
X205905000Y-71085000D01*
X204305000Y-69885000D02*
X205905000Y-69885000D01*
X136662000Y-91430000D02*
X136662000Y-89130000D01*
X144262000Y-91430000D02*
X136662000Y-91430000D01*
X144262000Y-89130000D02*
X144262000Y-91430000D01*
X144262000Y-83830000D02*
X144262000Y-86130000D01*
X136662000Y-83830000D02*
X144262000Y-83830000D01*
X136662000Y-86130000D02*
X136662000Y-83830000D01*
D13*
X96429820Y-89715340D02*
X96429820Y-90416380D01*
X96429820Y-90416380D02*
X96180900Y-90416380D01*
X93630840Y-90416380D02*
X93430180Y-90416380D01*
X93430180Y-90416380D02*
X93430180Y-89715340D01*
X97925000Y-92670000D02*
X98925000Y-92670000D01*
X98925000Y-94020000D02*
X97925000Y-94020000D01*
X112355000Y-56380000D02*
X112355000Y-55380000D01*
X113705000Y-55380000D02*
X113705000Y-56380000D01*
X104815000Y-55380000D02*
X104815000Y-56380000D01*
X103465000Y-56380000D02*
X103465000Y-55380000D01*
X94115000Y-85050000D02*
X95115000Y-85050000D01*
X95115000Y-86400000D02*
X94115000Y-86400000D01*
X174030000Y-64905000D02*
X174030000Y-65905000D01*
X172680000Y-65905000D02*
X172680000Y-64905000D01*
X208320000Y-63635000D02*
X208320000Y-64635000D01*
X206970000Y-64635000D02*
X206970000Y-63635000D01*
D14*
X68245000Y-63840000D02*
X68045000Y-63640000D01*
X67945000Y-63940000D02*
X67745000Y-63740000D01*
X66545000Y-64540000D02*
X69345000Y-64540000D01*
X67445000Y-64540000D02*
X66545000Y-64540000D01*
X67445000Y-64040000D02*
X67445000Y-65040000D01*
X67445000Y-64540000D02*
X68445000Y-64040000D01*
X68445000Y-65040000D02*
X67445000Y-64540000D01*
X68445000Y-64040000D02*
X68445000Y-65040000D01*
X67145000Y-66640000D02*
X68745000Y-66640000D01*
X67145000Y-65440000D02*
X68745000Y-65440000D01*
X68245000Y-67015000D02*
X68045000Y-66815000D01*
X67945000Y-67115000D02*
X67745000Y-66915000D01*
X66545000Y-67715000D02*
X69345000Y-67715000D01*
X67445000Y-67715000D02*
X66545000Y-67715000D01*
X67445000Y-67215000D02*
X67445000Y-68215000D01*
X67445000Y-67715000D02*
X68445000Y-67215000D01*
X68445000Y-68215000D02*
X67445000Y-67715000D01*
X68445000Y-67215000D02*
X68445000Y-68215000D01*
X67145000Y-69815000D02*
X68745000Y-69815000D01*
X67145000Y-68615000D02*
X68745000Y-68615000D01*
X68245000Y-96225000D02*
X68045000Y-96025000D01*
X67945000Y-96325000D02*
X67745000Y-96125000D01*
X66545000Y-96925000D02*
X69345000Y-96925000D01*
X67445000Y-96925000D02*
X66545000Y-96925000D01*
X67445000Y-96425000D02*
X67445000Y-97425000D01*
X67445000Y-96925000D02*
X68445000Y-96425000D01*
X68445000Y-97425000D02*
X67445000Y-96925000D01*
X68445000Y-96425000D02*
X68445000Y-97425000D01*
X67145000Y-99025000D02*
X68745000Y-99025000D01*
X67145000Y-97825000D02*
X68745000Y-97825000D01*
X68245000Y-92415000D02*
X68045000Y-92215000D01*
X67945000Y-92515000D02*
X67745000Y-92315000D01*
X66545000Y-93115000D02*
X69345000Y-93115000D01*
X67445000Y-93115000D02*
X66545000Y-93115000D01*
X67445000Y-92615000D02*
X67445000Y-93615000D01*
X67445000Y-93115000D02*
X68445000Y-92615000D01*
X68445000Y-93615000D02*
X67445000Y-93115000D01*
X68445000Y-92615000D02*
X68445000Y-93615000D01*
X67145000Y-95215000D02*
X68745000Y-95215000D01*
X67145000Y-94015000D02*
X68745000Y-94015000D01*
D13*
X63000000Y-65365000D02*
X64000000Y-65365000D01*
X64000000Y-66715000D02*
X63000000Y-66715000D01*
X63000000Y-68540000D02*
X64000000Y-68540000D01*
X64000000Y-69890000D02*
X63000000Y-69890000D01*
X63000000Y-97750000D02*
X64000000Y-97750000D01*
X64000000Y-99100000D02*
X63000000Y-99100000D01*
X63000000Y-93940000D02*
X64000000Y-93940000D01*
X64000000Y-95290000D02*
X63000000Y-95290000D01*
X196220000Y-83515000D02*
X196325000Y-83515000D01*
X196220000Y-79365000D02*
X196325000Y-79365000D01*
X206370000Y-79365000D02*
X206265000Y-79365000D01*
X206370000Y-83515000D02*
X206265000Y-83515000D01*
X196220000Y-83515000D02*
X196220000Y-79365000D01*
X206370000Y-83515000D02*
X206370000Y-79365000D01*
X196325000Y-83515000D02*
X196325000Y-84890000D01*
X69675000Y-72565000D02*
X69675000Y-72765000D01*
X69675000Y-78565000D02*
X69675000Y-78365000D01*
X63675000Y-78565000D02*
X63675000Y-78365000D01*
X63675000Y-72565000D02*
X63675000Y-72765000D01*
X63675000Y-74365000D02*
X63675000Y-76765000D01*
X69675000Y-74365000D02*
X69675000Y-76765000D01*
X69675000Y-72565000D02*
X63675000Y-72565000D01*
X63675000Y-78565000D02*
X69675000Y-78565000D01*
X68375000Y-75565000D02*
G75*
G03X68375000Y-75565000I-1700000J0D01*
G01*
X193017381Y-82296905D02*
X193826905Y-82296905D01*
X193922143Y-82249286D01*
X193969762Y-82201667D01*
X194017381Y-82106429D01*
X194017381Y-81915952D01*
X193969762Y-81820714D01*
X193922143Y-81773095D01*
X193826905Y-81725476D01*
X193017381Y-81725476D01*
X193017381Y-80773095D02*
X193017381Y-81249286D01*
X193493571Y-81296905D01*
X193445952Y-81249286D01*
X193398333Y-81154048D01*
X193398333Y-80915952D01*
X193445952Y-80820714D01*
X193493571Y-80773095D01*
X193588810Y-80725476D01*
X193826905Y-80725476D01*
X193922143Y-80773095D01*
X193969762Y-80820714D01*
X194017381Y-80915952D01*
X194017381Y-81154048D01*
X193969762Y-81249286D01*
X193922143Y-81296905D01*
X187833095Y-73747381D02*
X187833095Y-74556905D01*
X187880714Y-74652143D01*
X187928333Y-74699762D01*
X188023571Y-74747381D01*
X188214048Y-74747381D01*
X188309286Y-74699762D01*
X188356905Y-74652143D01*
X188404524Y-74556905D01*
X188404524Y-73747381D01*
X188785476Y-73747381D02*
X189404524Y-73747381D01*
X189071190Y-74128333D01*
X189214048Y-74128333D01*
X189309286Y-74175952D01*
X189356905Y-74223571D01*
X189404524Y-74318810D01*
X189404524Y-74556905D01*
X189356905Y-74652143D01*
X189309286Y-74699762D01*
X189214048Y-74747381D01*
X188928333Y-74747381D01*
X188833095Y-74699762D01*
X188785476Y-74652143D01*
X181724286Y-101297857D02*
X181724286Y-100097857D01*
X182181429Y-100097857D01*
X182295715Y-100155000D01*
X182352858Y-100212143D01*
X182410001Y-100326429D01*
X182410001Y-100497857D01*
X182352858Y-100612143D01*
X182295715Y-100669286D01*
X182181429Y-100726429D01*
X181724286Y-100726429D01*
X183095715Y-100612143D02*
X182981429Y-100555000D01*
X182924286Y-100497857D01*
X182867143Y-100383571D01*
X182867143Y-100326429D01*
X182924286Y-100212143D01*
X182981429Y-100155000D01*
X183095715Y-100097857D01*
X183324286Y-100097857D01*
X183438572Y-100155000D01*
X183495715Y-100212143D01*
X183552858Y-100326429D01*
X183552858Y-100383571D01*
X183495715Y-100497857D01*
X183438572Y-100555000D01*
X183324286Y-100612143D01*
X183095715Y-100612143D01*
X182981429Y-100669286D01*
X182924286Y-100726429D01*
X182867143Y-100840714D01*
X182867143Y-101069286D01*
X182924286Y-101183571D01*
X182981429Y-101240714D01*
X183095715Y-101297857D01*
X183324286Y-101297857D01*
X183438572Y-101240714D01*
X183495715Y-101183571D01*
X183552858Y-101069286D01*
X183552858Y-100840714D01*
X183495715Y-100726429D01*
X183438572Y-100669286D01*
X183324286Y-100612143D01*
X172077143Y-62682381D02*
X171743809Y-62206190D01*
X171505714Y-62682381D02*
X171505714Y-61682381D01*
X171886667Y-61682381D01*
X171981905Y-61730000D01*
X172029524Y-61777619D01*
X172077143Y-61872857D01*
X172077143Y-62015714D01*
X172029524Y-62110952D01*
X171981905Y-62158571D01*
X171886667Y-62206190D01*
X171505714Y-62206190D01*
X173029524Y-62682381D02*
X172458095Y-62682381D01*
X172743809Y-62682381D02*
X172743809Y-61682381D01*
X172648571Y-61825238D01*
X172553333Y-61920476D01*
X172458095Y-61968095D01*
X173362857Y-61682381D02*
X174029524Y-61682381D01*
X173600952Y-62682381D01*
X84113810Y-63317381D02*
X84113810Y-62317381D01*
X85161429Y-63222143D02*
X85113810Y-63269762D01*
X84970953Y-63317381D01*
X84875715Y-63317381D01*
X84732857Y-63269762D01*
X84637619Y-63174524D01*
X84590000Y-63079286D01*
X84542381Y-62888810D01*
X84542381Y-62745952D01*
X84590000Y-62555476D01*
X84637619Y-62460238D01*
X84732857Y-62365000D01*
X84875715Y-62317381D01*
X84970953Y-62317381D01*
X85113810Y-62365000D01*
X85161429Y-62412619D01*
X86113810Y-63317381D02*
X85542381Y-63317381D01*
X85828095Y-63317381D02*
X85828095Y-62317381D01*
X85732857Y-62460238D01*
X85637619Y-62555476D01*
X85542381Y-62603095D01*
X72445714Y-101417381D02*
X72445714Y-100417381D01*
X72826667Y-100417381D01*
X72921905Y-100465000D01*
X72969524Y-100512619D01*
X73017143Y-100607857D01*
X73017143Y-100750714D01*
X72969524Y-100845952D01*
X72921905Y-100893571D01*
X72826667Y-100941190D01*
X72445714Y-100941190D01*
X73969524Y-101417381D02*
X73398095Y-101417381D01*
X73683809Y-101417381D02*
X73683809Y-100417381D01*
X73588571Y-100560238D01*
X73493333Y-100655476D01*
X73398095Y-100703095D01*
X74588571Y-100417381D02*
X74683810Y-100417381D01*
X74779048Y-100465000D01*
X74826667Y-100512619D01*
X74874286Y-100607857D01*
X74921905Y-100798333D01*
X74921905Y-101036429D01*
X74874286Y-101226905D01*
X74826667Y-101322143D01*
X74779048Y-101369762D01*
X74683810Y-101417381D01*
X74588571Y-101417381D01*
X74493333Y-101369762D01*
X74445714Y-101322143D01*
X74398095Y-101226905D01*
X74350476Y-101036429D01*
X74350476Y-100798333D01*
X74398095Y-100607857D01*
X74445714Y-100512619D01*
X74493333Y-100465000D01*
X74588571Y-100417381D01*
X134977143Y-97956666D02*
X135024762Y-98004285D01*
X135072381Y-98147142D01*
X135072381Y-98242380D01*
X135024762Y-98385238D01*
X134929524Y-98480476D01*
X134834286Y-98528095D01*
X134643810Y-98575714D01*
X134500952Y-98575714D01*
X134310476Y-98528095D01*
X134215238Y-98480476D01*
X134120000Y-98385238D01*
X134072381Y-98242380D01*
X134072381Y-98147142D01*
X134120000Y-98004285D01*
X134167619Y-97956666D01*
X135072381Y-97004285D02*
X135072381Y-97575714D01*
X135072381Y-97290000D02*
X134072381Y-97290000D01*
X134215238Y-97385238D01*
X134310476Y-97480476D01*
X134358095Y-97575714D01*
X114657143Y-78906666D02*
X114704762Y-78954285D01*
X114752381Y-79097142D01*
X114752381Y-79192380D01*
X114704762Y-79335238D01*
X114609524Y-79430476D01*
X114514286Y-79478095D01*
X114323810Y-79525714D01*
X114180952Y-79525714D01*
X113990476Y-79478095D01*
X113895238Y-79430476D01*
X113800000Y-79335238D01*
X113752381Y-79192380D01*
X113752381Y-79097142D01*
X113800000Y-78954285D01*
X113847619Y-78906666D01*
X113847619Y-78525714D02*
X113800000Y-78478095D01*
X113752381Y-78382857D01*
X113752381Y-78144761D01*
X113800000Y-78049523D01*
X113847619Y-78001904D01*
X113942857Y-77954285D01*
X114038095Y-77954285D01*
X114180952Y-78001904D01*
X114752381Y-78573333D01*
X114752381Y-77954285D01*
X117832143Y-80176666D02*
X117879762Y-80224285D01*
X117927381Y-80367142D01*
X117927381Y-80462380D01*
X117879762Y-80605238D01*
X117784524Y-80700476D01*
X117689286Y-80748095D01*
X117498810Y-80795714D01*
X117355952Y-80795714D01*
X117165476Y-80748095D01*
X117070238Y-80700476D01*
X116975000Y-80605238D01*
X116927381Y-80462380D01*
X116927381Y-80367142D01*
X116975000Y-80224285D01*
X117022619Y-80176666D01*
X116927381Y-79843333D02*
X116927381Y-79224285D01*
X117308333Y-79557619D01*
X117308333Y-79414761D01*
X117355952Y-79319523D01*
X117403571Y-79271904D01*
X117498810Y-79224285D01*
X117736905Y-79224285D01*
X117832143Y-79271904D01*
X117879762Y-79319523D01*
X117927381Y-79414761D01*
X117927381Y-79700476D01*
X117879762Y-79795714D01*
X117832143Y-79843333D01*
X181332143Y-68111666D02*
X181379762Y-68159285D01*
X181427381Y-68302142D01*
X181427381Y-68397380D01*
X181379762Y-68540238D01*
X181284524Y-68635476D01*
X181189286Y-68683095D01*
X180998810Y-68730714D01*
X180855952Y-68730714D01*
X180665476Y-68683095D01*
X180570238Y-68635476D01*
X180475000Y-68540238D01*
X180427381Y-68397380D01*
X180427381Y-68302142D01*
X180475000Y-68159285D01*
X180522619Y-68111666D01*
X180760714Y-67254523D02*
X181427381Y-67254523D01*
X180379762Y-67492619D02*
X181094048Y-67730714D01*
X181094048Y-67111666D01*
X196572143Y-68111666D02*
X196619762Y-68159285D01*
X196667381Y-68302142D01*
X196667381Y-68397380D01*
X196619762Y-68540238D01*
X196524524Y-68635476D01*
X196429286Y-68683095D01*
X196238810Y-68730714D01*
X196095952Y-68730714D01*
X195905476Y-68683095D01*
X195810238Y-68635476D01*
X195715000Y-68540238D01*
X195667381Y-68397380D01*
X195667381Y-68302142D01*
X195715000Y-68159285D01*
X195762619Y-68111666D01*
X195667381Y-67206904D02*
X195667381Y-67683095D01*
X196143571Y-67730714D01*
X196095952Y-67683095D01*
X196048333Y-67587857D01*
X196048333Y-67349761D01*
X196095952Y-67254523D01*
X196143571Y-67206904D01*
X196238810Y-67159285D01*
X196476905Y-67159285D01*
X196572143Y-67206904D01*
X196619762Y-67254523D01*
X196667381Y-67349761D01*
X196667381Y-67587857D01*
X196619762Y-67683095D01*
X196572143Y-67730714D01*
X201128334Y-74017143D02*
X201080715Y-74064762D01*
X200937858Y-74112381D01*
X200842620Y-74112381D01*
X200699762Y-74064762D01*
X200604524Y-73969524D01*
X200556905Y-73874286D01*
X200509286Y-73683810D01*
X200509286Y-73540952D01*
X200556905Y-73350476D01*
X200604524Y-73255238D01*
X200699762Y-73160000D01*
X200842620Y-73112381D01*
X200937858Y-73112381D01*
X201080715Y-73160000D01*
X201128334Y-73207619D01*
X201985477Y-73112381D02*
X201795000Y-73112381D01*
X201699762Y-73160000D01*
X201652143Y-73207619D01*
X201556905Y-73350476D01*
X201509286Y-73540952D01*
X201509286Y-73921905D01*
X201556905Y-74017143D01*
X201604524Y-74064762D01*
X201699762Y-74112381D01*
X201890239Y-74112381D01*
X201985477Y-74064762D01*
X202033096Y-74017143D01*
X202080715Y-73921905D01*
X202080715Y-73683810D01*
X202033096Y-73588571D01*
X201985477Y-73540952D01*
X201890239Y-73493333D01*
X201699762Y-73493333D01*
X201604524Y-73540952D01*
X201556905Y-73588571D01*
X201509286Y-73683810D01*
X201128334Y-89252143D02*
X201080715Y-89299762D01*
X200937858Y-89347381D01*
X200842620Y-89347381D01*
X200699762Y-89299762D01*
X200604524Y-89204524D01*
X200556905Y-89109286D01*
X200509286Y-88918810D01*
X200509286Y-88775952D01*
X200556905Y-88585476D01*
X200604524Y-88490238D01*
X200699762Y-88395000D01*
X200842620Y-88347381D01*
X200937858Y-88347381D01*
X201080715Y-88395000D01*
X201128334Y-88442619D01*
X201461667Y-88347381D02*
X202128334Y-88347381D01*
X201699762Y-89347381D01*
X182713334Y-72112143D02*
X182665715Y-72159762D01*
X182522858Y-72207381D01*
X182427620Y-72207381D01*
X182284762Y-72159762D01*
X182189524Y-72064524D01*
X182141905Y-71969286D01*
X182094286Y-71778810D01*
X182094286Y-71635952D01*
X182141905Y-71445476D01*
X182189524Y-71350238D01*
X182284762Y-71255000D01*
X182427620Y-71207381D01*
X182522858Y-71207381D01*
X182665715Y-71255000D01*
X182713334Y-71302619D01*
X183284762Y-71635952D02*
X183189524Y-71588333D01*
X183141905Y-71540714D01*
X183094286Y-71445476D01*
X183094286Y-71397857D01*
X183141905Y-71302619D01*
X183189524Y-71255000D01*
X183284762Y-71207381D01*
X183475239Y-71207381D01*
X183570477Y-71255000D01*
X183618096Y-71302619D01*
X183665715Y-71397857D01*
X183665715Y-71445476D01*
X183618096Y-71540714D01*
X183570477Y-71588333D01*
X183475239Y-71635952D01*
X183284762Y-71635952D01*
X183189524Y-71683571D01*
X183141905Y-71731190D01*
X183094286Y-71826429D01*
X183094286Y-72016905D01*
X183141905Y-72112143D01*
X183189524Y-72159762D01*
X183284762Y-72207381D01*
X183475239Y-72207381D01*
X183570477Y-72159762D01*
X183618096Y-72112143D01*
X183665715Y-72016905D01*
X183665715Y-71826429D01*
X183618096Y-71731190D01*
X183570477Y-71683571D01*
X183475239Y-71635952D01*
X182713334Y-91797143D02*
X182665715Y-91844762D01*
X182522858Y-91892381D01*
X182427620Y-91892381D01*
X182284762Y-91844762D01*
X182189524Y-91749524D01*
X182141905Y-91654286D01*
X182094286Y-91463810D01*
X182094286Y-91320952D01*
X182141905Y-91130476D01*
X182189524Y-91035238D01*
X182284762Y-90940000D01*
X182427620Y-90892381D01*
X182522858Y-90892381D01*
X182665715Y-90940000D01*
X182713334Y-90987619D01*
X183189524Y-91892381D02*
X183380000Y-91892381D01*
X183475239Y-91844762D01*
X183522858Y-91797143D01*
X183618096Y-91654286D01*
X183665715Y-91463810D01*
X183665715Y-91082857D01*
X183618096Y-90987619D01*
X183570477Y-90940000D01*
X183475239Y-90892381D01*
X183284762Y-90892381D01*
X183189524Y-90940000D01*
X183141905Y-90987619D01*
X183094286Y-91082857D01*
X183094286Y-91320952D01*
X183141905Y-91416190D01*
X183189524Y-91463810D01*
X183284762Y-91511429D01*
X183475239Y-91511429D01*
X183570477Y-91463810D01*
X183618096Y-91416190D01*
X183665715Y-91320952D01*
X181967143Y-95892857D02*
X182014762Y-95940476D01*
X182062381Y-96083333D01*
X182062381Y-96178571D01*
X182014762Y-96321429D01*
X181919524Y-96416667D01*
X181824286Y-96464286D01*
X181633810Y-96511905D01*
X181490952Y-96511905D01*
X181300476Y-96464286D01*
X181205238Y-96416667D01*
X181110000Y-96321429D01*
X181062381Y-96178571D01*
X181062381Y-96083333D01*
X181110000Y-95940476D01*
X181157619Y-95892857D01*
X182062381Y-94940476D02*
X182062381Y-95511905D01*
X182062381Y-95226191D02*
X181062381Y-95226191D01*
X181205238Y-95321429D01*
X181300476Y-95416667D01*
X181348095Y-95511905D01*
X181062381Y-94321429D02*
X181062381Y-94226190D01*
X181110000Y-94130952D01*
X181157619Y-94083333D01*
X181252857Y-94035714D01*
X181443333Y-93988095D01*
X181681429Y-93988095D01*
X181871905Y-94035714D01*
X181967143Y-94083333D01*
X182014762Y-94130952D01*
X182062381Y-94226190D01*
X182062381Y-94321429D01*
X182014762Y-94416667D01*
X181967143Y-94464286D01*
X181871905Y-94511905D01*
X181681429Y-94559524D01*
X181443333Y-94559524D01*
X181252857Y-94511905D01*
X181157619Y-94464286D01*
X181110000Y-94416667D01*
X181062381Y-94321429D01*
X197207143Y-95892857D02*
X197254762Y-95940476D01*
X197302381Y-96083333D01*
X197302381Y-96178571D01*
X197254762Y-96321429D01*
X197159524Y-96416667D01*
X197064286Y-96464286D01*
X196873810Y-96511905D01*
X196730952Y-96511905D01*
X196540476Y-96464286D01*
X196445238Y-96416667D01*
X196350000Y-96321429D01*
X196302381Y-96178571D01*
X196302381Y-96083333D01*
X196350000Y-95940476D01*
X196397619Y-95892857D01*
X197302381Y-94940476D02*
X197302381Y-95511905D01*
X197302381Y-95226191D02*
X196302381Y-95226191D01*
X196445238Y-95321429D01*
X196540476Y-95416667D01*
X196588095Y-95511905D01*
X197302381Y-93988095D02*
X197302381Y-94559524D01*
X197302381Y-94273810D02*
X196302381Y-94273810D01*
X196445238Y-94369048D01*
X196540476Y-94464286D01*
X196588095Y-94559524D01*
X177792143Y-72117143D02*
X177744524Y-72164762D01*
X177601667Y-72212381D01*
X177506429Y-72212381D01*
X177363571Y-72164762D01*
X177268333Y-72069524D01*
X177220714Y-71974286D01*
X177173095Y-71783810D01*
X177173095Y-71640952D01*
X177220714Y-71450476D01*
X177268333Y-71355238D01*
X177363571Y-71260000D01*
X177506429Y-71212381D01*
X177601667Y-71212381D01*
X177744524Y-71260000D01*
X177792143Y-71307619D01*
X178744524Y-72212381D02*
X178173095Y-72212381D01*
X178458809Y-72212381D02*
X178458809Y-71212381D01*
X178363571Y-71355238D01*
X178268333Y-71450476D01*
X178173095Y-71498095D01*
X179125476Y-71307619D02*
X179173095Y-71260000D01*
X179268333Y-71212381D01*
X179506429Y-71212381D01*
X179601667Y-71260000D01*
X179649286Y-71307619D01*
X179696905Y-71402857D01*
X179696905Y-71498095D01*
X179649286Y-71640952D01*
X179077857Y-72212381D01*
X179696905Y-72212381D01*
X94337143Y-83192857D02*
X94384762Y-83240476D01*
X94432381Y-83383333D01*
X94432381Y-83478571D01*
X94384762Y-83621429D01*
X94289524Y-83716667D01*
X94194286Y-83764286D01*
X94003810Y-83811905D01*
X93860952Y-83811905D01*
X93670476Y-83764286D01*
X93575238Y-83716667D01*
X93480000Y-83621429D01*
X93432381Y-83478571D01*
X93432381Y-83383333D01*
X93480000Y-83240476D01*
X93527619Y-83192857D01*
X94432381Y-82240476D02*
X94432381Y-82811905D01*
X94432381Y-82526191D02*
X93432381Y-82526191D01*
X93575238Y-82621429D01*
X93670476Y-82716667D01*
X93718095Y-82811905D01*
X93432381Y-81907143D02*
X93432381Y-81288095D01*
X93813333Y-81621429D01*
X93813333Y-81478571D01*
X93860952Y-81383333D01*
X93908571Y-81335714D01*
X94003810Y-81288095D01*
X94241905Y-81288095D01*
X94337143Y-81335714D01*
X94384762Y-81383333D01*
X94432381Y-81478571D01*
X94432381Y-81764286D01*
X94384762Y-81859524D01*
X94337143Y-81907143D01*
X70212143Y-86047857D02*
X70259762Y-86095476D01*
X70307381Y-86238333D01*
X70307381Y-86333571D01*
X70259762Y-86476429D01*
X70164524Y-86571667D01*
X70069286Y-86619286D01*
X69878810Y-86666905D01*
X69735952Y-86666905D01*
X69545476Y-86619286D01*
X69450238Y-86571667D01*
X69355000Y-86476429D01*
X69307381Y-86333571D01*
X69307381Y-86238333D01*
X69355000Y-86095476D01*
X69402619Y-86047857D01*
X70307381Y-85095476D02*
X70307381Y-85666905D01*
X70307381Y-85381191D02*
X69307381Y-85381191D01*
X69450238Y-85476429D01*
X69545476Y-85571667D01*
X69593095Y-85666905D01*
X69640714Y-84238333D02*
X70307381Y-84238333D01*
X69259762Y-84476429D02*
X69974048Y-84714524D01*
X69974048Y-84095476D01*
X70207143Y-91447857D02*
X70254762Y-91495476D01*
X70302381Y-91638333D01*
X70302381Y-91733571D01*
X70254762Y-91876429D01*
X70159524Y-91971667D01*
X70064286Y-92019286D01*
X69873810Y-92066905D01*
X69730952Y-92066905D01*
X69540476Y-92019286D01*
X69445238Y-91971667D01*
X69350000Y-91876429D01*
X69302381Y-91733571D01*
X69302381Y-91638333D01*
X69350000Y-91495476D01*
X69397619Y-91447857D01*
X70302381Y-90495476D02*
X70302381Y-91066905D01*
X70302381Y-90781191D02*
X69302381Y-90781191D01*
X69445238Y-90876429D01*
X69540476Y-90971667D01*
X69588095Y-91066905D01*
X69302381Y-89590714D02*
X69302381Y-90066905D01*
X69778571Y-90114524D01*
X69730952Y-90066905D01*
X69683333Y-89971667D01*
X69683333Y-89733571D01*
X69730952Y-89638333D01*
X69778571Y-89590714D01*
X69873810Y-89543095D01*
X70111905Y-89543095D01*
X70207143Y-89590714D01*
X70254762Y-89638333D01*
X70302381Y-89733571D01*
X70302381Y-89971667D01*
X70254762Y-90066905D01*
X70207143Y-90114524D01*
X74461905Y-77382381D02*
X74461905Y-76382381D01*
X74700000Y-76382381D01*
X74842858Y-76430000D01*
X74938096Y-76525238D01*
X74985715Y-76620476D01*
X75033334Y-76810952D01*
X75033334Y-76953810D01*
X74985715Y-77144286D01*
X74938096Y-77239524D01*
X74842858Y-77334762D01*
X74700000Y-77382381D01*
X74461905Y-77382381D01*
X75985715Y-77382381D02*
X75414286Y-77382381D01*
X75700000Y-77382381D02*
X75700000Y-76382381D01*
X75604762Y-76525238D01*
X75509524Y-76620476D01*
X75414286Y-76668095D01*
X155876667Y-53903571D02*
X155543333Y-53903571D01*
X155543333Y-54427381D02*
X155543333Y-53427381D01*
X156019524Y-53427381D01*
X156924286Y-54427381D02*
X156352857Y-54427381D01*
X156638571Y-54427381D02*
X156638571Y-53427381D01*
X156543333Y-53570238D01*
X156448095Y-53665476D01*
X156352857Y-53713095D01*
X117224286Y-52612857D02*
X117224286Y-51412857D01*
X117681429Y-51412857D01*
X117795715Y-51470000D01*
X117852858Y-51527143D01*
X117910001Y-51641429D01*
X117910001Y-51812857D01*
X117852858Y-51927143D01*
X117795715Y-51984286D01*
X117681429Y-52041429D01*
X117224286Y-52041429D01*
X119052858Y-52612857D02*
X118367143Y-52612857D01*
X118710001Y-52612857D02*
X118710001Y-51412857D01*
X118595715Y-51584286D01*
X118481429Y-51698571D01*
X118367143Y-51755714D01*
X175009286Y-58962857D02*
X175009286Y-57762857D01*
X175466429Y-57762857D01*
X175580715Y-57820000D01*
X175637858Y-57877143D01*
X175695001Y-57991429D01*
X175695001Y-58162857D01*
X175637858Y-58277143D01*
X175580715Y-58334286D01*
X175466429Y-58391429D01*
X175009286Y-58391429D01*
X176152143Y-57877143D02*
X176209286Y-57820000D01*
X176323572Y-57762857D01*
X176609286Y-57762857D01*
X176723572Y-57820000D01*
X176780715Y-57877143D01*
X176837858Y-57991429D01*
X176837858Y-58105714D01*
X176780715Y-58277143D01*
X176095001Y-58962857D01*
X176837858Y-58962857D01*
X201044286Y-58962857D02*
X201044286Y-57762857D01*
X201501429Y-57762857D01*
X201615715Y-57820000D01*
X201672858Y-57877143D01*
X201730001Y-57991429D01*
X201730001Y-58162857D01*
X201672858Y-58277143D01*
X201615715Y-58334286D01*
X201501429Y-58391429D01*
X201044286Y-58391429D01*
X202130001Y-57762857D02*
X202872858Y-57762857D01*
X202472858Y-58220000D01*
X202644286Y-58220000D01*
X202758572Y-58277143D01*
X202815715Y-58334286D01*
X202872858Y-58448571D01*
X202872858Y-58734286D01*
X202815715Y-58848571D01*
X202758572Y-58905714D01*
X202644286Y-58962857D01*
X202301429Y-58962857D01*
X202187143Y-58905714D01*
X202130001Y-58848571D01*
X84204286Y-53247857D02*
X84204286Y-52047857D01*
X84661429Y-52047857D01*
X84775715Y-52105000D01*
X84832858Y-52162143D01*
X84890001Y-52276429D01*
X84890001Y-52447857D01*
X84832858Y-52562143D01*
X84775715Y-52619286D01*
X84661429Y-52676429D01*
X84204286Y-52676429D01*
X85918572Y-52447857D02*
X85918572Y-53247857D01*
X85632858Y-51990714D02*
X85347143Y-52847857D01*
X86090001Y-52847857D01*
X67059286Y-53247857D02*
X67059286Y-52047857D01*
X67516429Y-52047857D01*
X67630715Y-52105000D01*
X67687858Y-52162143D01*
X67745001Y-52276429D01*
X67745001Y-52447857D01*
X67687858Y-52562143D01*
X67630715Y-52619286D01*
X67516429Y-52676429D01*
X67059286Y-52676429D01*
X68830715Y-52047857D02*
X68259286Y-52047857D01*
X68202143Y-52619286D01*
X68259286Y-52562143D01*
X68373572Y-52505000D01*
X68659286Y-52505000D01*
X68773572Y-52562143D01*
X68830715Y-52619286D01*
X68887858Y-52733571D01*
X68887858Y-53019286D01*
X68830715Y-53133571D01*
X68773572Y-53190714D01*
X68659286Y-53247857D01*
X68373572Y-53247857D01*
X68259286Y-53190714D01*
X68202143Y-53133571D01*
X94999286Y-53247857D02*
X94999286Y-52047857D01*
X95456429Y-52047857D01*
X95570715Y-52105000D01*
X95627858Y-52162143D01*
X95685001Y-52276429D01*
X95685001Y-52447857D01*
X95627858Y-52562143D01*
X95570715Y-52619286D01*
X95456429Y-52676429D01*
X94999286Y-52676429D01*
X96713572Y-52047857D02*
X96485001Y-52047857D01*
X96370715Y-52105000D01*
X96313572Y-52162143D01*
X96199286Y-52333571D01*
X96142143Y-52562143D01*
X96142143Y-53019286D01*
X96199286Y-53133571D01*
X96256429Y-53190714D01*
X96370715Y-53247857D01*
X96599286Y-53247857D01*
X96713572Y-53190714D01*
X96770715Y-53133571D01*
X96827858Y-53019286D01*
X96827858Y-52733571D01*
X96770715Y-52619286D01*
X96713572Y-52562143D01*
X96599286Y-52505000D01*
X96370715Y-52505000D01*
X96256429Y-52562143D01*
X96199286Y-52619286D01*
X96142143Y-52733571D01*
X112144286Y-52612857D02*
X112144286Y-51412857D01*
X112601429Y-51412857D01*
X112715715Y-51470000D01*
X112772858Y-51527143D01*
X112830001Y-51641429D01*
X112830001Y-51812857D01*
X112772858Y-51927143D01*
X112715715Y-51984286D01*
X112601429Y-52041429D01*
X112144286Y-52041429D01*
X113230001Y-51412857D02*
X114030001Y-51412857D01*
X113515715Y-52612857D01*
X194519286Y-101297857D02*
X194519286Y-100097857D01*
X194976429Y-100097857D01*
X195090715Y-100155000D01*
X195147858Y-100212143D01*
X195205001Y-100326429D01*
X195205001Y-100497857D01*
X195147858Y-100612143D01*
X195090715Y-100669286D01*
X194976429Y-100726429D01*
X194519286Y-100726429D01*
X195776429Y-101297857D02*
X196005001Y-101297857D01*
X196119286Y-101240714D01*
X196176429Y-101183571D01*
X196290715Y-101012143D01*
X196347858Y-100783571D01*
X196347858Y-100326429D01*
X196290715Y-100212143D01*
X196233572Y-100155000D01*
X196119286Y-100097857D01*
X195890715Y-100097857D01*
X195776429Y-100155000D01*
X195719286Y-100212143D01*
X195662143Y-100326429D01*
X195662143Y-100612143D01*
X195719286Y-100726429D01*
X195776429Y-100783571D01*
X195890715Y-100840714D01*
X196119286Y-100840714D01*
X196233572Y-100783571D01*
X196290715Y-100726429D01*
X196347858Y-100612143D01*
X104044762Y-65952619D02*
X103949524Y-65905000D01*
X103854286Y-65809762D01*
X103711429Y-65666905D01*
X103616190Y-65619286D01*
X103520952Y-65619286D01*
X103568571Y-65857381D02*
X103473333Y-65809762D01*
X103378095Y-65714524D01*
X103330476Y-65524048D01*
X103330476Y-65190714D01*
X103378095Y-65000238D01*
X103473333Y-64905000D01*
X103568571Y-64857381D01*
X103759048Y-64857381D01*
X103854286Y-64905000D01*
X103949524Y-65000238D01*
X103997143Y-65190714D01*
X103997143Y-65524048D01*
X103949524Y-65714524D01*
X103854286Y-65809762D01*
X103759048Y-65857381D01*
X103568571Y-65857381D01*
X104949524Y-65857381D02*
X104378095Y-65857381D01*
X104663809Y-65857381D02*
X104663809Y-64857381D01*
X104568571Y-65000238D01*
X104473333Y-65095476D01*
X104378095Y-65143095D01*
X108489762Y-65952619D02*
X108394524Y-65905000D01*
X108299286Y-65809762D01*
X108156429Y-65666905D01*
X108061190Y-65619286D01*
X107965952Y-65619286D01*
X108013571Y-65857381D02*
X107918333Y-65809762D01*
X107823095Y-65714524D01*
X107775476Y-65524048D01*
X107775476Y-65190714D01*
X107823095Y-65000238D01*
X107918333Y-64905000D01*
X108013571Y-64857381D01*
X108204048Y-64857381D01*
X108299286Y-64905000D01*
X108394524Y-65000238D01*
X108442143Y-65190714D01*
X108442143Y-65524048D01*
X108394524Y-65714524D01*
X108299286Y-65809762D01*
X108204048Y-65857381D01*
X108013571Y-65857381D01*
X108823095Y-64952619D02*
X108870714Y-64905000D01*
X108965952Y-64857381D01*
X109204048Y-64857381D01*
X109299286Y-64905000D01*
X109346905Y-64952619D01*
X109394524Y-65047857D01*
X109394524Y-65143095D01*
X109346905Y-65285952D01*
X108775476Y-65857381D01*
X109394524Y-65857381D01*
X99599762Y-65952619D02*
X99504524Y-65905000D01*
X99409286Y-65809762D01*
X99266429Y-65666905D01*
X99171190Y-65619286D01*
X99075952Y-65619286D01*
X99123571Y-65857381D02*
X99028333Y-65809762D01*
X98933095Y-65714524D01*
X98885476Y-65524048D01*
X98885476Y-65190714D01*
X98933095Y-65000238D01*
X99028333Y-64905000D01*
X99123571Y-64857381D01*
X99314048Y-64857381D01*
X99409286Y-64905000D01*
X99504524Y-65000238D01*
X99552143Y-65190714D01*
X99552143Y-65524048D01*
X99504524Y-65714524D01*
X99409286Y-65809762D01*
X99314048Y-65857381D01*
X99123571Y-65857381D01*
X99885476Y-64857381D02*
X100504524Y-64857381D01*
X100171190Y-65238333D01*
X100314048Y-65238333D01*
X100409286Y-65285952D01*
X100456905Y-65333571D01*
X100504524Y-65428810D01*
X100504524Y-65666905D01*
X100456905Y-65762143D01*
X100409286Y-65809762D01*
X100314048Y-65857381D01*
X100028333Y-65857381D01*
X99933095Y-65809762D01*
X99885476Y-65762143D01*
X79822381Y-70016666D02*
X79346190Y-70350000D01*
X79822381Y-70588095D02*
X78822381Y-70588095D01*
X78822381Y-70207142D01*
X78870000Y-70111904D01*
X78917619Y-70064285D01*
X79012857Y-70016666D01*
X79155714Y-70016666D01*
X79250952Y-70064285D01*
X79298571Y-70111904D01*
X79346190Y-70207142D01*
X79346190Y-70588095D01*
X79822381Y-69064285D02*
X79822381Y-69635714D01*
X79822381Y-69350000D02*
X78822381Y-69350000D01*
X78965238Y-69445238D01*
X79060476Y-69540476D01*
X79108095Y-69635714D01*
X75398334Y-67122381D02*
X75065000Y-66646190D01*
X74826905Y-67122381D02*
X74826905Y-66122381D01*
X75207858Y-66122381D01*
X75303096Y-66170000D01*
X75350715Y-66217619D01*
X75398334Y-66312857D01*
X75398334Y-66455714D01*
X75350715Y-66550952D01*
X75303096Y-66598571D01*
X75207858Y-66646190D01*
X74826905Y-66646190D01*
X75779286Y-66217619D02*
X75826905Y-66170000D01*
X75922143Y-66122381D01*
X76160239Y-66122381D01*
X76255477Y-66170000D01*
X76303096Y-66217619D01*
X76350715Y-66312857D01*
X76350715Y-66408095D01*
X76303096Y-66550952D01*
X75731667Y-67122381D01*
X76350715Y-67122381D01*
X93813334Y-70932381D02*
X93480000Y-70456190D01*
X93241905Y-70932381D02*
X93241905Y-69932381D01*
X93622858Y-69932381D01*
X93718096Y-69980000D01*
X93765715Y-70027619D01*
X93813334Y-70122857D01*
X93813334Y-70265714D01*
X93765715Y-70360952D01*
X93718096Y-70408571D01*
X93622858Y-70456190D01*
X93241905Y-70456190D01*
X94146667Y-69932381D02*
X94765715Y-69932381D01*
X94432381Y-70313333D01*
X94575239Y-70313333D01*
X94670477Y-70360952D01*
X94718096Y-70408571D01*
X94765715Y-70503810D01*
X94765715Y-70741905D01*
X94718096Y-70837143D01*
X94670477Y-70884762D01*
X94575239Y-70932381D01*
X94289524Y-70932381D01*
X94194286Y-70884762D01*
X94146667Y-70837143D01*
X93983334Y-63322381D02*
X93650000Y-62846190D01*
X93411905Y-63322381D02*
X93411905Y-62322381D01*
X93792858Y-62322381D01*
X93888096Y-62370000D01*
X93935715Y-62417619D01*
X93983334Y-62512857D01*
X93983334Y-62655714D01*
X93935715Y-62750952D01*
X93888096Y-62798571D01*
X93792858Y-62846190D01*
X93411905Y-62846190D01*
X94840477Y-62655714D02*
X94840477Y-63322381D01*
X94602381Y-62274762D02*
X94364286Y-62989048D01*
X94983334Y-62989048D01*
X109053334Y-77282381D02*
X108720000Y-76806190D01*
X108481905Y-77282381D02*
X108481905Y-76282381D01*
X108862858Y-76282381D01*
X108958096Y-76330000D01*
X109005715Y-76377619D01*
X109053334Y-76472857D01*
X109053334Y-76615714D01*
X109005715Y-76710952D01*
X108958096Y-76758571D01*
X108862858Y-76806190D01*
X108481905Y-76806190D01*
X109958096Y-76282381D02*
X109481905Y-76282381D01*
X109434286Y-76758571D01*
X109481905Y-76710952D01*
X109577143Y-76663333D01*
X109815239Y-76663333D01*
X109910477Y-76710952D01*
X109958096Y-76758571D01*
X110005715Y-76853810D01*
X110005715Y-77091905D01*
X109958096Y-77187143D01*
X109910477Y-77234762D01*
X109815239Y-77282381D01*
X109577143Y-77282381D01*
X109481905Y-77234762D01*
X109434286Y-77187143D01*
X103973334Y-77282381D02*
X103640000Y-76806190D01*
X103401905Y-77282381D02*
X103401905Y-76282381D01*
X103782858Y-76282381D01*
X103878096Y-76330000D01*
X103925715Y-76377619D01*
X103973334Y-76472857D01*
X103973334Y-76615714D01*
X103925715Y-76710952D01*
X103878096Y-76758571D01*
X103782858Y-76806190D01*
X103401905Y-76806190D01*
X104830477Y-76282381D02*
X104640000Y-76282381D01*
X104544762Y-76330000D01*
X104497143Y-76377619D01*
X104401905Y-76520476D01*
X104354286Y-76710952D01*
X104354286Y-77091905D01*
X104401905Y-77187143D01*
X104449524Y-77234762D01*
X104544762Y-77282381D01*
X104735239Y-77282381D01*
X104830477Y-77234762D01*
X104878096Y-77187143D01*
X104925715Y-77091905D01*
X104925715Y-76853810D01*
X104878096Y-76758571D01*
X104830477Y-76710952D01*
X104735239Y-76663333D01*
X104544762Y-76663333D01*
X104449524Y-76710952D01*
X104401905Y-76758571D01*
X104354286Y-76853810D01*
X98893334Y-77287381D02*
X98560000Y-76811190D01*
X98321905Y-77287381D02*
X98321905Y-76287381D01*
X98702858Y-76287381D01*
X98798096Y-76335000D01*
X98845715Y-76382619D01*
X98893334Y-76477857D01*
X98893334Y-76620714D01*
X98845715Y-76715952D01*
X98798096Y-76763571D01*
X98702858Y-76811190D01*
X98321905Y-76811190D01*
X99226667Y-76287381D02*
X99893334Y-76287381D01*
X99464762Y-77287381D01*
X185253334Y-62677381D02*
X184920000Y-62201190D01*
X184681905Y-62677381D02*
X184681905Y-61677381D01*
X185062858Y-61677381D01*
X185158096Y-61725000D01*
X185205715Y-61772619D01*
X185253334Y-61867857D01*
X185253334Y-62010714D01*
X185205715Y-62105952D01*
X185158096Y-62153571D01*
X185062858Y-62201190D01*
X184681905Y-62201190D01*
X185824762Y-62105952D02*
X185729524Y-62058333D01*
X185681905Y-62010714D01*
X185634286Y-61915476D01*
X185634286Y-61867857D01*
X185681905Y-61772619D01*
X185729524Y-61725000D01*
X185824762Y-61677381D01*
X186015239Y-61677381D01*
X186110477Y-61725000D01*
X186158096Y-61772619D01*
X186205715Y-61867857D01*
X186205715Y-61915476D01*
X186158096Y-62010714D01*
X186110477Y-62058333D01*
X186015239Y-62105952D01*
X185824762Y-62105952D01*
X185729524Y-62153571D01*
X185681905Y-62201190D01*
X185634286Y-62296429D01*
X185634286Y-62486905D01*
X185681905Y-62582143D01*
X185729524Y-62629762D01*
X185824762Y-62677381D01*
X186015239Y-62677381D01*
X186110477Y-62629762D01*
X186158096Y-62582143D01*
X186205715Y-62486905D01*
X186205715Y-62296429D01*
X186158096Y-62201190D01*
X186110477Y-62153571D01*
X186015239Y-62105952D01*
X180173334Y-62682381D02*
X179840000Y-62206190D01*
X179601905Y-62682381D02*
X179601905Y-61682381D01*
X179982858Y-61682381D01*
X180078096Y-61730000D01*
X180125715Y-61777619D01*
X180173334Y-61872857D01*
X180173334Y-62015714D01*
X180125715Y-62110952D01*
X180078096Y-62158571D01*
X179982858Y-62206190D01*
X179601905Y-62206190D01*
X180649524Y-62682381D02*
X180840000Y-62682381D01*
X180935239Y-62634762D01*
X180982858Y-62587143D01*
X181078096Y-62444286D01*
X181125715Y-62253810D01*
X181125715Y-61872857D01*
X181078096Y-61777619D01*
X181030477Y-61730000D01*
X180935239Y-61682381D01*
X180744762Y-61682381D01*
X180649524Y-61730000D01*
X180601905Y-61777619D01*
X180554286Y-61872857D01*
X180554286Y-62110952D01*
X180601905Y-62206190D01*
X180649524Y-62253810D01*
X180744762Y-62301429D01*
X180935239Y-62301429D01*
X181030477Y-62253810D01*
X181078096Y-62206190D01*
X181125715Y-62110952D01*
X197477143Y-62677381D02*
X197143809Y-62201190D01*
X196905714Y-62677381D02*
X196905714Y-61677381D01*
X197286667Y-61677381D01*
X197381905Y-61725000D01*
X197429524Y-61772619D01*
X197477143Y-61867857D01*
X197477143Y-62010714D01*
X197429524Y-62105952D01*
X197381905Y-62153571D01*
X197286667Y-62201190D01*
X196905714Y-62201190D01*
X198429524Y-62677381D02*
X197858095Y-62677381D01*
X198143809Y-62677381D02*
X198143809Y-61677381D01*
X198048571Y-61820238D01*
X197953333Y-61915476D01*
X197858095Y-61963095D01*
X199048571Y-61677381D02*
X199143810Y-61677381D01*
X199239048Y-61725000D01*
X199286667Y-61772619D01*
X199334286Y-61867857D01*
X199381905Y-62058333D01*
X199381905Y-62296429D01*
X199334286Y-62486905D01*
X199286667Y-62582143D01*
X199239048Y-62629762D01*
X199143810Y-62677381D01*
X199048571Y-62677381D01*
X198953333Y-62629762D01*
X198905714Y-62582143D01*
X198858095Y-62486905D01*
X198810476Y-62296429D01*
X198810476Y-62058333D01*
X198858095Y-61867857D01*
X198905714Y-61772619D01*
X198953333Y-61725000D01*
X199048571Y-61677381D01*
X191762143Y-62682381D02*
X191428809Y-62206190D01*
X191190714Y-62682381D02*
X191190714Y-61682381D01*
X191571667Y-61682381D01*
X191666905Y-61730000D01*
X191714524Y-61777619D01*
X191762143Y-61872857D01*
X191762143Y-62015714D01*
X191714524Y-62110952D01*
X191666905Y-62158571D01*
X191571667Y-62206190D01*
X191190714Y-62206190D01*
X192714524Y-62682381D02*
X192143095Y-62682381D01*
X192428809Y-62682381D02*
X192428809Y-61682381D01*
X192333571Y-61825238D01*
X192238333Y-61920476D01*
X192143095Y-61968095D01*
X193666905Y-62682381D02*
X193095476Y-62682381D01*
X193381190Y-62682381D02*
X193381190Y-61682381D01*
X193285952Y-61825238D01*
X193190714Y-61920476D01*
X193095476Y-61968095D01*
X172077143Y-76012381D02*
X171743809Y-75536190D01*
X171505714Y-76012381D02*
X171505714Y-75012381D01*
X171886667Y-75012381D01*
X171981905Y-75060000D01*
X172029524Y-75107619D01*
X172077143Y-75202857D01*
X172077143Y-75345714D01*
X172029524Y-75440952D01*
X171981905Y-75488571D01*
X171886667Y-75536190D01*
X171505714Y-75536190D01*
X173029524Y-76012381D02*
X172458095Y-76012381D01*
X172743809Y-76012381D02*
X172743809Y-75012381D01*
X172648571Y-75155238D01*
X172553333Y-75250476D01*
X172458095Y-75298095D01*
X173410476Y-75107619D02*
X173458095Y-75060000D01*
X173553333Y-75012381D01*
X173791429Y-75012381D01*
X173886667Y-75060000D01*
X173934286Y-75107619D01*
X173981905Y-75202857D01*
X173981905Y-75298095D01*
X173934286Y-75440952D01*
X173362857Y-76012381D01*
X173981905Y-76012381D01*
X116662381Y-56522857D02*
X116186190Y-56856191D01*
X116662381Y-57094286D02*
X115662381Y-57094286D01*
X115662381Y-56713333D01*
X115710000Y-56618095D01*
X115757619Y-56570476D01*
X115852857Y-56522857D01*
X115995714Y-56522857D01*
X116090952Y-56570476D01*
X116138571Y-56618095D01*
X116186190Y-56713333D01*
X116186190Y-57094286D01*
X116662381Y-55570476D02*
X116662381Y-56141905D01*
X116662381Y-55856191D02*
X115662381Y-55856191D01*
X115805238Y-55951429D01*
X115900476Y-56046667D01*
X115948095Y-56141905D01*
X115662381Y-55237143D02*
X115662381Y-54618095D01*
X116043333Y-54951429D01*
X116043333Y-54808571D01*
X116090952Y-54713333D01*
X116138571Y-54665714D01*
X116233810Y-54618095D01*
X116471905Y-54618095D01*
X116567143Y-54665714D01*
X116614762Y-54713333D01*
X116662381Y-54808571D01*
X116662381Y-55094286D01*
X116614762Y-55189524D01*
X116567143Y-55237143D01*
X106693994Y-83718892D02*
X106360660Y-83242701D01*
X106122565Y-83718892D02*
X106122565Y-82718892D01*
X106503518Y-82718892D01*
X106598756Y-82766511D01*
X106646375Y-82814130D01*
X106693994Y-82909368D01*
X106693994Y-83052225D01*
X106646375Y-83147463D01*
X106598756Y-83195082D01*
X106503518Y-83242701D01*
X106122565Y-83242701D01*
X107646375Y-83718892D02*
X107074946Y-83718892D01*
X107360660Y-83718892D02*
X107360660Y-82718892D01*
X107265422Y-82861749D01*
X107170184Y-82956987D01*
X107074946Y-83004606D01*
X108503518Y-83052225D02*
X108503518Y-83718892D01*
X108265422Y-82671273D02*
X108027327Y-83385559D01*
X108646375Y-83385559D01*
X106693994Y-88163892D02*
X106360660Y-87687701D01*
X106122565Y-88163892D02*
X106122565Y-87163892D01*
X106503518Y-87163892D01*
X106598756Y-87211511D01*
X106646375Y-87259130D01*
X106693994Y-87354368D01*
X106693994Y-87497225D01*
X106646375Y-87592463D01*
X106598756Y-87640082D01*
X106503518Y-87687701D01*
X106122565Y-87687701D01*
X107646375Y-88163892D02*
X107074946Y-88163892D01*
X107360660Y-88163892D02*
X107360660Y-87163892D01*
X107265422Y-87306749D01*
X107170184Y-87401987D01*
X107074946Y-87449606D01*
X108551137Y-87163892D02*
X108074946Y-87163892D01*
X108027327Y-87640082D01*
X108074946Y-87592463D01*
X108170184Y-87544844D01*
X108408280Y-87544844D01*
X108503518Y-87592463D01*
X108551137Y-87640082D01*
X108598756Y-87735321D01*
X108598756Y-87973416D01*
X108551137Y-88068654D01*
X108503518Y-88116273D01*
X108408280Y-88163892D01*
X108170184Y-88163892D01*
X108074946Y-88116273D01*
X108027327Y-88068654D01*
X204462143Y-62682381D02*
X204128809Y-62206190D01*
X203890714Y-62682381D02*
X203890714Y-61682381D01*
X204271667Y-61682381D01*
X204366905Y-61730000D01*
X204414524Y-61777619D01*
X204462143Y-61872857D01*
X204462143Y-62015714D01*
X204414524Y-62110952D01*
X204366905Y-62158571D01*
X204271667Y-62206190D01*
X203890714Y-62206190D01*
X205414524Y-62682381D02*
X204843095Y-62682381D01*
X205128809Y-62682381D02*
X205128809Y-61682381D01*
X205033571Y-61825238D01*
X204938333Y-61920476D01*
X204843095Y-61968095D01*
X206271667Y-61682381D02*
X206081190Y-61682381D01*
X205985952Y-61730000D01*
X205938333Y-61777619D01*
X205843095Y-61920476D01*
X205795476Y-62110952D01*
X205795476Y-62491905D01*
X205843095Y-62587143D01*
X205890714Y-62634762D01*
X205985952Y-62682381D01*
X206176429Y-62682381D01*
X206271667Y-62634762D01*
X206319286Y-62587143D01*
X206366905Y-62491905D01*
X206366905Y-62253810D01*
X206319286Y-62158571D01*
X206271667Y-62110952D01*
X206176429Y-62063333D01*
X205985952Y-62063333D01*
X205890714Y-62110952D01*
X205843095Y-62158571D01*
X205795476Y-62253810D01*
X76017381Y-70492857D02*
X75541190Y-70826191D01*
X76017381Y-71064286D02*
X75017381Y-71064286D01*
X75017381Y-70683333D01*
X75065000Y-70588095D01*
X75112619Y-70540476D01*
X75207857Y-70492857D01*
X75350714Y-70492857D01*
X75445952Y-70540476D01*
X75493571Y-70588095D01*
X75541190Y-70683333D01*
X75541190Y-71064286D01*
X76017381Y-69540476D02*
X76017381Y-70111905D01*
X76017381Y-69826191D02*
X75017381Y-69826191D01*
X75160238Y-69921429D01*
X75255476Y-70016667D01*
X75303095Y-70111905D01*
X75445952Y-68969048D02*
X75398333Y-69064286D01*
X75350714Y-69111905D01*
X75255476Y-69159524D01*
X75207857Y-69159524D01*
X75112619Y-69111905D01*
X75065000Y-69064286D01*
X75017381Y-68969048D01*
X75017381Y-68778571D01*
X75065000Y-68683333D01*
X75112619Y-68635714D01*
X75207857Y-68588095D01*
X75255476Y-68588095D01*
X75350714Y-68635714D01*
X75398333Y-68683333D01*
X75445952Y-68778571D01*
X75445952Y-68969048D01*
X75493571Y-69064286D01*
X75541190Y-69111905D01*
X75636429Y-69159524D01*
X75826905Y-69159524D01*
X75922143Y-69111905D01*
X75969762Y-69064286D01*
X76017381Y-68969048D01*
X76017381Y-68778571D01*
X75969762Y-68683333D01*
X75922143Y-68635714D01*
X75826905Y-68588095D01*
X75636429Y-68588095D01*
X75541190Y-68635714D01*
X75493571Y-68683333D01*
X75445952Y-68778571D01*
X161798095Y-72487381D02*
X161798095Y-73296905D01*
X161845714Y-73392143D01*
X161893333Y-73439762D01*
X161988571Y-73487381D01*
X162179048Y-73487381D01*
X162274286Y-73439762D01*
X162321905Y-73392143D01*
X162369524Y-73296905D01*
X162369524Y-72487381D01*
X163369524Y-73487381D02*
X162798095Y-73487381D01*
X163083809Y-73487381D02*
X163083809Y-72487381D01*
X162988571Y-72630238D01*
X162893333Y-72725476D01*
X162798095Y-72773095D01*
X149408095Y-91872381D02*
X149408095Y-92681905D01*
X149455714Y-92777143D01*
X149503333Y-92824762D01*
X149598571Y-92872381D01*
X149789048Y-92872381D01*
X149884286Y-92824762D01*
X149931905Y-92777143D01*
X149979524Y-92681905D01*
X149979524Y-91872381D01*
X150408095Y-91967619D02*
X150455714Y-91920000D01*
X150550952Y-91872381D01*
X150789048Y-91872381D01*
X150884286Y-91920000D01*
X150931905Y-91967619D01*
X150979524Y-92062857D01*
X150979524Y-92158095D01*
X150931905Y-92300952D01*
X150360476Y-92872381D01*
X150979524Y-92872381D01*
X188468095Y-88352381D02*
X188468095Y-89161905D01*
X188515714Y-89257143D01*
X188563333Y-89304762D01*
X188658571Y-89352381D01*
X188849048Y-89352381D01*
X188944286Y-89304762D01*
X188991905Y-89257143D01*
X189039524Y-89161905D01*
X189039524Y-88352381D01*
X189944286Y-88352381D02*
X189753809Y-88352381D01*
X189658571Y-88400000D01*
X189610952Y-88447619D01*
X189515714Y-88590476D01*
X189468095Y-88780952D01*
X189468095Y-89161905D01*
X189515714Y-89257143D01*
X189563333Y-89304762D01*
X189658571Y-89352381D01*
X189849048Y-89352381D01*
X189944286Y-89304762D01*
X189991905Y-89257143D01*
X190039524Y-89161905D01*
X190039524Y-88923810D01*
X189991905Y-88828571D01*
X189944286Y-88780952D01*
X189849048Y-88733333D01*
X189658571Y-88733333D01*
X189563333Y-88780952D01*
X189515714Y-88828571D01*
X189468095Y-88923810D01*
X76176190Y-95726191D02*
X76652381Y-95726191D01*
X75652381Y-96059524D02*
X76176190Y-95726191D01*
X75652381Y-95392857D01*
X76652381Y-94535714D02*
X76652381Y-95107143D01*
X76652381Y-94821429D02*
X75652381Y-94821429D01*
X75795238Y-94916667D01*
X75890476Y-95011905D01*
X75938095Y-95107143D01*
X118562381Y-63603095D02*
X117562381Y-63603095D01*
X117562381Y-63365000D01*
X117610000Y-63222142D01*
X117705238Y-63126904D01*
X117800476Y-63079285D01*
X117990952Y-63031666D01*
X118133810Y-63031666D01*
X118324286Y-63079285D01*
X118419524Y-63126904D01*
X118514762Y-63222142D01*
X118562381Y-63365000D01*
X118562381Y-63603095D01*
X117657619Y-62650714D02*
X117610000Y-62603095D01*
X117562381Y-62507857D01*
X117562381Y-62269761D01*
X117610000Y-62174523D01*
X117657619Y-62126904D01*
X117752857Y-62079285D01*
X117848095Y-62079285D01*
X117990952Y-62126904D01*
X118562381Y-62698333D01*
X118562381Y-62079285D01*
X100883756Y-83718892D02*
X100883756Y-82718892D01*
X101121851Y-82718892D01*
X101264709Y-82766511D01*
X101359947Y-82861749D01*
X101407566Y-82956987D01*
X101455185Y-83147463D01*
X101455185Y-83290321D01*
X101407566Y-83480797D01*
X101359947Y-83576035D01*
X101264709Y-83671273D01*
X101121851Y-83718892D01*
X100883756Y-83718892D01*
X101788518Y-82718892D02*
X102407566Y-82718892D01*
X102074232Y-83099844D01*
X102217090Y-83099844D01*
X102312328Y-83147463D01*
X102359947Y-83195082D01*
X102407566Y-83290321D01*
X102407566Y-83528416D01*
X102359947Y-83623654D01*
X102312328Y-83671273D01*
X102217090Y-83718892D01*
X101931375Y-83718892D01*
X101836137Y-83671273D01*
X101788518Y-83623654D01*
X98321905Y-88717381D02*
X98321905Y-87717381D01*
X98560000Y-87717381D01*
X98702858Y-87765000D01*
X98798096Y-87860238D01*
X98845715Y-87955476D01*
X98893334Y-88145952D01*
X98893334Y-88288810D01*
X98845715Y-88479286D01*
X98798096Y-88574524D01*
X98702858Y-88669762D01*
X98560000Y-88717381D01*
X98321905Y-88717381D01*
X99750477Y-88050714D02*
X99750477Y-88717381D01*
X99512381Y-87669762D02*
X99274286Y-88384048D01*
X99893334Y-88384048D01*
X207541905Y-55697381D02*
X207541905Y-54697381D01*
X207780000Y-54697381D01*
X207922858Y-54745000D01*
X208018096Y-54840238D01*
X208065715Y-54935476D01*
X208113334Y-55125952D01*
X208113334Y-55268810D01*
X208065715Y-55459286D01*
X208018096Y-55554524D01*
X207922858Y-55649762D01*
X207780000Y-55697381D01*
X207541905Y-55697381D01*
X209018096Y-54697381D02*
X208541905Y-54697381D01*
X208494286Y-55173571D01*
X208541905Y-55125952D01*
X208637143Y-55078333D01*
X208875239Y-55078333D01*
X208970477Y-55125952D01*
X209018096Y-55173571D01*
X209065715Y-55268810D01*
X209065715Y-55506905D01*
X209018096Y-55602143D01*
X208970477Y-55649762D01*
X208875239Y-55697381D01*
X208637143Y-55697381D01*
X208541905Y-55649762D01*
X208494286Y-55602143D01*
X168806905Y-55697381D02*
X168806905Y-54697381D01*
X169045000Y-54697381D01*
X169187858Y-54745000D01*
X169283096Y-54840238D01*
X169330715Y-54935476D01*
X169378334Y-55125952D01*
X169378334Y-55268810D01*
X169330715Y-55459286D01*
X169283096Y-55554524D01*
X169187858Y-55649762D01*
X169045000Y-55697381D01*
X168806905Y-55697381D01*
X170235477Y-54697381D02*
X170045000Y-54697381D01*
X169949762Y-54745000D01*
X169902143Y-54792619D01*
X169806905Y-54935476D01*
X169759286Y-55125952D01*
X169759286Y-55506905D01*
X169806905Y-55602143D01*
X169854524Y-55649762D01*
X169949762Y-55697381D01*
X170140239Y-55697381D01*
X170235477Y-55649762D01*
X170283096Y-55602143D01*
X170330715Y-55506905D01*
X170330715Y-55268810D01*
X170283096Y-55173571D01*
X170235477Y-55125952D01*
X170140239Y-55078333D01*
X169949762Y-55078333D01*
X169854524Y-55125952D01*
X169806905Y-55173571D01*
X169759286Y-55268810D01*
X94511905Y-97607381D02*
X94511905Y-96607381D01*
X94750000Y-96607381D01*
X94892858Y-96655000D01*
X94988096Y-96750238D01*
X95035715Y-96845476D01*
X95083334Y-97035952D01*
X95083334Y-97178810D01*
X95035715Y-97369286D01*
X94988096Y-97464524D01*
X94892858Y-97559762D01*
X94750000Y-97607381D01*
X94511905Y-97607381D01*
X95416667Y-96607381D02*
X96083334Y-96607381D01*
X95654762Y-97607381D01*
X113482381Y-63603095D02*
X112482381Y-63603095D01*
X112482381Y-63365000D01*
X112530000Y-63222142D01*
X112625238Y-63126904D01*
X112720476Y-63079285D01*
X112910952Y-63031666D01*
X113053810Y-63031666D01*
X113244286Y-63079285D01*
X113339524Y-63126904D01*
X113434762Y-63222142D01*
X113482381Y-63365000D01*
X113482381Y-63603095D01*
X112910952Y-62460238D02*
X112863333Y-62555476D01*
X112815714Y-62603095D01*
X112720476Y-62650714D01*
X112672857Y-62650714D01*
X112577619Y-62603095D01*
X112530000Y-62555476D01*
X112482381Y-62460238D01*
X112482381Y-62269761D01*
X112530000Y-62174523D01*
X112577619Y-62126904D01*
X112672857Y-62079285D01*
X112720476Y-62079285D01*
X112815714Y-62126904D01*
X112863333Y-62174523D01*
X112910952Y-62269761D01*
X112910952Y-62460238D01*
X112958571Y-62555476D01*
X113006190Y-62603095D01*
X113101429Y-62650714D01*
X113291905Y-62650714D01*
X113387143Y-62603095D01*
X113434762Y-62555476D01*
X113482381Y-62460238D01*
X113482381Y-62269761D01*
X113434762Y-62174523D01*
X113387143Y-62126904D01*
X113291905Y-62079285D01*
X113101429Y-62079285D01*
X113006190Y-62126904D01*
X112958571Y-62174523D01*
X112910952Y-62269761D01*
X104592381Y-63603095D02*
X103592381Y-63603095D01*
X103592381Y-63365000D01*
X103640000Y-63222142D01*
X103735238Y-63126904D01*
X103830476Y-63079285D01*
X104020952Y-63031666D01*
X104163810Y-63031666D01*
X104354286Y-63079285D01*
X104449524Y-63126904D01*
X104544762Y-63222142D01*
X104592381Y-63365000D01*
X104592381Y-63603095D01*
X104592381Y-62555476D02*
X104592381Y-62365000D01*
X104544762Y-62269761D01*
X104497143Y-62222142D01*
X104354286Y-62126904D01*
X104163810Y-62079285D01*
X103782857Y-62079285D01*
X103687619Y-62126904D01*
X103640000Y-62174523D01*
X103592381Y-62269761D01*
X103592381Y-62460238D01*
X103640000Y-62555476D01*
X103687619Y-62603095D01*
X103782857Y-62650714D01*
X104020952Y-62650714D01*
X104116190Y-62603095D01*
X104163810Y-62555476D01*
X104211429Y-62460238D01*
X104211429Y-62269761D01*
X104163810Y-62174523D01*
X104116190Y-62126904D01*
X104020952Y-62079285D01*
X171505714Y-72837381D02*
X171505714Y-71837381D01*
X171743809Y-71837381D01*
X171886667Y-71885000D01*
X171981905Y-71980238D01*
X172029524Y-72075476D01*
X172077143Y-72265952D01*
X172077143Y-72408810D01*
X172029524Y-72599286D01*
X171981905Y-72694524D01*
X171886667Y-72789762D01*
X171743809Y-72837381D01*
X171505714Y-72837381D01*
X173029524Y-72837381D02*
X172458095Y-72837381D01*
X172743809Y-72837381D02*
X172743809Y-71837381D01*
X172648571Y-71980238D01*
X172553333Y-72075476D01*
X172458095Y-72123095D01*
X173648571Y-71837381D02*
X173743810Y-71837381D01*
X173839048Y-71885000D01*
X173886667Y-71932619D01*
X173934286Y-72027857D01*
X173981905Y-72218333D01*
X173981905Y-72456429D01*
X173934286Y-72646905D01*
X173886667Y-72742143D01*
X173839048Y-72789762D01*
X173743810Y-72837381D01*
X173648571Y-72837381D01*
X173553333Y-72789762D01*
X173505714Y-72742143D01*
X173458095Y-72646905D01*
X173410476Y-72456429D01*
X173410476Y-72218333D01*
X173458095Y-72027857D01*
X173505714Y-71932619D01*
X173553333Y-71885000D01*
X173648571Y-71837381D01*
X203890714Y-72837381D02*
X203890714Y-71837381D01*
X204128809Y-71837381D01*
X204271667Y-71885000D01*
X204366905Y-71980238D01*
X204414524Y-72075476D01*
X204462143Y-72265952D01*
X204462143Y-72408810D01*
X204414524Y-72599286D01*
X204366905Y-72694524D01*
X204271667Y-72789762D01*
X204128809Y-72837381D01*
X203890714Y-72837381D01*
X205414524Y-72837381D02*
X204843095Y-72837381D01*
X205128809Y-72837381D02*
X205128809Y-71837381D01*
X205033571Y-71980238D01*
X204938333Y-72075476D01*
X204843095Y-72123095D01*
X206366905Y-72837381D02*
X205795476Y-72837381D01*
X206081190Y-72837381D02*
X206081190Y-71837381D01*
X205985952Y-71980238D01*
X205890714Y-72075476D01*
X205795476Y-72123095D01*
X147153334Y-88082381D02*
X146677143Y-88082381D01*
X146677143Y-87082381D01*
X148010477Y-88082381D02*
X147439048Y-88082381D01*
X147724762Y-88082381D02*
X147724762Y-87082381D01*
X147629524Y-87225238D01*
X147534286Y-87320476D01*
X147439048Y-87368095D01*
X92614762Y-92622619D02*
X92519524Y-92575000D01*
X92424286Y-92479762D01*
X92281429Y-92336905D01*
X92186190Y-92289286D01*
X92090952Y-92289286D01*
X92138571Y-92527381D02*
X92043333Y-92479762D01*
X91948095Y-92384524D01*
X91900476Y-92194048D01*
X91900476Y-91860714D01*
X91948095Y-91670238D01*
X92043333Y-91575000D01*
X92138571Y-91527381D01*
X92329048Y-91527381D01*
X92424286Y-91575000D01*
X92519524Y-91670238D01*
X92567143Y-91860714D01*
X92567143Y-92194048D01*
X92519524Y-92384524D01*
X92424286Y-92479762D01*
X92329048Y-92527381D01*
X92138571Y-92527381D01*
X93424286Y-91860714D02*
X93424286Y-92527381D01*
X93186190Y-91479762D02*
X92948095Y-92194048D01*
X93567143Y-92194048D01*
X97782143Y-91892381D02*
X97448809Y-91416190D01*
X97210714Y-91892381D02*
X97210714Y-90892381D01*
X97591667Y-90892381D01*
X97686905Y-90940000D01*
X97734524Y-90987619D01*
X97782143Y-91082857D01*
X97782143Y-91225714D01*
X97734524Y-91320952D01*
X97686905Y-91368571D01*
X97591667Y-91416190D01*
X97210714Y-91416190D01*
X98734524Y-91892381D02*
X98163095Y-91892381D01*
X98448809Y-91892381D02*
X98448809Y-90892381D01*
X98353571Y-91035238D01*
X98258333Y-91130476D01*
X98163095Y-91178095D01*
X99210714Y-91892381D02*
X99401190Y-91892381D01*
X99496429Y-91844762D01*
X99544048Y-91797143D01*
X99639286Y-91654286D01*
X99686905Y-91463810D01*
X99686905Y-91082857D01*
X99639286Y-90987619D01*
X99591667Y-90940000D01*
X99496429Y-90892381D01*
X99305952Y-90892381D01*
X99210714Y-90940000D01*
X99163095Y-90987619D01*
X99115476Y-91082857D01*
X99115476Y-91320952D01*
X99163095Y-91416190D01*
X99210714Y-91463810D01*
X99305952Y-91511429D01*
X99496429Y-91511429D01*
X99591667Y-91463810D01*
X99639286Y-91416190D01*
X99686905Y-91320952D01*
X115382381Y-56522857D02*
X114906190Y-56856191D01*
X115382381Y-57094286D02*
X114382381Y-57094286D01*
X114382381Y-56713333D01*
X114430000Y-56618095D01*
X114477619Y-56570476D01*
X114572857Y-56522857D01*
X114715714Y-56522857D01*
X114810952Y-56570476D01*
X114858571Y-56618095D01*
X114906190Y-56713333D01*
X114906190Y-57094286D01*
X114477619Y-56141905D02*
X114430000Y-56094286D01*
X114382381Y-55999048D01*
X114382381Y-55760952D01*
X114430000Y-55665714D01*
X114477619Y-55618095D01*
X114572857Y-55570476D01*
X114668095Y-55570476D01*
X114810952Y-55618095D01*
X115382381Y-56189524D01*
X115382381Y-55570476D01*
X114382381Y-54951429D02*
X114382381Y-54856190D01*
X114430000Y-54760952D01*
X114477619Y-54713333D01*
X114572857Y-54665714D01*
X114763333Y-54618095D01*
X115001429Y-54618095D01*
X115191905Y-54665714D01*
X115287143Y-54713333D01*
X115334762Y-54760952D01*
X115382381Y-54856190D01*
X115382381Y-54951429D01*
X115334762Y-55046667D01*
X115287143Y-55094286D01*
X115191905Y-55141905D01*
X115001429Y-55189524D01*
X114763333Y-55189524D01*
X114572857Y-55141905D01*
X114477619Y-55094286D01*
X114430000Y-55046667D01*
X114382381Y-54951429D01*
X103497143Y-53157381D02*
X103163809Y-52681190D01*
X102925714Y-53157381D02*
X102925714Y-52157381D01*
X103306667Y-52157381D01*
X103401905Y-52205000D01*
X103449524Y-52252619D01*
X103497143Y-52347857D01*
X103497143Y-52490714D01*
X103449524Y-52585952D01*
X103401905Y-52633571D01*
X103306667Y-52681190D01*
X102925714Y-52681190D01*
X103878095Y-52252619D02*
X103925714Y-52205000D01*
X104020952Y-52157381D01*
X104259048Y-52157381D01*
X104354286Y-52205000D01*
X104401905Y-52252619D01*
X104449524Y-52347857D01*
X104449524Y-52443095D01*
X104401905Y-52585952D01*
X103830476Y-53157381D01*
X104449524Y-53157381D01*
X105401905Y-53157381D02*
X104830476Y-53157381D01*
X105116190Y-53157381D02*
X105116190Y-52157381D01*
X105020952Y-52300238D01*
X104925714Y-52395476D01*
X104830476Y-52443095D01*
X95877143Y-84272381D02*
X95543809Y-83796190D01*
X95305714Y-84272381D02*
X95305714Y-83272381D01*
X95686667Y-83272381D01*
X95781905Y-83320000D01*
X95829524Y-83367619D01*
X95877143Y-83462857D01*
X95877143Y-83605714D01*
X95829524Y-83700952D01*
X95781905Y-83748571D01*
X95686667Y-83796190D01*
X95305714Y-83796190D01*
X96258095Y-83367619D02*
X96305714Y-83320000D01*
X96400952Y-83272381D01*
X96639048Y-83272381D01*
X96734286Y-83320000D01*
X96781905Y-83367619D01*
X96829524Y-83462857D01*
X96829524Y-83558095D01*
X96781905Y-83700952D01*
X96210476Y-84272381D01*
X96829524Y-84272381D01*
X97210476Y-83367619D02*
X97258095Y-83320000D01*
X97353333Y-83272381D01*
X97591429Y-83272381D01*
X97686667Y-83320000D01*
X97734286Y-83367619D01*
X97781905Y-83462857D01*
X97781905Y-83558095D01*
X97734286Y-83700952D01*
X97162857Y-84272381D01*
X97781905Y-84272381D01*
X171907381Y-66047857D02*
X171431190Y-66381191D01*
X171907381Y-66619286D02*
X170907381Y-66619286D01*
X170907381Y-66238333D01*
X170955000Y-66143095D01*
X171002619Y-66095476D01*
X171097857Y-66047857D01*
X171240714Y-66047857D01*
X171335952Y-66095476D01*
X171383571Y-66143095D01*
X171431190Y-66238333D01*
X171431190Y-66619286D01*
X171002619Y-65666905D02*
X170955000Y-65619286D01*
X170907381Y-65524048D01*
X170907381Y-65285952D01*
X170955000Y-65190714D01*
X171002619Y-65143095D01*
X171097857Y-65095476D01*
X171193095Y-65095476D01*
X171335952Y-65143095D01*
X171907381Y-65714524D01*
X171907381Y-65095476D01*
X170907381Y-64762143D02*
X170907381Y-64143095D01*
X171288333Y-64476429D01*
X171288333Y-64333571D01*
X171335952Y-64238333D01*
X171383571Y-64190714D01*
X171478810Y-64143095D01*
X171716905Y-64143095D01*
X171812143Y-64190714D01*
X171859762Y-64238333D01*
X171907381Y-64333571D01*
X171907381Y-64619286D01*
X171859762Y-64714524D01*
X171812143Y-64762143D01*
X210002381Y-64777857D02*
X209526190Y-65111191D01*
X210002381Y-65349286D02*
X209002381Y-65349286D01*
X209002381Y-64968333D01*
X209050000Y-64873095D01*
X209097619Y-64825476D01*
X209192857Y-64777857D01*
X209335714Y-64777857D01*
X209430952Y-64825476D01*
X209478571Y-64873095D01*
X209526190Y-64968333D01*
X209526190Y-65349286D01*
X209097619Y-64396905D02*
X209050000Y-64349286D01*
X209002381Y-64254048D01*
X209002381Y-64015952D01*
X209050000Y-63920714D01*
X209097619Y-63873095D01*
X209192857Y-63825476D01*
X209288095Y-63825476D01*
X209430952Y-63873095D01*
X210002381Y-64444524D01*
X210002381Y-63825476D01*
X209335714Y-62968333D02*
X210002381Y-62968333D01*
X208954762Y-63206429D02*
X209669048Y-63444524D01*
X209669048Y-62825476D01*
X66730714Y-63317381D02*
X66730714Y-62317381D01*
X66968809Y-62317381D01*
X67111667Y-62365000D01*
X67206905Y-62460238D01*
X67254524Y-62555476D01*
X67302143Y-62745952D01*
X67302143Y-62888810D01*
X67254524Y-63079286D01*
X67206905Y-63174524D01*
X67111667Y-63269762D01*
X66968809Y-63317381D01*
X66730714Y-63317381D01*
X68254524Y-63317381D02*
X67683095Y-63317381D01*
X67968809Y-63317381D02*
X67968809Y-62317381D01*
X67873571Y-62460238D01*
X67778333Y-62555476D01*
X67683095Y-62603095D01*
X68635476Y-62412619D02*
X68683095Y-62365000D01*
X68778333Y-62317381D01*
X69016429Y-62317381D01*
X69111667Y-62365000D01*
X69159286Y-62412619D01*
X69206905Y-62507857D01*
X69206905Y-62603095D01*
X69159286Y-62745952D01*
X68587857Y-63317381D01*
X69206905Y-63317381D01*
X66730714Y-71567381D02*
X66730714Y-70567381D01*
X66968809Y-70567381D01*
X67111667Y-70615000D01*
X67206905Y-70710238D01*
X67254524Y-70805476D01*
X67302143Y-70995952D01*
X67302143Y-71138810D01*
X67254524Y-71329286D01*
X67206905Y-71424524D01*
X67111667Y-71519762D01*
X66968809Y-71567381D01*
X66730714Y-71567381D01*
X68254524Y-71567381D02*
X67683095Y-71567381D01*
X67968809Y-71567381D02*
X67968809Y-70567381D01*
X67873571Y-70710238D01*
X67778333Y-70805476D01*
X67683095Y-70853095D01*
X68587857Y-70567381D02*
X69206905Y-70567381D01*
X68873571Y-70948333D01*
X69016429Y-70948333D01*
X69111667Y-70995952D01*
X69159286Y-71043571D01*
X69206905Y-71138810D01*
X69206905Y-71376905D01*
X69159286Y-71472143D01*
X69111667Y-71519762D01*
X69016429Y-71567381D01*
X68730714Y-71567381D01*
X68635476Y-71519762D01*
X68587857Y-71472143D01*
X66730714Y-100777381D02*
X66730714Y-99777381D01*
X66968809Y-99777381D01*
X67111667Y-99825000D01*
X67206905Y-99920238D01*
X67254524Y-100015476D01*
X67302143Y-100205952D01*
X67302143Y-100348810D01*
X67254524Y-100539286D01*
X67206905Y-100634524D01*
X67111667Y-100729762D01*
X66968809Y-100777381D01*
X66730714Y-100777381D01*
X68254524Y-100777381D02*
X67683095Y-100777381D01*
X67968809Y-100777381D02*
X67968809Y-99777381D01*
X67873571Y-99920238D01*
X67778333Y-100015476D01*
X67683095Y-100063095D01*
X69111667Y-100110714D02*
X69111667Y-100777381D01*
X68873571Y-99729762D02*
X68635476Y-100444048D01*
X69254524Y-100444048D01*
X65460714Y-91892381D02*
X65460714Y-90892381D01*
X65698809Y-90892381D01*
X65841667Y-90940000D01*
X65936905Y-91035238D01*
X65984524Y-91130476D01*
X66032143Y-91320952D01*
X66032143Y-91463810D01*
X65984524Y-91654286D01*
X65936905Y-91749524D01*
X65841667Y-91844762D01*
X65698809Y-91892381D01*
X65460714Y-91892381D01*
X66984524Y-91892381D02*
X66413095Y-91892381D01*
X66698809Y-91892381D02*
X66698809Y-90892381D01*
X66603571Y-91035238D01*
X66508333Y-91130476D01*
X66413095Y-91178095D01*
X67889286Y-90892381D02*
X67413095Y-90892381D01*
X67365476Y-91368571D01*
X67413095Y-91320952D01*
X67508333Y-91273333D01*
X67746429Y-91273333D01*
X67841667Y-91320952D01*
X67889286Y-91368571D01*
X67936905Y-91463810D01*
X67936905Y-91701905D01*
X67889286Y-91797143D01*
X67841667Y-91844762D01*
X67746429Y-91892381D01*
X67508333Y-91892381D01*
X67413095Y-91844762D01*
X67365476Y-91797143D01*
X62857143Y-64587381D02*
X62523809Y-64111190D01*
X62285714Y-64587381D02*
X62285714Y-63587381D01*
X62666667Y-63587381D01*
X62761905Y-63635000D01*
X62809524Y-63682619D01*
X62857143Y-63777857D01*
X62857143Y-63920714D01*
X62809524Y-64015952D01*
X62761905Y-64063571D01*
X62666667Y-64111190D01*
X62285714Y-64111190D01*
X63238095Y-63682619D02*
X63285714Y-63635000D01*
X63380952Y-63587381D01*
X63619048Y-63587381D01*
X63714286Y-63635000D01*
X63761905Y-63682619D01*
X63809524Y-63777857D01*
X63809524Y-63873095D01*
X63761905Y-64015952D01*
X63190476Y-64587381D01*
X63809524Y-64587381D01*
X64714286Y-63587381D02*
X64238095Y-63587381D01*
X64190476Y-64063571D01*
X64238095Y-64015952D01*
X64333333Y-63968333D01*
X64571429Y-63968333D01*
X64666667Y-64015952D01*
X64714286Y-64063571D01*
X64761905Y-64158810D01*
X64761905Y-64396905D01*
X64714286Y-64492143D01*
X64666667Y-64539762D01*
X64571429Y-64587381D01*
X64333333Y-64587381D01*
X64238095Y-64539762D01*
X64190476Y-64492143D01*
X62857143Y-71572381D02*
X62523809Y-71096190D01*
X62285714Y-71572381D02*
X62285714Y-70572381D01*
X62666667Y-70572381D01*
X62761905Y-70620000D01*
X62809524Y-70667619D01*
X62857143Y-70762857D01*
X62857143Y-70905714D01*
X62809524Y-71000952D01*
X62761905Y-71048571D01*
X62666667Y-71096190D01*
X62285714Y-71096190D01*
X63238095Y-70667619D02*
X63285714Y-70620000D01*
X63380952Y-70572381D01*
X63619048Y-70572381D01*
X63714286Y-70620000D01*
X63761905Y-70667619D01*
X63809524Y-70762857D01*
X63809524Y-70858095D01*
X63761905Y-71000952D01*
X63190476Y-71572381D01*
X63809524Y-71572381D01*
X64666667Y-70572381D02*
X64476190Y-70572381D01*
X64380952Y-70620000D01*
X64333333Y-70667619D01*
X64238095Y-70810476D01*
X64190476Y-71000952D01*
X64190476Y-71381905D01*
X64238095Y-71477143D01*
X64285714Y-71524762D01*
X64380952Y-71572381D01*
X64571429Y-71572381D01*
X64666667Y-71524762D01*
X64714286Y-71477143D01*
X64761905Y-71381905D01*
X64761905Y-71143810D01*
X64714286Y-71048571D01*
X64666667Y-71000952D01*
X64571429Y-70953333D01*
X64380952Y-70953333D01*
X64285714Y-71000952D01*
X64238095Y-71048571D01*
X64190476Y-71143810D01*
X62857143Y-100777381D02*
X62523809Y-100301190D01*
X62285714Y-100777381D02*
X62285714Y-99777381D01*
X62666667Y-99777381D01*
X62761905Y-99825000D01*
X62809524Y-99872619D01*
X62857143Y-99967857D01*
X62857143Y-100110714D01*
X62809524Y-100205952D01*
X62761905Y-100253571D01*
X62666667Y-100301190D01*
X62285714Y-100301190D01*
X63238095Y-99872619D02*
X63285714Y-99825000D01*
X63380952Y-99777381D01*
X63619048Y-99777381D01*
X63714286Y-99825000D01*
X63761905Y-99872619D01*
X63809524Y-99967857D01*
X63809524Y-100063095D01*
X63761905Y-100205952D01*
X63190476Y-100777381D01*
X63809524Y-100777381D01*
X64142857Y-99777381D02*
X64809524Y-99777381D01*
X64380952Y-100777381D01*
X62857143Y-96967381D02*
X62523809Y-96491190D01*
X62285714Y-96967381D02*
X62285714Y-95967381D01*
X62666667Y-95967381D01*
X62761905Y-96015000D01*
X62809524Y-96062619D01*
X62857143Y-96157857D01*
X62857143Y-96300714D01*
X62809524Y-96395952D01*
X62761905Y-96443571D01*
X62666667Y-96491190D01*
X62285714Y-96491190D01*
X63238095Y-96062619D02*
X63285714Y-96015000D01*
X63380952Y-95967381D01*
X63619048Y-95967381D01*
X63714286Y-96015000D01*
X63761905Y-96062619D01*
X63809524Y-96157857D01*
X63809524Y-96253095D01*
X63761905Y-96395952D01*
X63190476Y-96967381D01*
X63809524Y-96967381D01*
X64380952Y-96395952D02*
X64285714Y-96348333D01*
X64238095Y-96300714D01*
X64190476Y-96205476D01*
X64190476Y-96157857D01*
X64238095Y-96062619D01*
X64285714Y-96015000D01*
X64380952Y-95967381D01*
X64571429Y-95967381D01*
X64666667Y-96015000D01*
X64714286Y-96062619D01*
X64761905Y-96157857D01*
X64761905Y-96205476D01*
X64714286Y-96300714D01*
X64666667Y-96348333D01*
X64571429Y-96395952D01*
X64380952Y-96395952D01*
X64285714Y-96443571D01*
X64238095Y-96491190D01*
X64190476Y-96586429D01*
X64190476Y-96776905D01*
X64238095Y-96872143D01*
X64285714Y-96919762D01*
X64380952Y-96967381D01*
X64571429Y-96967381D01*
X64666667Y-96919762D01*
X64714286Y-96872143D01*
X64761905Y-96776905D01*
X64761905Y-96586429D01*
X64714286Y-96491190D01*
X64666667Y-96443571D01*
X64571429Y-96395952D01*
X194747381Y-82201905D02*
X195556905Y-82201905D01*
X195652143Y-82154286D01*
X195699762Y-82106667D01*
X195747381Y-82011429D01*
X195747381Y-81820952D01*
X195699762Y-81725714D01*
X195652143Y-81678095D01*
X195556905Y-81630476D01*
X194747381Y-81630476D01*
X195080714Y-80725714D02*
X195747381Y-80725714D01*
X194699762Y-80963810D02*
X195414048Y-81201905D01*
X195414048Y-80582857D01*
X64341667Y-71969762D02*
X64484524Y-72017381D01*
X64722620Y-72017381D01*
X64817858Y-71969762D01*
X64865477Y-71922143D01*
X64913096Y-71826905D01*
X64913096Y-71731667D01*
X64865477Y-71636429D01*
X64817858Y-71588810D01*
X64722620Y-71541190D01*
X64532143Y-71493571D01*
X64436905Y-71445952D01*
X64389286Y-71398333D01*
X64341667Y-71303095D01*
X64341667Y-71207857D01*
X64389286Y-71112619D01*
X64436905Y-71065000D01*
X64532143Y-71017381D01*
X64770239Y-71017381D01*
X64913096Y-71065000D01*
X65246429Y-71017381D02*
X65484524Y-72017381D01*
X65675001Y-71303095D01*
X65865477Y-72017381D01*
X66103572Y-71017381D01*
X67008334Y-72017381D02*
X66436905Y-72017381D01*
X66722619Y-72017381D02*
X66722619Y-71017381D01*
X66627381Y-71160238D01*
X66532143Y-71255476D01*
X66436905Y-71303095D01*
M02*
