M48
METRIC,TZ
T1C0.400
T2C0.762
T3C0.800
T4C0.800
T5C1.016
T6C1.501
T7C2.700
%
G90
G05
T1
X62400Y-67945
X62400Y-96520
X71120Y-98425
X72390Y-94615
X73025Y-100330
X76835Y-99300
X78105Y-64770
X80645Y-60960
X83185Y-81280
X85725Y-91440
X86995Y-53975
X86995Y-100330
X88265Y-54610
X94061Y-102951
X95374Y-101476
X95885Y-54610
X98429Y-80641
X99060Y-84455
X99060Y-88900
X100330Y-78740
X108585Y-100851
X113097Y-97222
X171450Y-53340
X172552Y-73762
X176530Y-74930
X180340Y-84455
X182880Y-78740
X182880Y-83185
X182880Y-87630
X185420Y-64770
X186690Y-78740
X187325Y-92075
X187325Y-93980
X187325Y-96520
X187960Y-65405
X187960Y-74930
X189230Y-83820
X189865Y-63500
X190500Y-93980
X191770Y-78740
X193040Y-65405
X193040Y-66675
X193040Y-69215
X193675Y-84455
X193675Y-92075
X195580Y-85840
X198030Y-82889
X198120Y-72390
X198120Y-75565
X198755Y-82550
X199390Y-80010
X199909Y-83175
X200025Y-69215
X202565Y-80010
X203200Y-54130
X203200Y-83185
X207645Y-53340
X208915Y-56515
T2
X121885Y-64780
X121885Y-81280
X140970Y-96520
X143510Y-96520
X146050Y-96520
X151130Y-96520
X153670Y-96520
X156210Y-96520
X158750Y-96520
X159385Y-64780
X159385Y-81280
T3
X71470Y-57150
X71755Y-88265
X73470Y-57150
X75470Y-57150
X77470Y-57150
X79470Y-57150
X81280Y-66040
X81280Y-68580
X81280Y-71120
X81280Y-73660
X81280Y-76200
X81280Y-78740
X81280Y-81280
X81280Y-83820
X81280Y-86360
X81280Y-88900
X81280Y-91440
X81280Y-93980
X81280Y-96520
X81280Y-99060
X81470Y-57150
X86360Y-60960
X88265Y-57150
X88900Y-66040
X88900Y-68580
X88900Y-71120
X88900Y-73660
X88900Y-76200
X88900Y-78740
X88900Y-81280
X88900Y-83820
X88900Y-86360
X88900Y-88900
X88900Y-91440
X88900Y-93980
X88900Y-96520
X88900Y-99060
X89486Y-106680
X90265Y-57150
X92265Y-57150
X93515Y-86995
X99060Y-57150
X101060Y-57150
X107855Y-57150
X109855Y-57150
X121285Y-57150
X123285Y-57150
X125285Y-57150
X143510Y-91440
X171450Y-94300
X173990Y-71755
X177800Y-88900
X179070Y-79375
X179515Y-57150
X179610Y-103505
X181515Y-57150
X181610Y-92075
X181610Y-103505
X183515Y-57150
X183610Y-103505
X185515Y-57150
X185526Y-87839
X185610Y-103505
X187960Y-81280
X190500Y-81915
X190500Y-88265
X192310Y-57150
X192405Y-103505
X194310Y-57150
X194310Y-70485
X194405Y-103505
X196310Y-57150
X196405Y-103505
X198310Y-57150
X198405Y-103505
X200660Y-85725
X201930Y-76835
X203835Y-72390
T4
X76200Y-85824
X76200Y-90706
T5
X67945Y-104140
X67945Y-106680
X70485Y-104140
X70485Y-106680
X73025Y-104140
X73025Y-106680
T6
X131239Y-57150
X153241Y-57150
T7
X60325Y-54610
X60325Y-106045
X212725Y-54610
X212725Y-106045
T0
M30
