G04 #@! TF.FileFunction,Soldermask,Bot*
%FSLAX46Y46*%
G04 Gerber Fmt 4.6, Leading zero omitted, Abs format (unit mm)*
G04 Created by KiCad (PCBNEW 4.0.1-stable) date Friday, 17 June 2016 'pmt' 15:03:42*
%MOMM*%
G01*
G04 APERTURE LIST*
%ADD10C,0.100000*%
%ADD11C,4.500000*%
%ADD12O,1.600000X2.300000*%
%ADD13O,1.600000X1.600000*%
%ADD14R,1.727200X1.727200*%
%ADD15O,1.727200X1.727200*%
%ADD16O,4.000500X2.499360*%
%ADD17O,1.200000X2.000000*%
%ADD18C,1.524000*%
%ADD19C,1.501140*%
G04 APERTURE END LIST*
D10*
D11*
X60325000Y-54610000D03*
X60325000Y-106045000D03*
X212725000Y-106045000D03*
D12*
X180340000Y-85090000D03*
X182880000Y-85090000D03*
X185420000Y-85090000D03*
X187960000Y-85090000D03*
X190500000Y-85090000D03*
X193040000Y-85090000D03*
X195580000Y-85090000D03*
X198120000Y-85090000D03*
X198120000Y-77470000D03*
X195580000Y-77470000D03*
X193040000Y-77470000D03*
X190500000Y-77470000D03*
X187960000Y-77470000D03*
X185420000Y-77470000D03*
X182880000Y-77470000D03*
X180340000Y-77470000D03*
D13*
X81280000Y-66040000D03*
X81280000Y-68580000D03*
X81280000Y-71120000D03*
X81280000Y-73660000D03*
X81280000Y-76200000D03*
X81280000Y-78740000D03*
X81280000Y-81280000D03*
X81280000Y-83820000D03*
X81280000Y-86360000D03*
X81280000Y-88900000D03*
X81280000Y-91440000D03*
X81280000Y-93980000D03*
X81280000Y-96520000D03*
X81280000Y-99060000D03*
X88900000Y-99060000D03*
X88900000Y-96520000D03*
X88900000Y-93980000D03*
X88900000Y-91440000D03*
X88900000Y-88900000D03*
X88900000Y-86360000D03*
X88900000Y-83820000D03*
X88900000Y-81280000D03*
X88900000Y-78740000D03*
X88900000Y-76200000D03*
X88900000Y-73660000D03*
X88900000Y-71120000D03*
X88900000Y-68580000D03*
X88900000Y-66040000D03*
D14*
X73025000Y-104140000D03*
D15*
X73025000Y-106680000D03*
X70485000Y-104140000D03*
X70485000Y-106680000D03*
X67945000Y-104140000D03*
X67945000Y-106680000D03*
D16*
X153240740Y-57150000D03*
X131239260Y-57150000D03*
D17*
X125285000Y-57150000D03*
X123285000Y-57150000D03*
X121285000Y-57150000D03*
X185515000Y-57150000D03*
X183515000Y-57150000D03*
X181515000Y-57150000D03*
X179515000Y-57150000D03*
X198310000Y-57150000D03*
X196310000Y-57150000D03*
X194310000Y-57150000D03*
X192310000Y-57150000D03*
X92265000Y-57150000D03*
X90265000Y-57150000D03*
X88265000Y-57150000D03*
X81470000Y-57150000D03*
X79470000Y-57150000D03*
X77470000Y-57150000D03*
X75470000Y-57150000D03*
X73470000Y-57150000D03*
X71470000Y-57150000D03*
X101060000Y-57150000D03*
X99060000Y-57150000D03*
X109855000Y-57150000D03*
X107855000Y-57150000D03*
X179705000Y-103505000D03*
X181705000Y-103505000D03*
X183705000Y-103505000D03*
X185705000Y-103505000D03*
X193040000Y-103505000D03*
X195040000Y-103505000D03*
X197040000Y-103505000D03*
X199040000Y-103505000D03*
D18*
X159385000Y-81280000D03*
X121885000Y-81280000D03*
X121885000Y-64780000D03*
X159385000Y-64780000D03*
X140970000Y-96520000D03*
X143510000Y-96520000D03*
X146050000Y-96520000D03*
X151130000Y-96520000D03*
X153670000Y-96520000D03*
X156210000Y-96520000D03*
X158750000Y-96520000D03*
D19*
X76200000Y-85824060D03*
X76200000Y-90705940D03*
D11*
X212725000Y-54610000D03*
M02*
