M48
METRIC,TZ
T1C0.400
T2C0.762
T3C0.800
T4C0.800
T5C1.016
T6C1.501
T7C2.700
%
G90
G05
T1
X62400Y-67945
X62400Y-96520
X71120Y-98425
X72390Y-94615
X73025Y-100330
X76835Y-99300
X78105Y-64770
X80645Y-60960
X83185Y-81280
X86995Y-53975
X88265Y-54610
X92710Y-92075
X93345Y-79375
X93345Y-80645
X93980Y-100965
X95250Y-104140
X95374Y-101476
X95885Y-54610
X97155Y-100330
X98429Y-80641
X99060Y-84455
X99060Y-88900
X99695Y-102101
X100330Y-78740
X111125Y-85090
X112395Y-85725
X164465Y-93345
X168910Y-97155
X171450Y-90805
X175895Y-90805
X175895Y-93345
X179705Y-97790
X180340Y-93345
X180975Y-99695
X181610Y-97155
X182245Y-63500
X182245Y-88265
X184515Y-69819
X184630Y-80645
X184785Y-92075
X185420Y-88535
X186942Y-69850
X187960Y-94615
X188750Y-73402
X189865Y-66675
X189865Y-83185
X190500Y-69215
X191135Y-94615
X191770Y-73025
X193040Y-65405
X193675Y-92075
X195580Y-69215
T2
X121885Y-64780
X121885Y-81280
X140970Y-96520
X143510Y-96520
X146050Y-96520
X151130Y-96520
X153670Y-96520
X156210Y-96520
X158750Y-96520
X159385Y-64780
X159385Y-81280
T3
X71470Y-57150
X71755Y-88265
X73470Y-57150
X75470Y-57150
X77470Y-57150
X79470Y-57150
X81280Y-66040
X81280Y-68580
X81280Y-71120
X81280Y-73660
X81280Y-76200
X81280Y-78740
X81280Y-81280
X81280Y-83820
X81280Y-86360
X81280Y-88900
X81280Y-91440
X81280Y-93980
X81280Y-96520
X81280Y-99060
X81470Y-57150
X86360Y-60960
X88265Y-57150
X88900Y-66040
X88900Y-68580
X88900Y-71120
X88900Y-73660
X88900Y-76200
X88900Y-78740
X88900Y-81280
X88900Y-83820
X88900Y-86360
X88900Y-88900
X88900Y-91440
X88900Y-93980
X88900Y-96520
X88900Y-99060
X89486Y-106680
X90265Y-57150
X92265Y-57150
X93515Y-86995
X99060Y-57150
X101060Y-57150
X107855Y-57150
X109855Y-57150
X121285Y-57150
X123285Y-57150
X125285Y-57150
X143510Y-91440
X162560Y-100330
X169545Y-83820
X169545Y-104140
X171450Y-92075
X172720Y-98425
X172720Y-100965
X175895Y-70485
X178435Y-95250
X179515Y-57150
X179705Y-103505
X180340Y-77470
X180340Y-85090
X181515Y-57150
X181705Y-103505
X182880Y-77470
X182880Y-85090
X183515Y-57150
X183515Y-70485
X183515Y-97790
X183705Y-103505
X185420Y-77470
X185420Y-85090
X185515Y-57150
X185705Y-103505
X187325Y-73660
X187960Y-77470
X187960Y-85090
X190500Y-77470
X190500Y-85090
X192310Y-57150
X193040Y-77470
X193040Y-85090
X193040Y-103505
X194310Y-57150
X194310Y-65405
X194310Y-71120
X194945Y-89535
X195040Y-103505
X195580Y-77470
X195580Y-85090
X196310Y-57150
X197040Y-103505
X198120Y-77470
X198120Y-85090
X198310Y-57150
X199040Y-103505
X200660Y-81280
X203200Y-74295
T4
X76200Y-85824
X76200Y-90706
T5
X67945Y-104140
X67945Y-106680
X70485Y-104140
X70485Y-106680
X73025Y-104140
X73025Y-106680
T6
X131239Y-57150
X153241Y-57150
T7
X60325Y-54610
X60325Y-106045
X212725Y-54610
X212725Y-106045
T0
M30
