M48
INCH,TZ
T1C0.016
T2C0.030
T3C0.031
T4C0.032
T5C0.040
T6C0.059
%
G90
G05
T1
X32750Y-32000
X36500Y-36250
X36750Y-31250
X36750Y-31750
X37000Y-39750
X37549Y-39951
X38250Y-39500
X39000Y-31750
X39000Y-33250
X39000Y-35000
X39250Y-40197
X43750Y-33500
X44250Y-33750
X64750Y-36750
X66500Y-38250
X67500Y-35750
X69250Y-35750
X69250Y-36750
X70750Y-38500
X71000Y-36750
X71250Y-39250
X71500Y-38250
X71750Y-25000
X71750Y-34750
X72644Y-27488
X72689Y-31750
X72750Y-36250
X73000Y-34856
X73599Y-27500
X74000Y-37250
X74750Y-26250
X74750Y-32750
X75000Y-27250
X75250Y-37250
X75500Y-28750
X76000Y-25750
X76250Y-36250
X77000Y-27250
T2
X47986Y-26250
X47986Y-32746
X55500Y-38000
X56500Y-38000
X57500Y-38000
X59500Y-38000
X60500Y-38000
X61500Y-38000
X62500Y-38000
X62750Y-26250
X62750Y-32746
T3
X27750Y-25500
X28138Y-22500
X28250Y-34750
X28925Y-22500
X29713Y-22500
X30500Y-22500
X31287Y-22500
X32000Y-26000
X32000Y-27000
X32000Y-28000
X32000Y-29000
X32000Y-30000
X32000Y-31000
X32000Y-32000
X32000Y-33000
X32000Y-34000
X32000Y-35000
X32000Y-36000
X32000Y-37000
X32000Y-38000
X32000Y-39000
X32075Y-22500
X34750Y-22500
X35000Y-26000
X35000Y-27000
X35000Y-28000
X35000Y-29000
X35000Y-30000
X35000Y-31000
X35000Y-32000
X35000Y-33000
X35000Y-34000
X35000Y-35000
X35000Y-36000
X35000Y-37000
X35000Y-38000
X35000Y-39000
X35231Y-42000
X35537Y-22500
X36325Y-22500
X39000Y-22500
X39787Y-22500
X42463Y-22500
X42692Y-34500
X43250Y-22500
X47750Y-22500
X48537Y-22500
X49325Y-22500
X56500Y-36000
X64000Y-39500
X66750Y-33000
X66750Y-41000
X67500Y-36250
X68000Y-38750
X68000Y-39750
X70250Y-37500
X70675Y-22500
X70750Y-40750
X71000Y-30500
X71000Y-33500
X71463Y-22500
X71537Y-40750
X72000Y-30500
X72000Y-33500
X72250Y-22500
X72250Y-27750
X72250Y-38500
X72325Y-40750
X73000Y-30500
X73000Y-33500
X73037Y-22500
X73112Y-40750
X73750Y-29000
X74000Y-30500
X74000Y-33500
X75000Y-30500
X75000Y-33500
X75713Y-22500
X76000Y-30500
X76000Y-33500
X76000Y-40750
X76500Y-22500
X76500Y-25750
X76750Y-35250
X76787Y-40750
X77000Y-30500
X77000Y-33500
X77287Y-22500
X77575Y-40750
X78000Y-30500
X78000Y-33500
X78075Y-22500
X78362Y-40750
T4
X30000Y-33789
X30000Y-35711
T5
X26750Y-41000
X26750Y-42000
X27750Y-41000
X27750Y-42000
X28750Y-41000
X28750Y-42000
T6
X51669Y-22500
X60331Y-22500
T0
M30
