G04 #@! TF.FileFunction,Legend,Top*
%FSLAX46Y46*%
G04 Gerber Fmt 4.6, Leading zero omitted, Abs format (unit mm)*
G04 Created by KiCad (PCBNEW 4.0.1-stable) date Wednesday, 15 June 2016 'pmt' 14:53:36*
%MOMM*%
G01*
G04 APERTURE LIST*
%ADD10C,0.100000*%
%ADD11C,0.300000*%
%ADD12C,0.150000*%
%ADD13C,0.250000*%
G04 APERTURE END LIST*
D10*
D11*
X134390000Y-90618571D02*
X134675714Y-90618571D01*
X134818572Y-90690000D01*
X134961429Y-90832857D01*
X135032857Y-91118571D01*
X135032857Y-91618571D01*
X134961429Y-91904286D01*
X134818572Y-92047143D01*
X134675714Y-92118571D01*
X134390000Y-92118571D01*
X134247143Y-92047143D01*
X134104286Y-91904286D01*
X134032857Y-91618571D01*
X134032857Y-91118571D01*
X134104286Y-90832857D01*
X134247143Y-90690000D01*
X134390000Y-90618571D01*
X135675715Y-90618571D02*
X135675715Y-91832857D01*
X135747143Y-91975714D01*
X135818572Y-92047143D01*
X135961429Y-92118571D01*
X136247143Y-92118571D01*
X136390001Y-92047143D01*
X136461429Y-91975714D01*
X136532858Y-91832857D01*
X136532858Y-90618571D01*
X137032858Y-90618571D02*
X137890001Y-90618571D01*
X137461430Y-92118571D02*
X137461430Y-90618571D01*
X135104286Y-116883571D02*
X135104286Y-115383571D01*
X135818572Y-116883571D02*
X135818572Y-115383571D01*
X136675715Y-116883571D01*
X136675715Y-115383571D01*
X101727143Y-115455000D02*
X101584286Y-115383571D01*
X101370000Y-115383571D01*
X101155715Y-115455000D01*
X101012857Y-115597857D01*
X100941429Y-115740714D01*
X100870000Y-116026429D01*
X100870000Y-116240714D01*
X100941429Y-116526429D01*
X101012857Y-116669286D01*
X101155715Y-116812143D01*
X101370000Y-116883571D01*
X101512857Y-116883571D01*
X101727143Y-116812143D01*
X101798572Y-116740714D01*
X101798572Y-116240714D01*
X101512857Y-116240714D01*
X102441429Y-116883571D02*
X102441429Y-115383571D01*
X103298572Y-116883571D01*
X103298572Y-115383571D01*
X104012858Y-116883571D02*
X104012858Y-115383571D01*
X104370001Y-115383571D01*
X104584286Y-115455000D01*
X104727144Y-115597857D01*
X104798572Y-115740714D01*
X104870001Y-116026429D01*
X104870001Y-116240714D01*
X104798572Y-116526429D01*
X104727144Y-116669286D01*
X104584286Y-116812143D01*
X104370001Y-116883571D01*
X104012858Y-116883571D01*
X100306429Y-91547143D02*
X101449286Y-91547143D01*
X100877857Y-92118571D02*
X100877857Y-90975714D01*
X102877858Y-90618571D02*
X102163572Y-90618571D01*
X102092143Y-91332857D01*
X102163572Y-91261429D01*
X102306429Y-91190000D01*
X102663572Y-91190000D01*
X102806429Y-91261429D01*
X102877858Y-91332857D01*
X102949286Y-91475714D01*
X102949286Y-91832857D01*
X102877858Y-91975714D01*
X102806429Y-92047143D01*
X102663572Y-92118571D01*
X102306429Y-92118571D01*
X102163572Y-92047143D01*
X102092143Y-91975714D01*
X103377857Y-90618571D02*
X103877857Y-92118571D01*
X104377857Y-90618571D01*
D12*
X121955000Y-88615000D02*
X121955000Y-87915000D01*
X123155000Y-87915000D02*
X123155000Y-88615000D01*
X123155000Y-119030000D02*
X123155000Y-119730000D01*
X121955000Y-119730000D02*
X121955000Y-119030000D01*
X116170000Y-119030000D02*
X116170000Y-119730000D01*
X114970000Y-119730000D02*
X114970000Y-119030000D01*
D13*
X131890000Y-103530000D02*
G75*
G03X131890000Y-103530000I-12500000J0D01*
G01*
X139390000Y-103530000D02*
G75*
G03X139390000Y-103530000I-20000000J0D01*
G01*
D12*
X121880000Y-93210000D02*
X121880000Y-92210000D01*
X123230000Y-92210000D02*
X123230000Y-93210000D01*
X123230000Y-114435000D02*
X123230000Y-115435000D01*
X121880000Y-115435000D02*
X121880000Y-114435000D01*
X116245000Y-114435000D02*
X116245000Y-115435000D01*
X114895000Y-115435000D02*
X114895000Y-114435000D01*
X127040000Y-90305000D02*
X127040000Y-91305000D01*
X125690000Y-91305000D02*
X125690000Y-90305000D01*
X127040000Y-116340000D02*
X127040000Y-117340000D01*
X125690000Y-117340000D02*
X125690000Y-116340000D01*
X112435000Y-116340000D02*
X112435000Y-117340000D01*
X111085000Y-117340000D02*
X111085000Y-116340000D01*
D13*
X118165000Y-96505000D02*
X120165000Y-96505000D01*
X112665000Y-111005000D02*
X112665000Y-106005000D01*
X115165000Y-111005000D02*
X112665000Y-111005000D01*
X125665000Y-111005000D02*
X123165000Y-111005000D01*
X125665000Y-106005000D02*
X125665000Y-111005000D01*
X125665000Y-96505000D02*
X125665000Y-101005000D01*
X123165000Y-96505000D02*
X125665000Y-96505000D01*
X112665000Y-96505000D02*
X115165000Y-96505000D01*
X112665000Y-101005000D02*
X112665000Y-96505000D01*
D12*
X101854000Y-98425000D02*
X106680000Y-98425000D01*
X106680000Y-98425000D02*
X106680000Y-108585000D01*
X106680000Y-108585000D02*
X101854000Y-108585000D01*
X101854000Y-108585000D02*
X101854000Y-98425000D01*
X103632000Y-108585000D02*
X103632000Y-107950000D01*
X103632000Y-107950000D02*
X104902000Y-107950000D01*
X104902000Y-107950000D02*
X104902000Y-108585000D01*
X124817143Y-88431666D02*
X124864762Y-88479285D01*
X124912381Y-88622142D01*
X124912381Y-88717380D01*
X124864762Y-88860238D01*
X124769524Y-88955476D01*
X124674286Y-89003095D01*
X124483810Y-89050714D01*
X124340952Y-89050714D01*
X124150476Y-89003095D01*
X124055238Y-88955476D01*
X123960000Y-88860238D01*
X123912381Y-88717380D01*
X123912381Y-88622142D01*
X123960000Y-88479285D01*
X124007619Y-88431666D01*
X124912381Y-87479285D02*
X124912381Y-88050714D01*
X124912381Y-87765000D02*
X123912381Y-87765000D01*
X124055238Y-87860238D01*
X124150476Y-87955476D01*
X124198095Y-88050714D01*
X124812143Y-119546666D02*
X124859762Y-119594285D01*
X124907381Y-119737142D01*
X124907381Y-119832380D01*
X124859762Y-119975238D01*
X124764524Y-120070476D01*
X124669286Y-120118095D01*
X124478810Y-120165714D01*
X124335952Y-120165714D01*
X124145476Y-120118095D01*
X124050238Y-120070476D01*
X123955000Y-119975238D01*
X123907381Y-119832380D01*
X123907381Y-119737142D01*
X123955000Y-119594285D01*
X124002619Y-119546666D01*
X124002619Y-119165714D02*
X123955000Y-119118095D01*
X123907381Y-119022857D01*
X123907381Y-118784761D01*
X123955000Y-118689523D01*
X124002619Y-118641904D01*
X124097857Y-118594285D01*
X124193095Y-118594285D01*
X124335952Y-118641904D01*
X124907381Y-119213333D01*
X124907381Y-118594285D01*
X114022143Y-119546666D02*
X114069762Y-119594285D01*
X114117381Y-119737142D01*
X114117381Y-119832380D01*
X114069762Y-119975238D01*
X113974524Y-120070476D01*
X113879286Y-120118095D01*
X113688810Y-120165714D01*
X113545952Y-120165714D01*
X113355476Y-120118095D01*
X113260238Y-120070476D01*
X113165000Y-119975238D01*
X113117381Y-119832380D01*
X113117381Y-119737142D01*
X113165000Y-119594285D01*
X113212619Y-119546666D01*
X113117381Y-119213333D02*
X113117381Y-118594285D01*
X113498333Y-118927619D01*
X113498333Y-118784761D01*
X113545952Y-118689523D01*
X113593571Y-118641904D01*
X113688810Y-118594285D01*
X113926905Y-118594285D01*
X114022143Y-118641904D01*
X114069762Y-118689523D01*
X114117381Y-118784761D01*
X114117381Y-119070476D01*
X114069762Y-119165714D01*
X114022143Y-119213333D01*
X106151905Y-122982381D02*
X106151905Y-121982381D01*
X106723334Y-122982381D01*
X106723334Y-121982381D01*
X107199524Y-122458571D02*
X107532858Y-122458571D01*
X107675715Y-122982381D02*
X107199524Y-122982381D01*
X107199524Y-121982381D01*
X107675715Y-121982381D01*
X108294762Y-121982381D02*
X108485239Y-121982381D01*
X108580477Y-122030000D01*
X108675715Y-122125238D01*
X108723334Y-122315714D01*
X108723334Y-122649048D01*
X108675715Y-122839524D01*
X108580477Y-122934762D01*
X108485239Y-122982381D01*
X108294762Y-122982381D01*
X108199524Y-122934762D01*
X108104286Y-122839524D01*
X108056667Y-122649048D01*
X108056667Y-122315714D01*
X108104286Y-122125238D01*
X108199524Y-122030000D01*
X108294762Y-121982381D01*
X109675715Y-122982381D02*
X109104286Y-122982381D01*
X109390000Y-122982381D02*
X109390000Y-121982381D01*
X109294762Y-122125238D01*
X109199524Y-122220476D01*
X109104286Y-122268095D01*
X124907381Y-92876666D02*
X124431190Y-93210000D01*
X124907381Y-93448095D02*
X123907381Y-93448095D01*
X123907381Y-93067142D01*
X123955000Y-92971904D01*
X124002619Y-92924285D01*
X124097857Y-92876666D01*
X124240714Y-92876666D01*
X124335952Y-92924285D01*
X124383571Y-92971904D01*
X124431190Y-93067142D01*
X124431190Y-93448095D01*
X124907381Y-91924285D02*
X124907381Y-92495714D01*
X124907381Y-92210000D02*
X123907381Y-92210000D01*
X124050238Y-92305238D01*
X124145476Y-92400476D01*
X124193095Y-92495714D01*
X124912381Y-115101666D02*
X124436190Y-115435000D01*
X124912381Y-115673095D02*
X123912381Y-115673095D01*
X123912381Y-115292142D01*
X123960000Y-115196904D01*
X124007619Y-115149285D01*
X124102857Y-115101666D01*
X124245714Y-115101666D01*
X124340952Y-115149285D01*
X124388571Y-115196904D01*
X124436190Y-115292142D01*
X124436190Y-115673095D01*
X124007619Y-114720714D02*
X123960000Y-114673095D01*
X123912381Y-114577857D01*
X123912381Y-114339761D01*
X123960000Y-114244523D01*
X124007619Y-114196904D01*
X124102857Y-114149285D01*
X124198095Y-114149285D01*
X124340952Y-114196904D01*
X124912381Y-114768333D01*
X124912381Y-114149285D01*
X114122381Y-115101666D02*
X113646190Y-115435000D01*
X114122381Y-115673095D02*
X113122381Y-115673095D01*
X113122381Y-115292142D01*
X113170000Y-115196904D01*
X113217619Y-115149285D01*
X113312857Y-115101666D01*
X113455714Y-115101666D01*
X113550952Y-115149285D01*
X113598571Y-115196904D01*
X113646190Y-115292142D01*
X113646190Y-115673095D01*
X113122381Y-114768333D02*
X113122381Y-114149285D01*
X113503333Y-114482619D01*
X113503333Y-114339761D01*
X113550952Y-114244523D01*
X113598571Y-114196904D01*
X113693810Y-114149285D01*
X113931905Y-114149285D01*
X114027143Y-114196904D01*
X114074762Y-114244523D01*
X114122381Y-114339761D01*
X114122381Y-114625476D01*
X114074762Y-114720714D01*
X114027143Y-114768333D01*
X128722381Y-90971666D02*
X128246190Y-91305000D01*
X128722381Y-91543095D02*
X127722381Y-91543095D01*
X127722381Y-91162142D01*
X127770000Y-91066904D01*
X127817619Y-91019285D01*
X127912857Y-90971666D01*
X128055714Y-90971666D01*
X128150952Y-91019285D01*
X128198571Y-91066904D01*
X128246190Y-91162142D01*
X128246190Y-91543095D01*
X128055714Y-90114523D02*
X128722381Y-90114523D01*
X127674762Y-90352619D02*
X128389048Y-90590714D01*
X128389048Y-89971666D01*
X128722381Y-117006666D02*
X128246190Y-117340000D01*
X128722381Y-117578095D02*
X127722381Y-117578095D01*
X127722381Y-117197142D01*
X127770000Y-117101904D01*
X127817619Y-117054285D01*
X127912857Y-117006666D01*
X128055714Y-117006666D01*
X128150952Y-117054285D01*
X128198571Y-117101904D01*
X128246190Y-117197142D01*
X128246190Y-117578095D01*
X127722381Y-116101904D02*
X127722381Y-116578095D01*
X128198571Y-116625714D01*
X128150952Y-116578095D01*
X128103333Y-116482857D01*
X128103333Y-116244761D01*
X128150952Y-116149523D01*
X128198571Y-116101904D01*
X128293810Y-116054285D01*
X128531905Y-116054285D01*
X128627143Y-116101904D01*
X128674762Y-116149523D01*
X128722381Y-116244761D01*
X128722381Y-116482857D01*
X128674762Y-116578095D01*
X128627143Y-116625714D01*
X110312381Y-117006666D02*
X109836190Y-117340000D01*
X110312381Y-117578095D02*
X109312381Y-117578095D01*
X109312381Y-117197142D01*
X109360000Y-117101904D01*
X109407619Y-117054285D01*
X109502857Y-117006666D01*
X109645714Y-117006666D01*
X109740952Y-117054285D01*
X109788571Y-117101904D01*
X109836190Y-117197142D01*
X109836190Y-117578095D01*
X109312381Y-116149523D02*
X109312381Y-116340000D01*
X109360000Y-116435238D01*
X109407619Y-116482857D01*
X109550476Y-116578095D01*
X109740952Y-116625714D01*
X110121905Y-116625714D01*
X110217143Y-116578095D01*
X110264762Y-116530476D01*
X110312381Y-116435238D01*
X110312381Y-116244761D01*
X110264762Y-116149523D01*
X110217143Y-116101904D01*
X110121905Y-116054285D01*
X109883810Y-116054285D01*
X109788571Y-116101904D01*
X109740952Y-116149523D01*
X109693333Y-116244761D01*
X109693333Y-116435238D01*
X109740952Y-116530476D01*
X109788571Y-116578095D01*
X109883810Y-116625714D01*
X126301667Y-108989762D02*
X126444524Y-109037381D01*
X126682620Y-109037381D01*
X126777858Y-108989762D01*
X126825477Y-108942143D01*
X126873096Y-108846905D01*
X126873096Y-108751667D01*
X126825477Y-108656429D01*
X126777858Y-108608810D01*
X126682620Y-108561190D01*
X126492143Y-108513571D01*
X126396905Y-108465952D01*
X126349286Y-108418333D01*
X126301667Y-108323095D01*
X126301667Y-108227857D01*
X126349286Y-108132619D01*
X126396905Y-108085000D01*
X126492143Y-108037381D01*
X126730239Y-108037381D01*
X126873096Y-108085000D01*
X127206429Y-108037381D02*
X127444524Y-109037381D01*
X127635001Y-108323095D01*
X127825477Y-109037381D01*
X128063572Y-108037381D01*
X128968334Y-109037381D02*
X128396905Y-109037381D01*
X128682619Y-109037381D02*
X128682619Y-108037381D01*
X128587381Y-108180238D01*
X128492143Y-108275476D01*
X128396905Y-108323095D01*
X103592381Y-97916905D02*
X104401905Y-97916905D01*
X104497143Y-97869286D01*
X104544762Y-97821667D01*
X104592381Y-97726429D01*
X104592381Y-97535952D01*
X104544762Y-97440714D01*
X104497143Y-97393095D01*
X104401905Y-97345476D01*
X103592381Y-97345476D01*
X104592381Y-96345476D02*
X104592381Y-96916905D01*
X104592381Y-96631191D02*
X103592381Y-96631191D01*
X103735238Y-96726429D01*
X103830476Y-96821667D01*
X103878095Y-96916905D01*
M02*
