G04 #@! TF.FileFunction,Copper,L2,Bot,Signal*
%FSLAX46Y46*%
G04 Gerber Fmt 4.6, Leading zero omitted, Abs format (unit mm)*
G04 Created by KiCad (PCBNEW 4.0.1-stable) date Wednesday, 15 June 2016 'pmt' 14:53:36*
%MOMM*%
G01*
G04 APERTURE LIST*
%ADD10C,0.100000*%
%ADD11C,2.000000*%
%ADD12O,2.000000X1.200000*%
%ADD13R,4.000000X4.000000*%
%ADD14C,0.600000*%
%ADD15C,1.000000*%
%ADD16C,0.250000*%
%ADD17C,0.254000*%
G04 APERTURE END LIST*
D10*
G36*
X101211000Y-98663000D02*
X103259000Y-98663000D01*
X102735000Y-100187000D01*
X101735000Y-100187000D01*
X101211000Y-98663000D01*
X101211000Y-98663000D01*
G37*
G36*
X103259000Y-98187000D02*
X101211000Y-98187000D01*
X101735000Y-96663000D01*
X102735000Y-96663000D01*
X103259000Y-98187000D01*
X103259000Y-98187000D01*
G37*
G36*
X101211000Y-103378000D02*
X103259000Y-103378000D01*
X102735000Y-104902000D01*
X101735000Y-104902000D01*
X101211000Y-103378000D01*
X101211000Y-103378000D01*
G37*
G36*
X103259000Y-102902000D02*
X101211000Y-102902000D01*
X101735000Y-101378000D01*
X102735000Y-101378000D01*
X103259000Y-102902000D01*
X103259000Y-102902000D01*
G37*
G36*
X101211000Y-107918000D02*
X103259000Y-107918000D01*
X102735000Y-109442000D01*
X101735000Y-109442000D01*
X101211000Y-107918000D01*
X101211000Y-107918000D01*
G37*
G36*
X103259000Y-107442000D02*
X101211000Y-107442000D01*
X101735000Y-105918000D01*
X102735000Y-105918000D01*
X103259000Y-107442000D01*
X103259000Y-107442000D01*
G37*
D11*
X102890000Y-94030000D03*
X102890000Y-113030000D03*
X135890000Y-113030000D03*
X135890000Y-94030000D03*
D12*
X133350000Y-98330000D03*
X133350000Y-100330000D03*
X133350000Y-102330000D03*
X133350000Y-104330000D03*
X133350000Y-106330000D03*
X133350000Y-108330000D03*
D13*
X124665000Y-103505000D03*
X113665000Y-103505000D03*
D11*
X121665000Y-96505000D03*
X116665000Y-96505000D03*
X119165000Y-111005000D03*
X116665000Y-111005000D03*
X121665000Y-111005000D03*
D14*
X106045000Y-102235000D03*
D15*
X118745000Y-120330000D03*
X108585000Y-99060000D03*
X121285000Y-86995000D03*
D14*
X106045000Y-104775000D03*
X106045000Y-107315000D03*
X106045000Y-100965000D03*
X106045000Y-103505000D03*
X106045000Y-106045000D03*
D16*
X102235000Y-99425000D02*
X103235000Y-99425000D01*
X103235000Y-99425000D02*
X106045000Y-102235000D01*
X102235000Y-104140000D02*
X105410000Y-104140000D01*
X105410000Y-104140000D02*
X106045000Y-104775000D01*
X102235000Y-108680000D02*
X104680000Y-108680000D01*
X104680000Y-108680000D02*
X106045000Y-107315000D01*
X106045000Y-100965000D02*
X107948590Y-100965000D01*
X107948590Y-100965000D02*
X108183601Y-100729989D01*
X108183601Y-100729989D02*
X131349989Y-100729989D01*
X131349989Y-100729989D02*
X132950000Y-102330000D01*
X132950000Y-102330000D02*
X133350000Y-102330000D01*
X102235000Y-97425000D02*
X105002000Y-97425000D01*
X105002000Y-97425000D02*
X106045000Y-98468000D01*
X106045000Y-98468000D02*
X106045000Y-100965000D01*
X106045000Y-103505000D02*
X108370001Y-101179999D01*
X108370001Y-101179999D02*
X129799999Y-101179999D01*
X129799999Y-101179999D02*
X132950000Y-104330000D01*
X132950000Y-104330000D02*
X133350000Y-104330000D01*
X106045000Y-103505000D02*
X104680000Y-102140000D01*
X104680000Y-102140000D02*
X102235000Y-102140000D01*
X106045000Y-106045000D02*
X133065000Y-106045000D01*
X133065000Y-106045000D02*
X133350000Y-106330000D01*
X106045000Y-106045000D02*
X102870000Y-106045000D01*
X102870000Y-106045000D02*
X102235000Y-106680000D01*
D17*
G36*
X139015000Y-123140000D02*
X99745000Y-123140000D01*
X99745000Y-120388305D01*
X100984674Y-120388305D01*
X101271043Y-121081372D01*
X101800839Y-121612093D01*
X102493405Y-121899672D01*
X103243305Y-121900326D01*
X103936372Y-121613957D01*
X104467093Y-121084161D01*
X104754672Y-120391595D01*
X104754674Y-120388305D01*
X134004674Y-120388305D01*
X134291043Y-121081372D01*
X134820839Y-121612093D01*
X135513405Y-121899672D01*
X136263305Y-121900326D01*
X136956372Y-121613957D01*
X137487093Y-121084161D01*
X137774672Y-120391595D01*
X137775326Y-119641695D01*
X137488957Y-118948628D01*
X136959161Y-118417907D01*
X136266595Y-118130328D01*
X135516695Y-118129674D01*
X134823628Y-118416043D01*
X134292907Y-118945839D01*
X134005328Y-119638405D01*
X134004674Y-120388305D01*
X104754674Y-120388305D01*
X104755326Y-119641695D01*
X104468957Y-118948628D01*
X103939161Y-118417907D01*
X103246595Y-118130328D01*
X102496695Y-118129674D01*
X101803628Y-118416043D01*
X101272907Y-118945839D01*
X100985328Y-119638405D01*
X100984674Y-120388305D01*
X99745000Y-120388305D01*
X99745000Y-114182532D01*
X101917073Y-114182532D01*
X102015736Y-114449387D01*
X102625461Y-114675908D01*
X103275460Y-114651856D01*
X103764264Y-114449387D01*
X103862927Y-114182532D01*
X102890000Y-113209605D01*
X101917073Y-114182532D01*
X99745000Y-114182532D01*
X99745000Y-112765461D01*
X101244092Y-112765461D01*
X101268144Y-113415460D01*
X101470613Y-113904264D01*
X101737468Y-114002927D01*
X102710395Y-113030000D01*
X103069605Y-113030000D01*
X104042532Y-114002927D01*
X104309387Y-113904264D01*
X104513893Y-113353795D01*
X134254716Y-113353795D01*
X134503106Y-113954943D01*
X134962637Y-114415278D01*
X135563352Y-114664716D01*
X136213795Y-114665284D01*
X136814943Y-114416894D01*
X137275278Y-113957363D01*
X137524716Y-113356648D01*
X137525284Y-112706205D01*
X137276894Y-112105057D01*
X136817363Y-111644722D01*
X136216648Y-111395284D01*
X135566205Y-111394716D01*
X134965057Y-111643106D01*
X134504722Y-112102637D01*
X134255284Y-112703352D01*
X134254716Y-113353795D01*
X104513893Y-113353795D01*
X104535908Y-113294539D01*
X104511856Y-112644540D01*
X104309387Y-112155736D01*
X104042532Y-112057073D01*
X103069605Y-113030000D01*
X102710395Y-113030000D01*
X101737468Y-112057073D01*
X101470613Y-112155736D01*
X101244092Y-112765461D01*
X99745000Y-112765461D01*
X99745000Y-111877468D01*
X101917073Y-111877468D01*
X102890000Y-112850395D01*
X103862927Y-111877468D01*
X103764264Y-111610613D01*
X103154539Y-111384092D01*
X102504540Y-111408144D01*
X102015736Y-111610613D01*
X101917073Y-111877468D01*
X99745000Y-111877468D01*
X99745000Y-111328795D01*
X115029716Y-111328795D01*
X115278106Y-111929943D01*
X115737637Y-112390278D01*
X116338352Y-112639716D01*
X116988795Y-112640284D01*
X117589943Y-112391894D01*
X117824715Y-112157532D01*
X118192073Y-112157532D01*
X118290736Y-112424387D01*
X118900461Y-112650908D01*
X119550460Y-112626856D01*
X120039264Y-112424387D01*
X120137927Y-112157532D01*
X119165000Y-111184605D01*
X118192073Y-112157532D01*
X117824715Y-112157532D01*
X118006752Y-111975813D01*
X118012468Y-111977927D01*
X118985395Y-111005000D01*
X119344605Y-111005000D01*
X120317532Y-111977927D01*
X120323722Y-111975639D01*
X120737637Y-112390278D01*
X121338352Y-112639716D01*
X121988795Y-112640284D01*
X122589943Y-112391894D01*
X123050278Y-111932363D01*
X123299716Y-111331648D01*
X123300284Y-110681205D01*
X123051894Y-110080057D01*
X122592363Y-109619722D01*
X121991648Y-109370284D01*
X121341205Y-109369716D01*
X120740057Y-109618106D01*
X120323248Y-110034187D01*
X120317532Y-110032073D01*
X119344605Y-111005000D01*
X118985395Y-111005000D01*
X118012468Y-110032073D01*
X118006278Y-110034361D01*
X117824703Y-109852468D01*
X118192073Y-109852468D01*
X119165000Y-110825395D01*
X120137927Y-109852468D01*
X120039264Y-109585613D01*
X119429539Y-109359092D01*
X118779540Y-109383144D01*
X118290736Y-109585613D01*
X118192073Y-109852468D01*
X117824703Y-109852468D01*
X117592363Y-109619722D01*
X116991648Y-109370284D01*
X116341205Y-109369716D01*
X115740057Y-109618106D01*
X115279722Y-110077637D01*
X115030284Y-110678352D01*
X115029716Y-111328795D01*
X99745000Y-111328795D01*
X99745000Y-98169113D01*
X100563807Y-98169113D01*
X100607838Y-98422317D01*
X100615703Y-98434539D01*
X100565076Y-98618726D01*
X100598740Y-98873515D01*
X101122740Y-100397515D01*
X101270910Y-100638441D01*
X101483110Y-100783431D01*
X101491347Y-100785099D01*
X101458988Y-100792342D01*
X101252880Y-100945868D01*
X101122740Y-101167485D01*
X100598740Y-102691485D01*
X100563807Y-102884113D01*
X100607838Y-103137317D01*
X100615703Y-103149539D01*
X100565076Y-103333726D01*
X100598740Y-103588515D01*
X101122740Y-105112515D01*
X101270910Y-105353441D01*
X101354232Y-105410373D01*
X101252880Y-105485868D01*
X101122740Y-105707485D01*
X100598740Y-107231485D01*
X100563807Y-107424113D01*
X100607838Y-107677317D01*
X100615703Y-107689539D01*
X100565076Y-107873726D01*
X100598740Y-108128515D01*
X101122740Y-109652515D01*
X101270910Y-109893441D01*
X101483110Y-110038431D01*
X101735000Y-110089440D01*
X102735000Y-110089440D01*
X103011012Y-110027658D01*
X103217120Y-109874132D01*
X103347260Y-109652515D01*
X103420329Y-109440000D01*
X104680000Y-109440000D01*
X104970839Y-109382148D01*
X105217401Y-109217401D01*
X106184680Y-108250122D01*
X106230167Y-108250162D01*
X106573943Y-108108117D01*
X106837192Y-107845327D01*
X106979838Y-107501799D01*
X106980162Y-107129833D01*
X106845944Y-106805000D01*
X131778571Y-106805000D01*
X132044691Y-107203277D01*
X132234346Y-107330000D01*
X132044691Y-107456723D01*
X131776977Y-107857386D01*
X131682968Y-108330000D01*
X131776977Y-108802614D01*
X132044691Y-109203277D01*
X132445354Y-109470991D01*
X132917968Y-109565000D01*
X133782032Y-109565000D01*
X134254646Y-109470991D01*
X134655309Y-109203277D01*
X134923023Y-108802614D01*
X135017032Y-108330000D01*
X134923023Y-107857386D01*
X134655309Y-107456723D01*
X134465654Y-107330000D01*
X134655309Y-107203277D01*
X134923023Y-106802614D01*
X135017032Y-106330000D01*
X134923023Y-105857386D01*
X134655309Y-105456723D01*
X134465654Y-105330000D01*
X134655309Y-105203277D01*
X134923023Y-104802614D01*
X135017032Y-104330000D01*
X134923023Y-103857386D01*
X134655309Y-103456723D01*
X134465654Y-103330000D01*
X134655309Y-103203277D01*
X134923023Y-102802614D01*
X135017032Y-102330000D01*
X134923023Y-101857386D01*
X134655309Y-101456723D01*
X134457845Y-101324782D01*
X134713080Y-101113474D01*
X134939592Y-100685281D01*
X134943462Y-100647609D01*
X134818731Y-100457000D01*
X133477000Y-100457000D01*
X133477000Y-100477000D01*
X133223000Y-100477000D01*
X133223000Y-100457000D01*
X133203000Y-100457000D01*
X133203000Y-100203000D01*
X133223000Y-100203000D01*
X133223000Y-100183000D01*
X133477000Y-100183000D01*
X133477000Y-100203000D01*
X134818731Y-100203000D01*
X134943462Y-100012391D01*
X134939592Y-99974719D01*
X134713080Y-99546526D01*
X134457845Y-99335218D01*
X134655309Y-99203277D01*
X134923023Y-98802614D01*
X135017032Y-98330000D01*
X134923023Y-97857386D01*
X134655309Y-97456723D01*
X134254646Y-97189009D01*
X133782032Y-97095000D01*
X132917968Y-97095000D01*
X132445354Y-97189009D01*
X132044691Y-97456723D01*
X131776977Y-97857386D01*
X131682968Y-98330000D01*
X131776977Y-98802614D01*
X132044691Y-99203277D01*
X132242155Y-99335218D01*
X131986920Y-99546526D01*
X131760408Y-99974719D01*
X131756538Y-100012391D01*
X131864406Y-100177231D01*
X131640828Y-100027841D01*
X131349989Y-99969989D01*
X108183601Y-99969989D01*
X107892762Y-100027841D01*
X107646200Y-100192588D01*
X107633788Y-100205000D01*
X106805000Y-100205000D01*
X106805000Y-98468000D01*
X106747148Y-98177161D01*
X106582401Y-97930599D01*
X106309334Y-97657532D01*
X115692073Y-97657532D01*
X115790736Y-97924387D01*
X116400461Y-98150908D01*
X117050460Y-98126856D01*
X117539264Y-97924387D01*
X117637927Y-97657532D01*
X116665000Y-96684605D01*
X115692073Y-97657532D01*
X106309334Y-97657532D01*
X105539401Y-96887599D01*
X105292839Y-96722852D01*
X105002000Y-96665000D01*
X103420329Y-96665000D01*
X103347260Y-96452485D01*
X103216865Y-96240461D01*
X115019092Y-96240461D01*
X115043144Y-96890460D01*
X115245613Y-97379264D01*
X115512468Y-97477927D01*
X116485395Y-96505000D01*
X116844605Y-96505000D01*
X117817532Y-97477927D01*
X118084387Y-97379264D01*
X118288893Y-96828795D01*
X120029716Y-96828795D01*
X120278106Y-97429943D01*
X120737637Y-97890278D01*
X121338352Y-98139716D01*
X121988795Y-98140284D01*
X122589943Y-97891894D01*
X123050278Y-97432363D01*
X123299716Y-96831648D01*
X123300284Y-96181205D01*
X123051894Y-95580057D01*
X122592363Y-95119722D01*
X121991648Y-94870284D01*
X121341205Y-94869716D01*
X120740057Y-95118106D01*
X120279722Y-95577637D01*
X120030284Y-96178352D01*
X120029716Y-96828795D01*
X118288893Y-96828795D01*
X118310908Y-96769539D01*
X118286856Y-96119540D01*
X118084387Y-95630736D01*
X117817532Y-95532073D01*
X116844605Y-96505000D01*
X116485395Y-96505000D01*
X115512468Y-95532073D01*
X115245613Y-95630736D01*
X115019092Y-96240461D01*
X103216865Y-96240461D01*
X103199090Y-96211559D01*
X102986890Y-96066569D01*
X102735000Y-96015560D01*
X101735000Y-96015560D01*
X101458988Y-96077342D01*
X101252880Y-96230868D01*
X101122740Y-96452485D01*
X100598740Y-97976485D01*
X100563807Y-98169113D01*
X99745000Y-98169113D01*
X99745000Y-94353795D01*
X101254716Y-94353795D01*
X101503106Y-94954943D01*
X101962637Y-95415278D01*
X102563352Y-95664716D01*
X103213795Y-95665284D01*
X103814943Y-95416894D01*
X103879481Y-95352468D01*
X115692073Y-95352468D01*
X116665000Y-96325395D01*
X117637927Y-95352468D01*
X117539264Y-95085613D01*
X116929539Y-94859092D01*
X116279540Y-94883144D01*
X115790736Y-95085613D01*
X115692073Y-95352468D01*
X103879481Y-95352468D01*
X104275278Y-94957363D01*
X104524716Y-94356648D01*
X104524718Y-94353795D01*
X134254716Y-94353795D01*
X134503106Y-94954943D01*
X134962637Y-95415278D01*
X135563352Y-95664716D01*
X136213795Y-95665284D01*
X136814943Y-95416894D01*
X137275278Y-94957363D01*
X137524716Y-94356648D01*
X137525284Y-93706205D01*
X137276894Y-93105057D01*
X136817363Y-92644722D01*
X136216648Y-92395284D01*
X135566205Y-92394716D01*
X134965057Y-92643106D01*
X134504722Y-93102637D01*
X134255284Y-93703352D01*
X134254716Y-94353795D01*
X104524718Y-94353795D01*
X104525284Y-93706205D01*
X104276894Y-93105057D01*
X103817363Y-92644722D01*
X103216648Y-92395284D01*
X102566205Y-92394716D01*
X101965057Y-92643106D01*
X101504722Y-93102637D01*
X101255284Y-93703352D01*
X101254716Y-94353795D01*
X99745000Y-94353795D01*
X99745000Y-87368305D01*
X100984674Y-87368305D01*
X101271043Y-88061372D01*
X101800839Y-88592093D01*
X102493405Y-88879672D01*
X103243305Y-88880326D01*
X103936372Y-88593957D01*
X104467093Y-88064161D01*
X104754672Y-87371595D01*
X104754674Y-87368305D01*
X134004674Y-87368305D01*
X134291043Y-88061372D01*
X134820839Y-88592093D01*
X135513405Y-88879672D01*
X136263305Y-88880326D01*
X136956372Y-88593957D01*
X137487093Y-88064161D01*
X137774672Y-87371595D01*
X137775326Y-86621695D01*
X137488957Y-85928628D01*
X136959161Y-85397907D01*
X136266595Y-85110328D01*
X135516695Y-85109674D01*
X134823628Y-85396043D01*
X134292907Y-85925839D01*
X134005328Y-86618405D01*
X134004674Y-87368305D01*
X104754674Y-87368305D01*
X104755326Y-86621695D01*
X104468957Y-85928628D01*
X103939161Y-85397907D01*
X103246595Y-85110328D01*
X102496695Y-85109674D01*
X101803628Y-85396043D01*
X101272907Y-85925839D01*
X100985328Y-86618405D01*
X100984674Y-87368305D01*
X99745000Y-87368305D01*
X99745000Y-83870000D01*
X139015000Y-83870000D01*
X139015000Y-123140000D01*
X139015000Y-123140000D01*
G37*
X139015000Y-123140000D02*
X99745000Y-123140000D01*
X99745000Y-120388305D01*
X100984674Y-120388305D01*
X101271043Y-121081372D01*
X101800839Y-121612093D01*
X102493405Y-121899672D01*
X103243305Y-121900326D01*
X103936372Y-121613957D01*
X104467093Y-121084161D01*
X104754672Y-120391595D01*
X104754674Y-120388305D01*
X134004674Y-120388305D01*
X134291043Y-121081372D01*
X134820839Y-121612093D01*
X135513405Y-121899672D01*
X136263305Y-121900326D01*
X136956372Y-121613957D01*
X137487093Y-121084161D01*
X137774672Y-120391595D01*
X137775326Y-119641695D01*
X137488957Y-118948628D01*
X136959161Y-118417907D01*
X136266595Y-118130328D01*
X135516695Y-118129674D01*
X134823628Y-118416043D01*
X134292907Y-118945839D01*
X134005328Y-119638405D01*
X134004674Y-120388305D01*
X104754674Y-120388305D01*
X104755326Y-119641695D01*
X104468957Y-118948628D01*
X103939161Y-118417907D01*
X103246595Y-118130328D01*
X102496695Y-118129674D01*
X101803628Y-118416043D01*
X101272907Y-118945839D01*
X100985328Y-119638405D01*
X100984674Y-120388305D01*
X99745000Y-120388305D01*
X99745000Y-114182532D01*
X101917073Y-114182532D01*
X102015736Y-114449387D01*
X102625461Y-114675908D01*
X103275460Y-114651856D01*
X103764264Y-114449387D01*
X103862927Y-114182532D01*
X102890000Y-113209605D01*
X101917073Y-114182532D01*
X99745000Y-114182532D01*
X99745000Y-112765461D01*
X101244092Y-112765461D01*
X101268144Y-113415460D01*
X101470613Y-113904264D01*
X101737468Y-114002927D01*
X102710395Y-113030000D01*
X103069605Y-113030000D01*
X104042532Y-114002927D01*
X104309387Y-113904264D01*
X104513893Y-113353795D01*
X134254716Y-113353795D01*
X134503106Y-113954943D01*
X134962637Y-114415278D01*
X135563352Y-114664716D01*
X136213795Y-114665284D01*
X136814943Y-114416894D01*
X137275278Y-113957363D01*
X137524716Y-113356648D01*
X137525284Y-112706205D01*
X137276894Y-112105057D01*
X136817363Y-111644722D01*
X136216648Y-111395284D01*
X135566205Y-111394716D01*
X134965057Y-111643106D01*
X134504722Y-112102637D01*
X134255284Y-112703352D01*
X134254716Y-113353795D01*
X104513893Y-113353795D01*
X104535908Y-113294539D01*
X104511856Y-112644540D01*
X104309387Y-112155736D01*
X104042532Y-112057073D01*
X103069605Y-113030000D01*
X102710395Y-113030000D01*
X101737468Y-112057073D01*
X101470613Y-112155736D01*
X101244092Y-112765461D01*
X99745000Y-112765461D01*
X99745000Y-111877468D01*
X101917073Y-111877468D01*
X102890000Y-112850395D01*
X103862927Y-111877468D01*
X103764264Y-111610613D01*
X103154539Y-111384092D01*
X102504540Y-111408144D01*
X102015736Y-111610613D01*
X101917073Y-111877468D01*
X99745000Y-111877468D01*
X99745000Y-111328795D01*
X115029716Y-111328795D01*
X115278106Y-111929943D01*
X115737637Y-112390278D01*
X116338352Y-112639716D01*
X116988795Y-112640284D01*
X117589943Y-112391894D01*
X117824715Y-112157532D01*
X118192073Y-112157532D01*
X118290736Y-112424387D01*
X118900461Y-112650908D01*
X119550460Y-112626856D01*
X120039264Y-112424387D01*
X120137927Y-112157532D01*
X119165000Y-111184605D01*
X118192073Y-112157532D01*
X117824715Y-112157532D01*
X118006752Y-111975813D01*
X118012468Y-111977927D01*
X118985395Y-111005000D01*
X119344605Y-111005000D01*
X120317532Y-111977927D01*
X120323722Y-111975639D01*
X120737637Y-112390278D01*
X121338352Y-112639716D01*
X121988795Y-112640284D01*
X122589943Y-112391894D01*
X123050278Y-111932363D01*
X123299716Y-111331648D01*
X123300284Y-110681205D01*
X123051894Y-110080057D01*
X122592363Y-109619722D01*
X121991648Y-109370284D01*
X121341205Y-109369716D01*
X120740057Y-109618106D01*
X120323248Y-110034187D01*
X120317532Y-110032073D01*
X119344605Y-111005000D01*
X118985395Y-111005000D01*
X118012468Y-110032073D01*
X118006278Y-110034361D01*
X117824703Y-109852468D01*
X118192073Y-109852468D01*
X119165000Y-110825395D01*
X120137927Y-109852468D01*
X120039264Y-109585613D01*
X119429539Y-109359092D01*
X118779540Y-109383144D01*
X118290736Y-109585613D01*
X118192073Y-109852468D01*
X117824703Y-109852468D01*
X117592363Y-109619722D01*
X116991648Y-109370284D01*
X116341205Y-109369716D01*
X115740057Y-109618106D01*
X115279722Y-110077637D01*
X115030284Y-110678352D01*
X115029716Y-111328795D01*
X99745000Y-111328795D01*
X99745000Y-98169113D01*
X100563807Y-98169113D01*
X100607838Y-98422317D01*
X100615703Y-98434539D01*
X100565076Y-98618726D01*
X100598740Y-98873515D01*
X101122740Y-100397515D01*
X101270910Y-100638441D01*
X101483110Y-100783431D01*
X101491347Y-100785099D01*
X101458988Y-100792342D01*
X101252880Y-100945868D01*
X101122740Y-101167485D01*
X100598740Y-102691485D01*
X100563807Y-102884113D01*
X100607838Y-103137317D01*
X100615703Y-103149539D01*
X100565076Y-103333726D01*
X100598740Y-103588515D01*
X101122740Y-105112515D01*
X101270910Y-105353441D01*
X101354232Y-105410373D01*
X101252880Y-105485868D01*
X101122740Y-105707485D01*
X100598740Y-107231485D01*
X100563807Y-107424113D01*
X100607838Y-107677317D01*
X100615703Y-107689539D01*
X100565076Y-107873726D01*
X100598740Y-108128515D01*
X101122740Y-109652515D01*
X101270910Y-109893441D01*
X101483110Y-110038431D01*
X101735000Y-110089440D01*
X102735000Y-110089440D01*
X103011012Y-110027658D01*
X103217120Y-109874132D01*
X103347260Y-109652515D01*
X103420329Y-109440000D01*
X104680000Y-109440000D01*
X104970839Y-109382148D01*
X105217401Y-109217401D01*
X106184680Y-108250122D01*
X106230167Y-108250162D01*
X106573943Y-108108117D01*
X106837192Y-107845327D01*
X106979838Y-107501799D01*
X106980162Y-107129833D01*
X106845944Y-106805000D01*
X131778571Y-106805000D01*
X132044691Y-107203277D01*
X132234346Y-107330000D01*
X132044691Y-107456723D01*
X131776977Y-107857386D01*
X131682968Y-108330000D01*
X131776977Y-108802614D01*
X132044691Y-109203277D01*
X132445354Y-109470991D01*
X132917968Y-109565000D01*
X133782032Y-109565000D01*
X134254646Y-109470991D01*
X134655309Y-109203277D01*
X134923023Y-108802614D01*
X135017032Y-108330000D01*
X134923023Y-107857386D01*
X134655309Y-107456723D01*
X134465654Y-107330000D01*
X134655309Y-107203277D01*
X134923023Y-106802614D01*
X135017032Y-106330000D01*
X134923023Y-105857386D01*
X134655309Y-105456723D01*
X134465654Y-105330000D01*
X134655309Y-105203277D01*
X134923023Y-104802614D01*
X135017032Y-104330000D01*
X134923023Y-103857386D01*
X134655309Y-103456723D01*
X134465654Y-103330000D01*
X134655309Y-103203277D01*
X134923023Y-102802614D01*
X135017032Y-102330000D01*
X134923023Y-101857386D01*
X134655309Y-101456723D01*
X134457845Y-101324782D01*
X134713080Y-101113474D01*
X134939592Y-100685281D01*
X134943462Y-100647609D01*
X134818731Y-100457000D01*
X133477000Y-100457000D01*
X133477000Y-100477000D01*
X133223000Y-100477000D01*
X133223000Y-100457000D01*
X133203000Y-100457000D01*
X133203000Y-100203000D01*
X133223000Y-100203000D01*
X133223000Y-100183000D01*
X133477000Y-100183000D01*
X133477000Y-100203000D01*
X134818731Y-100203000D01*
X134943462Y-100012391D01*
X134939592Y-99974719D01*
X134713080Y-99546526D01*
X134457845Y-99335218D01*
X134655309Y-99203277D01*
X134923023Y-98802614D01*
X135017032Y-98330000D01*
X134923023Y-97857386D01*
X134655309Y-97456723D01*
X134254646Y-97189009D01*
X133782032Y-97095000D01*
X132917968Y-97095000D01*
X132445354Y-97189009D01*
X132044691Y-97456723D01*
X131776977Y-97857386D01*
X131682968Y-98330000D01*
X131776977Y-98802614D01*
X132044691Y-99203277D01*
X132242155Y-99335218D01*
X131986920Y-99546526D01*
X131760408Y-99974719D01*
X131756538Y-100012391D01*
X131864406Y-100177231D01*
X131640828Y-100027841D01*
X131349989Y-99969989D01*
X108183601Y-99969989D01*
X107892762Y-100027841D01*
X107646200Y-100192588D01*
X107633788Y-100205000D01*
X106805000Y-100205000D01*
X106805000Y-98468000D01*
X106747148Y-98177161D01*
X106582401Y-97930599D01*
X106309334Y-97657532D01*
X115692073Y-97657532D01*
X115790736Y-97924387D01*
X116400461Y-98150908D01*
X117050460Y-98126856D01*
X117539264Y-97924387D01*
X117637927Y-97657532D01*
X116665000Y-96684605D01*
X115692073Y-97657532D01*
X106309334Y-97657532D01*
X105539401Y-96887599D01*
X105292839Y-96722852D01*
X105002000Y-96665000D01*
X103420329Y-96665000D01*
X103347260Y-96452485D01*
X103216865Y-96240461D01*
X115019092Y-96240461D01*
X115043144Y-96890460D01*
X115245613Y-97379264D01*
X115512468Y-97477927D01*
X116485395Y-96505000D01*
X116844605Y-96505000D01*
X117817532Y-97477927D01*
X118084387Y-97379264D01*
X118288893Y-96828795D01*
X120029716Y-96828795D01*
X120278106Y-97429943D01*
X120737637Y-97890278D01*
X121338352Y-98139716D01*
X121988795Y-98140284D01*
X122589943Y-97891894D01*
X123050278Y-97432363D01*
X123299716Y-96831648D01*
X123300284Y-96181205D01*
X123051894Y-95580057D01*
X122592363Y-95119722D01*
X121991648Y-94870284D01*
X121341205Y-94869716D01*
X120740057Y-95118106D01*
X120279722Y-95577637D01*
X120030284Y-96178352D01*
X120029716Y-96828795D01*
X118288893Y-96828795D01*
X118310908Y-96769539D01*
X118286856Y-96119540D01*
X118084387Y-95630736D01*
X117817532Y-95532073D01*
X116844605Y-96505000D01*
X116485395Y-96505000D01*
X115512468Y-95532073D01*
X115245613Y-95630736D01*
X115019092Y-96240461D01*
X103216865Y-96240461D01*
X103199090Y-96211559D01*
X102986890Y-96066569D01*
X102735000Y-96015560D01*
X101735000Y-96015560D01*
X101458988Y-96077342D01*
X101252880Y-96230868D01*
X101122740Y-96452485D01*
X100598740Y-97976485D01*
X100563807Y-98169113D01*
X99745000Y-98169113D01*
X99745000Y-94353795D01*
X101254716Y-94353795D01*
X101503106Y-94954943D01*
X101962637Y-95415278D01*
X102563352Y-95664716D01*
X103213795Y-95665284D01*
X103814943Y-95416894D01*
X103879481Y-95352468D01*
X115692073Y-95352468D01*
X116665000Y-96325395D01*
X117637927Y-95352468D01*
X117539264Y-95085613D01*
X116929539Y-94859092D01*
X116279540Y-94883144D01*
X115790736Y-95085613D01*
X115692073Y-95352468D01*
X103879481Y-95352468D01*
X104275278Y-94957363D01*
X104524716Y-94356648D01*
X104524718Y-94353795D01*
X134254716Y-94353795D01*
X134503106Y-94954943D01*
X134962637Y-95415278D01*
X135563352Y-95664716D01*
X136213795Y-95665284D01*
X136814943Y-95416894D01*
X137275278Y-94957363D01*
X137524716Y-94356648D01*
X137525284Y-93706205D01*
X137276894Y-93105057D01*
X136817363Y-92644722D01*
X136216648Y-92395284D01*
X135566205Y-92394716D01*
X134965057Y-92643106D01*
X134504722Y-93102637D01*
X134255284Y-93703352D01*
X134254716Y-94353795D01*
X104524718Y-94353795D01*
X104525284Y-93706205D01*
X104276894Y-93105057D01*
X103817363Y-92644722D01*
X103216648Y-92395284D01*
X102566205Y-92394716D01*
X101965057Y-92643106D01*
X101504722Y-93102637D01*
X101255284Y-93703352D01*
X101254716Y-94353795D01*
X99745000Y-94353795D01*
X99745000Y-87368305D01*
X100984674Y-87368305D01*
X101271043Y-88061372D01*
X101800839Y-88592093D01*
X102493405Y-88879672D01*
X103243305Y-88880326D01*
X103936372Y-88593957D01*
X104467093Y-88064161D01*
X104754672Y-87371595D01*
X104754674Y-87368305D01*
X134004674Y-87368305D01*
X134291043Y-88061372D01*
X134820839Y-88592093D01*
X135513405Y-88879672D01*
X136263305Y-88880326D01*
X136956372Y-88593957D01*
X137487093Y-88064161D01*
X137774672Y-87371595D01*
X137775326Y-86621695D01*
X137488957Y-85928628D01*
X136959161Y-85397907D01*
X136266595Y-85110328D01*
X135516695Y-85109674D01*
X134823628Y-85396043D01*
X134292907Y-85925839D01*
X134005328Y-86618405D01*
X134004674Y-87368305D01*
X104754674Y-87368305D01*
X104755326Y-86621695D01*
X104468957Y-85928628D01*
X103939161Y-85397907D01*
X103246595Y-85110328D01*
X102496695Y-85109674D01*
X101803628Y-85396043D01*
X101272907Y-85925839D01*
X100985328Y-86618405D01*
X100984674Y-87368305D01*
X99745000Y-87368305D01*
X99745000Y-83870000D01*
X139015000Y-83870000D01*
X139015000Y-123140000D01*
M02*
