M48
INCH,TZ
T1C0.016
T2C0.031
T3C0.039
T4C0.079
%
G90
G05
T1
X41750Y-39750
X41750Y-40250
X41750Y-40750
X41750Y-41250
X41750Y-41750
X41750Y-42250
T2
X42750Y-39000
X46750Y-47374
X47750Y-34250
X52500Y-38713
X52500Y-39500
X52500Y-40287
X52500Y-41075
X52500Y-41862
X52500Y-42650
T3
X40508Y-37020
X40508Y-44500
X45931Y-37994
X45931Y-43703
X46915Y-43703
X47900Y-37994
X47900Y-43703
X53500Y-37020
X53500Y-44500
T4
X44750Y-40750
X49081Y-40750
T0
M30
