M48
METRIC,TZ
T1C0.400
T2C0.800
T3C1.000
T4C2.000
T5C2.700
%
G90
G05
T1
X106045Y-100965
X106045Y-102235
X106045Y-103505
X106045Y-104775
X106045Y-106045
X106045Y-107315
T2
X108585Y-99060
X118745Y-120330
X121285Y-86995
X133350Y-98330
X133350Y-100330
X133350Y-102330
X133350Y-104330
X133350Y-106330
X133350Y-108330
T3
X102890Y-94030
X102890Y-113030
X116665Y-96505
X116665Y-111005
X119165Y-111005
X121665Y-96505
X121665Y-111005
X135890Y-94030
X135890Y-113030
T4
X113665Y-103505
X124665Y-103505
T5
X102870Y-86995
X102870Y-120015
X135890Y-86995
X135890Y-120015
T0
M30
