G04 #@! TF.FileFunction,Copper,L1,Top,Signal*
%FSLAX46Y46*%
G04 Gerber Fmt 4.6, Leading zero omitted, Abs format (unit mm)*
G04 Created by KiCad (PCBNEW 4.0.1-stable) date Wednesday, 15 June 2016 'pmt' 14:53:36*
%MOMM*%
G01*
G04 APERTURE LIST*
%ADD10C,0.100000*%
%ADD11R,0.750000X1.200000*%
%ADD12C,2.000000*%
%ADD13O,2.000000X1.200000*%
%ADD14R,0.900000X1.200000*%
%ADD15R,4.000000X4.000000*%
%ADD16R,1.143000X0.508000*%
%ADD17C,0.600000*%
%ADD18C,1.000000*%
%ADD19C,0.250000*%
%ADD20C,1.000000*%
G04 APERTURE END LIST*
D10*
D11*
X122555000Y-89215000D03*
X122555000Y-87315000D03*
X122555000Y-118430000D03*
X122555000Y-120330000D03*
X115570000Y-118430000D03*
X115570000Y-120330000D03*
D12*
X102890000Y-94030000D03*
X102890000Y-113030000D03*
X135890000Y-113030000D03*
X135890000Y-94030000D03*
D13*
X133350000Y-98330000D03*
X133350000Y-100330000D03*
X133350000Y-102330000D03*
X133350000Y-104330000D03*
X133350000Y-106330000D03*
X133350000Y-108330000D03*
D14*
X122555000Y-91610000D03*
X122555000Y-93810000D03*
X122555000Y-116035000D03*
X122555000Y-113835000D03*
X115570000Y-116035000D03*
X115570000Y-113835000D03*
X126365000Y-91905000D03*
X126365000Y-89705000D03*
X126365000Y-117940000D03*
X126365000Y-115740000D03*
X111760000Y-117940000D03*
X111760000Y-115740000D03*
D15*
X124665000Y-103505000D03*
X113665000Y-103505000D03*
D12*
X121665000Y-96505000D03*
X116665000Y-96505000D03*
X119165000Y-111005000D03*
X116665000Y-111005000D03*
X121665000Y-111005000D03*
D16*
X107442000Y-107315000D03*
X107442000Y-106045000D03*
X107442000Y-104775000D03*
X107442000Y-103505000D03*
X107442000Y-102235000D03*
X107442000Y-100965000D03*
X107442000Y-99695000D03*
X101092000Y-99695000D03*
X101092000Y-100965000D03*
X101092000Y-103505000D03*
X101092000Y-104775000D03*
X101092000Y-106045000D03*
X101092000Y-107315000D03*
X101092000Y-102235000D03*
D17*
X106045000Y-102235000D03*
D18*
X118745000Y-120330000D03*
X108585000Y-99060000D03*
X121285000Y-86995000D03*
D17*
X106045000Y-104775000D03*
X106045000Y-107315000D03*
X106045000Y-100965000D03*
X106045000Y-103505000D03*
X106045000Y-106045000D03*
D19*
X108973998Y-102235000D02*
X107442000Y-102235000D01*
X122555000Y-91610000D02*
X119598998Y-91610000D01*
X119598998Y-91610000D02*
X108973998Y-102235000D01*
X122555000Y-89215000D02*
X125875000Y-89215000D01*
X125875000Y-89215000D02*
X126365000Y-89705000D01*
X122555000Y-91610000D02*
X122555000Y-89215000D01*
X106045000Y-102235000D02*
X107442000Y-102235000D01*
D20*
X118745000Y-120330000D02*
X122555000Y-120330000D01*
X115570000Y-120330000D02*
X118745000Y-120330000D01*
X107442000Y-99695000D02*
X107950000Y-99695000D01*
X107950000Y-99695000D02*
X108585000Y-99060000D01*
X122555000Y-87315000D02*
X121605000Y-87315000D01*
X121605000Y-87315000D02*
X121285000Y-86995000D01*
D19*
X122555000Y-116035000D02*
X121855000Y-116035000D01*
X121855000Y-116035000D02*
X120580001Y-114760001D01*
X120580001Y-114760001D02*
X114859999Y-114760001D01*
X114859999Y-114760001D02*
X108338501Y-108238503D01*
X108338501Y-108238503D02*
X108338501Y-105354001D01*
X108338501Y-105354001D02*
X107759500Y-104775000D01*
X107759500Y-104775000D02*
X107442000Y-104775000D01*
X122555000Y-116035000D02*
X122555000Y-118430000D01*
X126365000Y-115740000D02*
X122850000Y-115740000D01*
X122850000Y-115740000D02*
X122555000Y-116035000D01*
X106045000Y-104775000D02*
X107442000Y-104775000D01*
X115570000Y-116035000D02*
X115570000Y-118430000D01*
X111760000Y-115740000D02*
X115275000Y-115740000D01*
X115275000Y-115740000D02*
X115570000Y-116035000D01*
X111760000Y-115740000D02*
X111060000Y-115740000D01*
X111060000Y-115740000D02*
X107442000Y-112122000D01*
X107442000Y-112122000D02*
X107442000Y-107819000D01*
X107442000Y-107819000D02*
X107442000Y-107315000D01*
X106045000Y-107315000D02*
X107442000Y-107315000D01*
X106045000Y-100965000D02*
X107442000Y-100965000D01*
X107442000Y-103505000D02*
X106045000Y-103505000D01*
X107442000Y-106045000D02*
X106045000Y-106045000D01*
D20*
X101092000Y-107315000D02*
X101907502Y-107315000D01*
X101907502Y-107315000D02*
X102890000Y-106332502D01*
X102890000Y-106332502D02*
X102890000Y-95444213D01*
X102890000Y-95444213D02*
X102890000Y-94030000D01*
X111760000Y-117940000D02*
X111760000Y-117790000D01*
X111760000Y-117790000D02*
X101285000Y-107315000D01*
X101285000Y-107315000D02*
X101092000Y-107315000D01*
X126365000Y-117940000D02*
X126365000Y-119540000D01*
X126365000Y-119540000D02*
X124274999Y-121630001D01*
X124274999Y-121630001D02*
X113850001Y-121630001D01*
X113850001Y-121630001D02*
X111760000Y-119540000D01*
X111760000Y-119540000D02*
X111760000Y-117940000D01*
X133350000Y-98330000D02*
X133750000Y-98330000D01*
X133750000Y-98330000D02*
X137590001Y-102170001D01*
X137590001Y-102170001D02*
X137590001Y-113846001D01*
X133496002Y-117940000D02*
X127815000Y-117940000D01*
X137590001Y-113846001D02*
X133496002Y-117940000D01*
X127815000Y-117940000D02*
X126365000Y-117940000D01*
X133350000Y-98330000D02*
X133350000Y-96730000D01*
X133350000Y-96730000D02*
X128525000Y-91905000D01*
X128525000Y-91905000D02*
X127815000Y-91905000D01*
X127815000Y-91905000D02*
X126365000Y-91905000D01*
D19*
X133350000Y-108330000D02*
X133350000Y-110490000D01*
X133350000Y-110490000D02*
X135890000Y-113030000D01*
X121665000Y-96505000D02*
X121665000Y-94000000D01*
X121665000Y-94000000D02*
X121855000Y-93810000D01*
X121855000Y-93810000D02*
X122555000Y-93810000D01*
X121665000Y-111005000D02*
X121665000Y-113645000D01*
X121665000Y-113645000D02*
X121855000Y-113835000D01*
X121855000Y-113835000D02*
X122555000Y-113835000D01*
X116665000Y-111005000D02*
X116665000Y-113440000D01*
X116665000Y-113440000D02*
X116270000Y-113835000D01*
X116270000Y-113835000D02*
X115570000Y-113835000D01*
M02*
