G04 #@! TF.FileFunction,Legend,Bot*
%FSLAX46Y46*%
G04 Gerber Fmt 4.6, Leading zero omitted, Abs format (unit mm)*
G04 Created by KiCad (PCBNEW 4.0.1-stable) date Wednesday, 15 June 2016 'pmt' 14:53:36*
%MOMM*%
G01*
G04 APERTURE LIST*
%ADD10C,0.100000*%
%ADD11C,0.300000*%
%ADD12C,0.150000*%
G04 APERTURE END LIST*
D10*
D11*
X125300713Y-88013571D02*
X124943570Y-89013571D01*
X124586428Y-88013571D01*
X123086428Y-88299286D02*
X123157856Y-88227857D01*
X123300713Y-88156429D01*
X123443571Y-88156429D01*
X123586428Y-88227857D01*
X123657856Y-88299286D01*
X123729285Y-88442143D01*
X123729285Y-88585000D01*
X123657856Y-88727857D01*
X123586428Y-88799286D01*
X123443571Y-88870714D01*
X123300713Y-88870714D01*
X123157856Y-88799286D01*
X123086428Y-88727857D01*
X123086428Y-88156429D02*
X123086428Y-88727857D01*
X123014999Y-88799286D01*
X122943571Y-88799286D01*
X122800713Y-88727857D01*
X122729285Y-88585000D01*
X122729285Y-88227857D01*
X122872142Y-88013571D01*
X123086428Y-87870714D01*
X123372142Y-87799286D01*
X123657856Y-87870714D01*
X123872142Y-88013571D01*
X124014999Y-88227857D01*
X124086428Y-88513571D01*
X124014999Y-88799286D01*
X123872142Y-89013571D01*
X123657856Y-89156429D01*
X123372142Y-89227857D01*
X123086428Y-89156429D01*
X122872142Y-89013571D01*
X122086428Y-88013571D02*
X122086428Y-89013571D01*
X122086428Y-88156429D02*
X122015000Y-88085000D01*
X121872142Y-88013571D01*
X121657857Y-88013571D01*
X121515000Y-88085000D01*
X121443571Y-88227857D01*
X121443571Y-89013571D01*
X120086428Y-88942143D02*
X120229285Y-89013571D01*
X120514999Y-89013571D01*
X120657857Y-88942143D01*
X120729285Y-88870714D01*
X120800714Y-88727857D01*
X120800714Y-88299286D01*
X120729285Y-88156429D01*
X120657857Y-88085000D01*
X120514999Y-88013571D01*
X120229285Y-88013571D01*
X120086428Y-88085000D01*
X118872143Y-88942143D02*
X119015000Y-89013571D01*
X119300714Y-89013571D01*
X119443571Y-88942143D01*
X119515000Y-88799286D01*
X119515000Y-88227857D01*
X119443571Y-88085000D01*
X119300714Y-88013571D01*
X119015000Y-88013571D01*
X118872143Y-88085000D01*
X118800714Y-88227857D01*
X118800714Y-88370714D01*
X119515000Y-88513571D01*
X118157857Y-88870714D02*
X118086429Y-88942143D01*
X118157857Y-89013571D01*
X118229286Y-88942143D01*
X118157857Y-88870714D01*
X118157857Y-89013571D01*
X117443571Y-89013571D02*
X117443571Y-88013571D01*
X117443571Y-88156429D02*
X117372143Y-88085000D01*
X117229285Y-88013571D01*
X117015000Y-88013571D01*
X116872143Y-88085000D01*
X116800714Y-88227857D01*
X116800714Y-89013571D01*
X116800714Y-88227857D02*
X116729285Y-88085000D01*
X116586428Y-88013571D01*
X116372143Y-88013571D01*
X116229285Y-88085000D01*
X116157857Y-88227857D01*
X116157857Y-89013571D01*
X114872143Y-88942143D02*
X115015000Y-89013571D01*
X115300714Y-89013571D01*
X115443571Y-88942143D01*
X115515000Y-88799286D01*
X115515000Y-88227857D01*
X115443571Y-88085000D01*
X115300714Y-88013571D01*
X115015000Y-88013571D01*
X114872143Y-88085000D01*
X114800714Y-88227857D01*
X114800714Y-88370714D01*
X115515000Y-88513571D01*
X130836428Y-91413571D02*
X130836428Y-89913571D01*
X129979285Y-91413571D01*
X129979285Y-89913571D01*
X128693571Y-91342143D02*
X128836428Y-91413571D01*
X129122142Y-91413571D01*
X129264999Y-91342143D01*
X129336428Y-91199286D01*
X129336428Y-90627857D01*
X129264999Y-90485000D01*
X129122142Y-90413571D01*
X128836428Y-90413571D01*
X128693571Y-90485000D01*
X128622142Y-90627857D01*
X128622142Y-90770714D01*
X129336428Y-90913571D01*
X127764999Y-91413571D02*
X127907857Y-91342143D01*
X127979285Y-91270714D01*
X128050714Y-91127857D01*
X128050714Y-90699286D01*
X127979285Y-90556429D01*
X127907857Y-90485000D01*
X127764999Y-90413571D01*
X127550714Y-90413571D01*
X127407857Y-90485000D01*
X127336428Y-90556429D01*
X127264999Y-90699286D01*
X127264999Y-91127857D01*
X127336428Y-91270714D01*
X127407857Y-91342143D01*
X127550714Y-91413571D01*
X127764999Y-91413571D01*
X126622142Y-90413571D02*
X126622142Y-91913571D01*
X126622142Y-90485000D02*
X126479285Y-90413571D01*
X126193571Y-90413571D01*
X126050714Y-90485000D01*
X125979285Y-90556429D01*
X125907856Y-90699286D01*
X125907856Y-91127857D01*
X125979285Y-91270714D01*
X126050714Y-91342143D01*
X126193571Y-91413571D01*
X126479285Y-91413571D01*
X126622142Y-91342143D01*
X125264999Y-91413571D02*
X125264999Y-90413571D01*
X125264999Y-89913571D02*
X125336428Y-89985000D01*
X125264999Y-90056429D01*
X125193571Y-89985000D01*
X125264999Y-89913571D01*
X125264999Y-90056429D01*
X124693570Y-91413571D02*
X123907856Y-90413571D01*
X124693570Y-90413571D02*
X123907856Y-91413571D01*
X122764999Y-91342143D02*
X122907856Y-91413571D01*
X123193570Y-91413571D01*
X123336427Y-91342143D01*
X123407856Y-91199286D01*
X123407856Y-90627857D01*
X123336427Y-90485000D01*
X123193570Y-90413571D01*
X122907856Y-90413571D01*
X122764999Y-90485000D01*
X122693570Y-90627857D01*
X122693570Y-90770714D01*
X123407856Y-90913571D01*
X121836427Y-91413571D02*
X121979285Y-91342143D01*
X122050713Y-91199286D01*
X122050713Y-89913571D01*
X120122142Y-91413571D02*
X120122142Y-89913571D01*
X119407856Y-90413571D02*
X119407856Y-91413571D01*
X119407856Y-90556429D02*
X119336428Y-90485000D01*
X119193570Y-90413571D01*
X118979285Y-90413571D01*
X118836428Y-90485000D01*
X118764999Y-90627857D01*
X118764999Y-91413571D01*
X118050713Y-90413571D02*
X118050713Y-91913571D01*
X118050713Y-90485000D02*
X117907856Y-90413571D01*
X117622142Y-90413571D01*
X117479285Y-90485000D01*
X117407856Y-90556429D01*
X117336427Y-90699286D01*
X117336427Y-91127857D01*
X117407856Y-91270714D01*
X117479285Y-91342143D01*
X117622142Y-91413571D01*
X117907856Y-91413571D01*
X118050713Y-91342143D01*
X116050713Y-90413571D02*
X116050713Y-91413571D01*
X116693570Y-90413571D02*
X116693570Y-91199286D01*
X116622142Y-91342143D01*
X116479284Y-91413571D01*
X116264999Y-91413571D01*
X116122142Y-91342143D01*
X116050713Y-91270714D01*
X115550713Y-90413571D02*
X114979284Y-90413571D01*
X115336427Y-89913571D02*
X115336427Y-91199286D01*
X115264999Y-91342143D01*
X115122141Y-91413571D01*
X114979284Y-91413571D01*
X113550713Y-89913571D02*
X113050713Y-91413571D01*
X112550713Y-89913571D01*
X111264999Y-91413571D02*
X112122142Y-91413571D01*
X111693570Y-91413571D02*
X111693570Y-89913571D01*
X111836427Y-90127857D01*
X111979285Y-90270714D01*
X112122142Y-90342143D01*
X110622142Y-91270714D02*
X110550714Y-91342143D01*
X110622142Y-91413571D01*
X110693571Y-91342143D01*
X110622142Y-91270714D01*
X110622142Y-91413571D01*
X109622142Y-89913571D02*
X109479285Y-89913571D01*
X109336428Y-89985000D01*
X109264999Y-90056429D01*
X109193570Y-90199286D01*
X109122142Y-90485000D01*
X109122142Y-90842143D01*
X109193570Y-91127857D01*
X109264999Y-91270714D01*
X109336428Y-91342143D01*
X109479285Y-91413571D01*
X109622142Y-91413571D01*
X109764999Y-91342143D01*
X109836428Y-91270714D01*
X109907856Y-91127857D01*
X109979285Y-90842143D01*
X109979285Y-90485000D01*
X109907856Y-90199286D01*
X109836428Y-90056429D01*
X109764999Y-89985000D01*
X109622142Y-89913571D01*
D12*
X139600000Y-96330000D02*
X131600000Y-96330000D01*
X139600000Y-110330000D02*
X139600000Y-96330000D01*
X131600000Y-110330000D02*
X139600000Y-110330000D01*
X131600000Y-96330000D02*
X131600000Y-110330000D01*
X104227381Y-97591667D02*
X104941667Y-97591667D01*
X105084524Y-97544047D01*
X105179762Y-97448809D01*
X105227381Y-97305952D01*
X105227381Y-97210714D01*
X105227381Y-98067857D02*
X104227381Y-98067857D01*
X104227381Y-98448810D01*
X104275000Y-98544048D01*
X104322619Y-98591667D01*
X104417857Y-98639286D01*
X104560714Y-98639286D01*
X104655952Y-98591667D01*
X104703571Y-98544048D01*
X104751190Y-98448810D01*
X104751190Y-98067857D01*
X105227381Y-99591667D02*
X105227381Y-99020238D01*
X105227381Y-99305952D02*
X104227381Y-99305952D01*
X104370238Y-99210714D01*
X104465476Y-99115476D01*
X104513095Y-99020238D01*
X104227381Y-102306667D02*
X104941667Y-102306667D01*
X105084524Y-102259047D01*
X105179762Y-102163809D01*
X105227381Y-102020952D01*
X105227381Y-101925714D01*
X105227381Y-102782857D02*
X104227381Y-102782857D01*
X104227381Y-103163810D01*
X104275000Y-103259048D01*
X104322619Y-103306667D01*
X104417857Y-103354286D01*
X104560714Y-103354286D01*
X104655952Y-103306667D01*
X104703571Y-103259048D01*
X104751190Y-103163810D01*
X104751190Y-102782857D01*
X104322619Y-103735238D02*
X104275000Y-103782857D01*
X104227381Y-103878095D01*
X104227381Y-104116191D01*
X104275000Y-104211429D01*
X104322619Y-104259048D01*
X104417857Y-104306667D01*
X104513095Y-104306667D01*
X104655952Y-104259048D01*
X105227381Y-103687619D01*
X105227381Y-104306667D01*
X104227381Y-106846667D02*
X104941667Y-106846667D01*
X105084524Y-106799047D01*
X105179762Y-106703809D01*
X105227381Y-106560952D01*
X105227381Y-106465714D01*
X105227381Y-107322857D02*
X104227381Y-107322857D01*
X104227381Y-107703810D01*
X104275000Y-107799048D01*
X104322619Y-107846667D01*
X104417857Y-107894286D01*
X104560714Y-107894286D01*
X104655952Y-107846667D01*
X104703571Y-107799048D01*
X104751190Y-107703810D01*
X104751190Y-107322857D01*
X104227381Y-108227619D02*
X104227381Y-108846667D01*
X104608333Y-108513333D01*
X104608333Y-108656191D01*
X104655952Y-108751429D01*
X104703571Y-108799048D01*
X104798810Y-108846667D01*
X105036905Y-108846667D01*
X105132143Y-108799048D01*
X105179762Y-108751429D01*
X105227381Y-108656191D01*
X105227381Y-108370476D01*
X105179762Y-108275238D01*
X105132143Y-108227619D01*
X131142857Y-102444286D02*
X129942857Y-102444286D01*
X129942857Y-102901429D01*
X130000000Y-103015715D01*
X130057143Y-103072858D01*
X130171429Y-103130001D01*
X130342857Y-103130001D01*
X130457143Y-103072858D01*
X130514286Y-103015715D01*
X130571429Y-102901429D01*
X130571429Y-102444286D01*
X131142857Y-104272858D02*
X131142857Y-103587143D01*
X131142857Y-103930001D02*
X129942857Y-103930001D01*
X130114286Y-103815715D01*
X130228571Y-103701429D01*
X130285714Y-103587143D01*
M02*
