G04 #@! TF.FileFunction,Legend,Bot*
%FSLAX46Y46*%
G04 Gerber Fmt 4.6, Leading zero omitted, Abs format (unit mm)*
G04 Created by KiCad (PCBNEW 4.0.1-stable) date Friday, 17 June 2016 'pmt' 14:58:46*
%MOMM*%
G01*
G04 APERTURE LIST*
%ADD10C,0.100000*%
%ADD11C,0.300000*%
%ADD12C,0.200000*%
%ADD13C,0.250000*%
%ADD14C,0.150000*%
G04 APERTURE END LIST*
D10*
D11*
X130067857Y-84982857D02*
X129853571Y-85054286D01*
X129782143Y-85125714D01*
X129710714Y-85268571D01*
X129710714Y-85482857D01*
X129782143Y-85625714D01*
X129853571Y-85697143D01*
X129996429Y-85768571D01*
X130567857Y-85768571D01*
X130567857Y-84268571D01*
X130067857Y-84268571D01*
X129925000Y-84340000D01*
X129853571Y-84411429D01*
X129782143Y-84554286D01*
X129782143Y-84697143D01*
X129853571Y-84840000D01*
X129925000Y-84911429D01*
X130067857Y-84982857D01*
X130567857Y-84982857D01*
X125452143Y-85340000D02*
X124737857Y-85340000D01*
X125595000Y-85768571D02*
X125095000Y-84268571D01*
X124595000Y-85768571D01*
X110035000Y-84982857D02*
X109820714Y-85054286D01*
X109749286Y-85125714D01*
X109677857Y-85268571D01*
X109677857Y-85482857D01*
X109749286Y-85625714D01*
X109820714Y-85697143D01*
X109963572Y-85768571D01*
X110535000Y-85768571D01*
X110535000Y-84268571D01*
X110035000Y-84268571D01*
X109892143Y-84340000D01*
X109820714Y-84411429D01*
X109749286Y-84554286D01*
X109749286Y-84697143D01*
X109820714Y-84840000D01*
X109892143Y-84911429D01*
X110035000Y-84982857D01*
X110535000Y-84982857D01*
X109249286Y-84268571D02*
X108392143Y-84268571D01*
X108820714Y-85768571D02*
X108820714Y-84268571D01*
X107892143Y-85768571D02*
X107892143Y-84268571D01*
X107035000Y-85768571D01*
X107035000Y-84268571D01*
D12*
X124665713Y-117273571D02*
X124308570Y-118273571D01*
X123951428Y-117273571D01*
X122451428Y-117559286D02*
X122522856Y-117487857D01*
X122665713Y-117416429D01*
X122808571Y-117416429D01*
X122951428Y-117487857D01*
X123022856Y-117559286D01*
X123094285Y-117702143D01*
X123094285Y-117845000D01*
X123022856Y-117987857D01*
X122951428Y-118059286D01*
X122808571Y-118130714D01*
X122665713Y-118130714D01*
X122522856Y-118059286D01*
X122451428Y-117987857D01*
X122451428Y-117416429D02*
X122451428Y-117987857D01*
X122379999Y-118059286D01*
X122308571Y-118059286D01*
X122165713Y-117987857D01*
X122094285Y-117845000D01*
X122094285Y-117487857D01*
X122237142Y-117273571D01*
X122451428Y-117130714D01*
X122737142Y-117059286D01*
X123022856Y-117130714D01*
X123237142Y-117273571D01*
X123379999Y-117487857D01*
X123451428Y-117773571D01*
X123379999Y-118059286D01*
X123237142Y-118273571D01*
X123022856Y-118416429D01*
X122737142Y-118487857D01*
X122451428Y-118416429D01*
X122237142Y-118273571D01*
X121451428Y-117273571D02*
X121451428Y-118273571D01*
X121451428Y-117416429D02*
X121380000Y-117345000D01*
X121237142Y-117273571D01*
X121022857Y-117273571D01*
X120880000Y-117345000D01*
X120808571Y-117487857D01*
X120808571Y-118273571D01*
X119451428Y-118202143D02*
X119594285Y-118273571D01*
X119879999Y-118273571D01*
X120022857Y-118202143D01*
X120094285Y-118130714D01*
X120165714Y-117987857D01*
X120165714Y-117559286D01*
X120094285Y-117416429D01*
X120022857Y-117345000D01*
X119879999Y-117273571D01*
X119594285Y-117273571D01*
X119451428Y-117345000D01*
X118237143Y-118202143D02*
X118380000Y-118273571D01*
X118665714Y-118273571D01*
X118808571Y-118202143D01*
X118880000Y-118059286D01*
X118880000Y-117487857D01*
X118808571Y-117345000D01*
X118665714Y-117273571D01*
X118380000Y-117273571D01*
X118237143Y-117345000D01*
X118165714Y-117487857D01*
X118165714Y-117630714D01*
X118880000Y-117773571D01*
X117522857Y-118130714D02*
X117451429Y-118202143D01*
X117522857Y-118273571D01*
X117594286Y-118202143D01*
X117522857Y-118130714D01*
X117522857Y-118273571D01*
X116808571Y-118273571D02*
X116808571Y-117273571D01*
X116808571Y-117416429D02*
X116737143Y-117345000D01*
X116594285Y-117273571D01*
X116380000Y-117273571D01*
X116237143Y-117345000D01*
X116165714Y-117487857D01*
X116165714Y-118273571D01*
X116165714Y-117487857D02*
X116094285Y-117345000D01*
X115951428Y-117273571D01*
X115737143Y-117273571D01*
X115594285Y-117345000D01*
X115522857Y-117487857D01*
X115522857Y-118273571D01*
X114237143Y-118202143D02*
X114380000Y-118273571D01*
X114665714Y-118273571D01*
X114808571Y-118202143D01*
X114880000Y-118059286D01*
X114880000Y-117487857D01*
X114808571Y-117345000D01*
X114665714Y-117273571D01*
X114380000Y-117273571D01*
X114237143Y-117345000D01*
X114165714Y-117487857D01*
X114165714Y-117630714D01*
X114880000Y-117773571D01*
X130201428Y-120573571D02*
X130201428Y-119073571D01*
X129344285Y-120573571D01*
X129344285Y-119073571D01*
X128058571Y-120502143D02*
X128201428Y-120573571D01*
X128487142Y-120573571D01*
X128629999Y-120502143D01*
X128701428Y-120359286D01*
X128701428Y-119787857D01*
X128629999Y-119645000D01*
X128487142Y-119573571D01*
X128201428Y-119573571D01*
X128058571Y-119645000D01*
X127987142Y-119787857D01*
X127987142Y-119930714D01*
X128701428Y-120073571D01*
X127129999Y-120573571D02*
X127272857Y-120502143D01*
X127344285Y-120430714D01*
X127415714Y-120287857D01*
X127415714Y-119859286D01*
X127344285Y-119716429D01*
X127272857Y-119645000D01*
X127129999Y-119573571D01*
X126915714Y-119573571D01*
X126772857Y-119645000D01*
X126701428Y-119716429D01*
X126629999Y-119859286D01*
X126629999Y-120287857D01*
X126701428Y-120430714D01*
X126772857Y-120502143D01*
X126915714Y-120573571D01*
X127129999Y-120573571D01*
X125987142Y-119573571D02*
X125987142Y-121073571D01*
X125987142Y-119645000D02*
X125844285Y-119573571D01*
X125558571Y-119573571D01*
X125415714Y-119645000D01*
X125344285Y-119716429D01*
X125272856Y-119859286D01*
X125272856Y-120287857D01*
X125344285Y-120430714D01*
X125415714Y-120502143D01*
X125558571Y-120573571D01*
X125844285Y-120573571D01*
X125987142Y-120502143D01*
X124629999Y-120573571D02*
X124629999Y-119573571D01*
X124629999Y-119073571D02*
X124701428Y-119145000D01*
X124629999Y-119216429D01*
X124558571Y-119145000D01*
X124629999Y-119073571D01*
X124629999Y-119216429D01*
X124058570Y-120573571D02*
X123272856Y-119573571D01*
X124058570Y-119573571D02*
X123272856Y-120573571D01*
X122129999Y-120502143D02*
X122272856Y-120573571D01*
X122558570Y-120573571D01*
X122701427Y-120502143D01*
X122772856Y-120359286D01*
X122772856Y-119787857D01*
X122701427Y-119645000D01*
X122558570Y-119573571D01*
X122272856Y-119573571D01*
X122129999Y-119645000D01*
X122058570Y-119787857D01*
X122058570Y-119930714D01*
X122772856Y-120073571D01*
X121201427Y-120573571D02*
X121344285Y-120502143D01*
X121415713Y-120359286D01*
X121415713Y-119073571D01*
X119487142Y-120573571D02*
X119487142Y-119073571D01*
X118772856Y-119573571D02*
X118772856Y-120573571D01*
X118772856Y-119716429D02*
X118701428Y-119645000D01*
X118558570Y-119573571D01*
X118344285Y-119573571D01*
X118201428Y-119645000D01*
X118129999Y-119787857D01*
X118129999Y-120573571D01*
X117415713Y-119573571D02*
X117415713Y-121073571D01*
X117415713Y-119645000D02*
X117272856Y-119573571D01*
X116987142Y-119573571D01*
X116844285Y-119645000D01*
X116772856Y-119716429D01*
X116701427Y-119859286D01*
X116701427Y-120287857D01*
X116772856Y-120430714D01*
X116844285Y-120502143D01*
X116987142Y-120573571D01*
X117272856Y-120573571D01*
X117415713Y-120502143D01*
X115415713Y-119573571D02*
X115415713Y-120573571D01*
X116058570Y-119573571D02*
X116058570Y-120359286D01*
X115987142Y-120502143D01*
X115844284Y-120573571D01*
X115629999Y-120573571D01*
X115487142Y-120502143D01*
X115415713Y-120430714D01*
X114915713Y-119573571D02*
X114344284Y-119573571D01*
X114701427Y-119073571D02*
X114701427Y-120359286D01*
X114629999Y-120502143D01*
X114487141Y-120573571D01*
X114344284Y-120573571D01*
X112915713Y-119073571D02*
X112415713Y-120573571D01*
X111915713Y-119073571D01*
X110629999Y-120573571D02*
X111487142Y-120573571D01*
X111058570Y-120573571D02*
X111058570Y-119073571D01*
X111201427Y-119287857D01*
X111344285Y-119430714D01*
X111487142Y-119502143D01*
X109987142Y-120430714D02*
X109915714Y-120502143D01*
X109987142Y-120573571D01*
X110058571Y-120502143D01*
X109987142Y-120430714D01*
X109987142Y-120573571D01*
X108987142Y-119073571D02*
X108844285Y-119073571D01*
X108701428Y-119145000D01*
X108629999Y-119216429D01*
X108558570Y-119359286D01*
X108487142Y-119645000D01*
X108487142Y-120002143D01*
X108558570Y-120287857D01*
X108629999Y-120430714D01*
X108701428Y-120502143D01*
X108844285Y-120573571D01*
X108987142Y-120573571D01*
X109129999Y-120502143D01*
X109201428Y-120430714D01*
X109272856Y-120287857D01*
X109344285Y-120002143D01*
X109344285Y-119645000D01*
X109272856Y-119359286D01*
X109201428Y-119216429D01*
X109129999Y-119145000D01*
X108987142Y-119073571D01*
D13*
X124795000Y-86065000D02*
X124995000Y-85865000D01*
X125095000Y-86165000D02*
X125295000Y-85965000D01*
X126495000Y-86765000D02*
X123695000Y-86765000D01*
X125595000Y-86765000D02*
X126495000Y-86765000D01*
X125595000Y-86265000D02*
X125595000Y-87265000D01*
X125595000Y-86765000D02*
X124595000Y-86265000D01*
X124595000Y-87265000D02*
X125595000Y-86765000D01*
X124595000Y-86265000D02*
X124595000Y-87265000D01*
X125895000Y-88865000D02*
X124295000Y-88865000D01*
X125895000Y-87665000D02*
X124295000Y-87665000D01*
D14*
X139600000Y-96330000D02*
X131600000Y-96330000D01*
X139600000Y-110330000D02*
X139600000Y-96330000D01*
X131600000Y-110330000D02*
X139600000Y-110330000D01*
X131600000Y-96330000D02*
X131600000Y-110330000D01*
D13*
X108285000Y-86065000D02*
X108485000Y-85865000D01*
X108585000Y-86165000D02*
X108785000Y-85965000D01*
X109985000Y-86765000D02*
X107185000Y-86765000D01*
X109085000Y-86765000D02*
X109985000Y-86765000D01*
X109085000Y-86265000D02*
X109085000Y-87265000D01*
X109085000Y-86765000D02*
X108085000Y-86265000D01*
X108085000Y-87265000D02*
X109085000Y-86765000D01*
X108085000Y-86265000D02*
X108085000Y-87265000D01*
X109385000Y-88865000D02*
X107785000Y-88865000D01*
X109385000Y-87665000D02*
X107785000Y-87665000D01*
X129875000Y-86065000D02*
X130075000Y-85865000D01*
X130175000Y-86165000D02*
X130375000Y-85965000D01*
X131575000Y-86765000D02*
X128775000Y-86765000D01*
X130675000Y-86765000D02*
X131575000Y-86765000D01*
X130675000Y-86265000D02*
X130675000Y-87265000D01*
X130675000Y-86765000D02*
X129675000Y-86265000D01*
X129675000Y-87265000D02*
X130675000Y-86765000D01*
X129675000Y-86265000D02*
X129675000Y-87265000D01*
X130975000Y-88865000D02*
X129375000Y-88865000D01*
X130975000Y-87665000D02*
X129375000Y-87665000D01*
D14*
X109085000Y-90130000D02*
X108085000Y-90130000D01*
X108085000Y-91480000D02*
X109085000Y-91480000D01*
X125595000Y-90130000D02*
X124595000Y-90130000D01*
X124595000Y-91480000D02*
X125595000Y-91480000D01*
X130845000Y-90130000D02*
X129845000Y-90130000D01*
X129845000Y-91480000D02*
X130845000Y-91480000D01*
X122658095Y-89987381D02*
X122658095Y-88987381D01*
X122420000Y-88987381D01*
X122277142Y-89035000D01*
X122181904Y-89130238D01*
X122134285Y-89225476D01*
X122086666Y-89415952D01*
X122086666Y-89558810D01*
X122134285Y-89749286D01*
X122181904Y-89844524D01*
X122277142Y-89939762D01*
X122420000Y-89987381D01*
X122658095Y-89987381D01*
X121705714Y-89082619D02*
X121658095Y-89035000D01*
X121562857Y-88987381D01*
X121324761Y-88987381D01*
X121229523Y-89035000D01*
X121181904Y-89082619D01*
X121134285Y-89177857D01*
X121134285Y-89273095D01*
X121181904Y-89415952D01*
X121753333Y-89987381D01*
X121134285Y-89987381D01*
X104227381Y-97591667D02*
X104941667Y-97591667D01*
X105084524Y-97544047D01*
X105179762Y-97448809D01*
X105227381Y-97305952D01*
X105227381Y-97210714D01*
X105227381Y-98067857D02*
X104227381Y-98067857D01*
X104227381Y-98448810D01*
X104275000Y-98544048D01*
X104322619Y-98591667D01*
X104417857Y-98639286D01*
X104560714Y-98639286D01*
X104655952Y-98591667D01*
X104703571Y-98544048D01*
X104751190Y-98448810D01*
X104751190Y-98067857D01*
X105227381Y-99591667D02*
X105227381Y-99020238D01*
X105227381Y-99305952D02*
X104227381Y-99305952D01*
X104370238Y-99210714D01*
X104465476Y-99115476D01*
X104513095Y-99020238D01*
X104227381Y-102306667D02*
X104941667Y-102306667D01*
X105084524Y-102259047D01*
X105179762Y-102163809D01*
X105227381Y-102020952D01*
X105227381Y-101925714D01*
X105227381Y-102782857D02*
X104227381Y-102782857D01*
X104227381Y-103163810D01*
X104275000Y-103259048D01*
X104322619Y-103306667D01*
X104417857Y-103354286D01*
X104560714Y-103354286D01*
X104655952Y-103306667D01*
X104703571Y-103259048D01*
X104751190Y-103163810D01*
X104751190Y-102782857D01*
X104322619Y-103735238D02*
X104275000Y-103782857D01*
X104227381Y-103878095D01*
X104227381Y-104116191D01*
X104275000Y-104211429D01*
X104322619Y-104259048D01*
X104417857Y-104306667D01*
X104513095Y-104306667D01*
X104655952Y-104259048D01*
X105227381Y-103687619D01*
X105227381Y-104306667D01*
X104227381Y-106846667D02*
X104941667Y-106846667D01*
X105084524Y-106799047D01*
X105179762Y-106703809D01*
X105227381Y-106560952D01*
X105227381Y-106465714D01*
X105227381Y-107322857D02*
X104227381Y-107322857D01*
X104227381Y-107703810D01*
X104275000Y-107799048D01*
X104322619Y-107846667D01*
X104417857Y-107894286D01*
X104560714Y-107894286D01*
X104655952Y-107846667D01*
X104703571Y-107799048D01*
X104751190Y-107703810D01*
X104751190Y-107322857D01*
X104227381Y-108227619D02*
X104227381Y-108846667D01*
X104608333Y-108513333D01*
X104608333Y-108656191D01*
X104655952Y-108751429D01*
X104703571Y-108799048D01*
X104798810Y-108846667D01*
X105036905Y-108846667D01*
X105132143Y-108799048D01*
X105179762Y-108751429D01*
X105227381Y-108656191D01*
X105227381Y-108370476D01*
X105179762Y-108275238D01*
X105132143Y-108227619D01*
X131142857Y-102444286D02*
X129942857Y-102444286D01*
X129942857Y-102901429D01*
X130000000Y-103015715D01*
X130057143Y-103072858D01*
X130171429Y-103130001D01*
X130342857Y-103130001D01*
X130457143Y-103072858D01*
X130514286Y-103015715D01*
X130571429Y-102901429D01*
X130571429Y-102444286D01*
X131142857Y-104272858D02*
X131142857Y-103587143D01*
X131142857Y-103930001D02*
X129942857Y-103930001D01*
X130114286Y-103815715D01*
X130228571Y-103701429D01*
X130285714Y-103587143D01*
X112498095Y-88717381D02*
X112498095Y-87717381D01*
X112260000Y-87717381D01*
X112117142Y-87765000D01*
X112021904Y-87860238D01*
X111974285Y-87955476D01*
X111926666Y-88145952D01*
X111926666Y-88288810D01*
X111974285Y-88479286D01*
X112021904Y-88574524D01*
X112117142Y-88669762D01*
X112260000Y-88717381D01*
X112498095Y-88717381D01*
X110974285Y-88717381D02*
X111545714Y-88717381D01*
X111260000Y-88717381D02*
X111260000Y-87717381D01*
X111355238Y-87860238D01*
X111450476Y-87955476D01*
X111545714Y-88003095D01*
X133453095Y-89987381D02*
X133453095Y-88987381D01*
X133215000Y-88987381D01*
X133072142Y-89035000D01*
X132976904Y-89130238D01*
X132929285Y-89225476D01*
X132881666Y-89415952D01*
X132881666Y-89558810D01*
X132929285Y-89749286D01*
X132976904Y-89844524D01*
X133072142Y-89939762D01*
X133215000Y-89987381D01*
X133453095Y-89987381D01*
X132548333Y-88987381D02*
X131929285Y-88987381D01*
X132262619Y-89368333D01*
X132119761Y-89368333D01*
X132024523Y-89415952D01*
X131976904Y-89463571D01*
X131929285Y-89558810D01*
X131929285Y-89796905D01*
X131976904Y-89892143D01*
X132024523Y-89939762D01*
X132119761Y-89987381D01*
X132405476Y-89987381D01*
X132500714Y-89939762D01*
X132548333Y-89892143D01*
X108751666Y-93162381D02*
X109085000Y-92686190D01*
X109323095Y-93162381D02*
X109323095Y-92162381D01*
X108942142Y-92162381D01*
X108846904Y-92210000D01*
X108799285Y-92257619D01*
X108751666Y-92352857D01*
X108751666Y-92495714D01*
X108799285Y-92590952D01*
X108846904Y-92638571D01*
X108942142Y-92686190D01*
X109323095Y-92686190D01*
X108418333Y-92162381D02*
X107751666Y-92162381D01*
X108180238Y-93162381D01*
X125261666Y-93157381D02*
X125595000Y-92681190D01*
X125833095Y-93157381D02*
X125833095Y-92157381D01*
X125452142Y-92157381D01*
X125356904Y-92205000D01*
X125309285Y-92252619D01*
X125261666Y-92347857D01*
X125261666Y-92490714D01*
X125309285Y-92585952D01*
X125356904Y-92633571D01*
X125452142Y-92681190D01*
X125833095Y-92681190D01*
X124690238Y-92585952D02*
X124785476Y-92538333D01*
X124833095Y-92490714D01*
X124880714Y-92395476D01*
X124880714Y-92347857D01*
X124833095Y-92252619D01*
X124785476Y-92205000D01*
X124690238Y-92157381D01*
X124499761Y-92157381D01*
X124404523Y-92205000D01*
X124356904Y-92252619D01*
X124309285Y-92347857D01*
X124309285Y-92395476D01*
X124356904Y-92490714D01*
X124404523Y-92538333D01*
X124499761Y-92585952D01*
X124690238Y-92585952D01*
X124785476Y-92633571D01*
X124833095Y-92681190D01*
X124880714Y-92776429D01*
X124880714Y-92966905D01*
X124833095Y-93062143D01*
X124785476Y-93109762D01*
X124690238Y-93157381D01*
X124499761Y-93157381D01*
X124404523Y-93109762D01*
X124356904Y-93062143D01*
X124309285Y-92966905D01*
X124309285Y-92776429D01*
X124356904Y-92681190D01*
X124404523Y-92633571D01*
X124499761Y-92585952D01*
X130511666Y-93157381D02*
X130845000Y-92681190D01*
X131083095Y-93157381D02*
X131083095Y-92157381D01*
X130702142Y-92157381D01*
X130606904Y-92205000D01*
X130559285Y-92252619D01*
X130511666Y-92347857D01*
X130511666Y-92490714D01*
X130559285Y-92585952D01*
X130606904Y-92633571D01*
X130702142Y-92681190D01*
X131083095Y-92681190D01*
X130035476Y-93157381D02*
X129845000Y-93157381D01*
X129749761Y-93109762D01*
X129702142Y-93062143D01*
X129606904Y-92919286D01*
X129559285Y-92728810D01*
X129559285Y-92347857D01*
X129606904Y-92252619D01*
X129654523Y-92205000D01*
X129749761Y-92157381D01*
X129940238Y-92157381D01*
X130035476Y-92205000D01*
X130083095Y-92252619D01*
X130130714Y-92347857D01*
X130130714Y-92585952D01*
X130083095Y-92681190D01*
X130035476Y-92728810D01*
X129940238Y-92776429D01*
X129749761Y-92776429D01*
X129654523Y-92728810D01*
X129606904Y-92681190D01*
X129559285Y-92585952D01*
M02*
